<svg width="2000" height="1333" viewBox="0 0 2000 1333" fill="none" xmlns="http://www.w3.org/2000/svg">
<rect width="2000" height="1333" fill="#FFE0F1"/>
<path d="M304.517 1084.79C304.517 1084.79 109.73 875.708 271.574 649.344C415.176 448.494 582.6 462.227 705.437 543.732C757.754 578.449 907.574 547.368 1036.98 343.642C1221.34 53.3789 1819.24 233.604 1708.28 662.767C1654.65 870.251 1871.25 877.818 1760.93 1085.24L304.517 1084.79Z" fill="#FFE0F1"/>
<path d="M1835.1 1089.07H164.899C163.856 1089.07 163 1088.21 163 1087.17V1086.52C163 1085.48 163.856 1084.63 164.899 1084.63H1835.09C1836.13 1084.63 1836.99 1085.48 1836.99 1086.52V1087.17C1836.99 1088.22 1836.14 1089.07 1835.1 1089.07Z" fill="#2E3552"/>
<path d="M604.639 326.198C604.575 324.338 603.133 304.312 572.617 303.263C572.617 303.263 587.62 305.052 590.214 311.648C590.214 311.648 579.999 303.501 571.677 306.12C563.361 308.739 558.469 323.315 558.424 328.109C558.372 332.903 562.994 348.353 568.278 349.666C570.28 350.161 572.584 350.033 574.676 349.672C573.273 351.867 571.896 354.286 570.576 356.989C558.398 381.976 570.956 406.397 581.268 403.701C587.878 401.97 589.751 413.25 589.751 413.25L653.983 361.268C653.97 361.262 630.379 312.459 604.639 326.198Z" fill="#2C3A64"/>
<path d="M603.931 1064.29L589.97 1068.41C589.97 1068.41 536.552 982.336 534.286 909.71C533.881 896.744 535.181 884.298 538.792 872.973C538.792 872.973 538.444 869.633 537.839 863.732C537.563 860.978 537.215 857.658 536.816 853.861C535.657 842.715 534.061 827.471 532.233 810.109C528.023 770.161 522.52 719.073 518.098 681.499L521.844 680.573L562.415 670.534L572.424 645.064L602.509 639.344C602.509 639.344 608.211 652.709 609.872 714.093C610.406 722.169 610.78 731.055 610.857 740.676C611.127 770.026 608.778 806.255 600.623 847.291C598.531 857.799 596.059 868.616 593.156 879.71C591.026 887.844 590.015 899.06 589.77 912.001C588.657 971.164 603.931 1064.29 603.931 1064.29Z" fill="#2B478B"/>
<path d="M610.863 740.676L537.846 863.732C537.569 860.978 537.221 857.658 536.822 853.861C535.664 842.715 534.067 827.471 532.239 810.109C528.03 770.161 522.526 719.073 518.104 681.499L521.851 680.573L562.421 670.534L572.43 645.064L602.515 639.344C602.515 639.344 608.218 652.709 609.878 714.093C610.413 722.169 610.786 731.062 610.863 740.676Z" fill="#233862"/>
<path d="M583.179 654.942L581.692 642.182C556.75 648.803 490.105 623.675 490.105 623.675C490.105 623.675 465.942 644.91 469.115 695.811C470.666 720.657 473.492 826.229 476.446 857.471C477.515 868.797 478.448 876.853 478.834 880.071C478.841 880.084 478.841 880.097 478.841 880.103C478.957 881.088 478.616 882.014 478.113 882.87C473.762 890.251 470.164 897.935 467.21 905.798C438.213 983.044 471.677 1078.18 471.677 1078.18L480.36 1074.68C480.36 1074.68 499.4 968.81 514.873 922.034C517.499 914.099 520.016 907.87 522.327 904.144C529.053 893.288 535.297 875.554 540.961 854.46C551.672 814.576 560.29 762.697 566.032 722.652C566.824 722.677 583.179 654.942 583.179 654.942Z" fill="#2B478B"/>
<path d="M743.677 639.486L742.648 653.707C742.648 653.707 738.316 654.878 736.874 654.775C732.33 654.466 740.845 642.607 728.352 641.262C709.563 639.402 687.801 623.34 678.918 617.871C665.395 609.614 644.508 573.668 630.051 548.379C629.639 547.761 629.33 547.143 629.021 546.519C621.484 533.102 614.912 530.445 614.5 519.814C614.191 513.308 614.912 507.735 616.257 502.883C618.014 496.481 620.904 491.429 623.898 487.607C624.309 486.989 624.721 486.371 625.339 485.85C630.296 479.968 635.149 477.491 635.149 477.491C637.627 476.461 640.311 477.697 643.098 480.689V480.792C645.37 483.167 647.848 486.777 650.224 491.32C650.327 491.423 650.429 491.526 650.429 491.629C650.944 492.555 651.459 493.591 652.084 494.724C652.29 494.93 655.251 494.666 655.354 494.872C656.493 497.246 657.265 499.602 658.405 502.176C671.104 529.84 682.13 572.446 693.388 584.936C698.241 590.303 718.581 610.052 736.237 617.896C748.923 623.475 743.677 639.486 743.677 639.486Z" fill="#FFB27D"/>
<path d="M630.83 500.129C622.996 503.758 613.541 506.229 602.103 506.854C559.222 509.202 549.483 471.622 547.713 446.68C553.892 444.44 559.306 444.653 562.427 444.82C565.466 444.987 568.645 445.296 571.258 445.624C576.504 442.883 585.928 429.576 591.373 407.317L593.22 408.173L624.161 422.716C624.161 422.716 620.879 432.78 618.446 442.413C616.553 449.955 615.189 457.233 616.328 459.273C618.768 460.264 620.229 460.888 620.229 460.888C620.229 460.888 620.229 460.901 620.242 460.92C620.563 461.706 627.29 478.848 630.83 500.129Z" fill="#FFB27D"/>
<path d="M624.174 422.716C624.174 422.716 620.885 432.774 618.459 442.414C600.372 437.368 594.881 418.359 593.227 408.173L624.174 422.716Z" fill="#ED985F"/>
<path d="M627.978 433.366C627.978 433.366 584.705 423.353 591.36 396.513C598.009 369.666 596.909 350.296 624.812 355.554C652.721 360.811 655.527 372.381 655.489 381.879C655.45 391.377 639.41 435.277 627.978 433.366Z" fill="#FFB27D"/>
<path d="M657.928 366.635C653.275 356.905 647.803 357.427 644.379 359.151C624.046 340.342 596.67 349.795 596.67 349.795C588.992 368.334 579.794 381.822 579.794 381.822C579.794 381.822 586.443 388.624 605.708 388.476C611.591 388.431 617.512 385.728 622.893 382.008C612.505 392.465 600.333 398.829 600.333 398.829C624.451 394.216 640.62 366.301 642.281 363.334C644.321 366.352 648.235 372.774 648.563 378.192C649.013 385.561 646.477 399.872 650.693 400.413C650.687 400.419 664.906 381.23 657.928 366.635Z" fill="#2C3A64"/>
<path d="M657.137 496.976C655.579 492.298 645.158 474.132 645.158 474.132H645.151C645.106 474.093 638.528 468.064 620.235 460.882C620.235 460.882 620.235 460.895 620.248 460.914C620.538 461.982 628.345 490.258 625.494 496.294C622.597 502.433 567.789 482.619 564.79 478.102C562.395 474.473 562.331 455.284 562.395 447.813C562.408 445.953 562.427 444.82 562.427 444.82C562.427 444.82 528.358 442.935 518.697 457.137C518.697 457.137 535.007 456.564 536.674 467.446C536.829 468.482 536.964 469.518 537.061 470.554C537.286 472.748 537.35 474.943 537.228 477.079C537.06 479.904 535.599 482.414 533.276 484.865C531.158 487.118 528.287 489.331 525.03 491.706C522.9 493.244 520.621 494.859 518.259 496.603C518.059 509.415 518.961 530.477 516.592 552.96C515.993 558.662 514.094 564.119 511.108 568.951C509.93 570.876 508.572 572.703 507.053 574.408C494.965 587.96 473.537 614.975 478.249 631.789C478.596 647.645 612.376 668.482 609.518 651.062C609.518 651.062 629.62 554.196 640.485 530.811C640.871 529.955 641.232 529.119 641.553 528.263C645.036 519.035 644.45 509.544 643.272 501.049C649.406 496.686 657.137 496.976 657.137 496.976Z" fill="#F99746"/>
<path d="M573.505 618.507C547.115 618.231 524.773 590.837 511.121 568.945C514.107 564.112 516 558.655 516.605 552.954C518.98 530.477 518.072 509.408 518.272 496.596C520.634 494.846 522.919 493.231 525.043 491.699C528.294 489.325 531.171 487.111 533.289 484.859C554.89 521.371 609.28 618.887 573.505 618.507Z" fill="#ED7D2B"/>
<path d="M522.16 1085.26H453.448C453.448 1085.26 451.8 1074.79 455.392 1066.85C458.829 1059.23 464.217 1055.76 462.929 1046.54C467.293 1051.04 474.412 1056.07 484.344 1054.73C485.561 1056.7 492.203 1067.26 496.265 1070.18C500.751 1073.41 520.776 1072.26 522.16 1085.26Z" fill="#233862"/>
<path d="M648.498 1087.78L579.787 1087.68C579.787 1087.68 577.238 1076.72 581.757 1069.27C585.76 1062.68 584.235 1058.91 581.287 1053.46C584.396 1054.74 588.425 1055.9 592.854 1055.65C596.278 1055.46 598.865 1053.91 602.045 1052.07C604.999 1055.45 618.677 1069.81 622.63 1072.66C627.116 1075.89 647.14 1074.77 648.498 1087.78Z" fill="#233862"/>
<path d="M684.66 627.768L682.368 641.268C682.368 641.268 677.766 636.873 670.441 636.255C668.246 636.056 666.978 635.869 666.978 635.869C661.114 635.309 654.079 634.447 646.413 633.546L646.31 633.559C633.16 631.751 618.414 629.479 605.881 626.564C597.057 624.428 589.346 621.982 583.997 619.293C583.456 619.035 583.012 618.765 582.458 618.411C569.572 610.869 552.747 586.603 538.927 560.174C537.009 556.526 535.194 552.871 533.392 549.312C526.891 536.056 521.439 522.903 517.815 511.442C515.581 504.608 513.921 498.34 513.2 493.122C512.91 491.281 512.64 489.55 512.575 487.89C509.827 458.083 524.219 452.51 524.219 452.51C524.515 452.375 524.818 452.246 525.217 452.105C527.747 451.442 530.592 452.922 533.701 456.037C537.614 459.904 541.991 466.416 546.619 474.364C553.789 487.034 561.655 503.578 569.096 520.058C573.209 529.087 577.212 538.134 581.152 546.455C583.417 551.519 585.651 556.281 587.743 560.638C591.785 568.952 595.351 575.65 598.357 579.814C600.288 582.529 605.411 586.069 612.125 589.962C623.801 596.796 640.671 608.791 655.315 615.226C661.391 617.941 667.133 620.38 671.896 622.401C679.575 625.676 684.66 627.768 684.66 627.768Z" fill="#FFB27D"/>
<path d="M546.574 474.408C526.253 470.914 512.524 487.864 512.524 487.864C509.827 458.102 524.232 452.562 524.232 452.562C532.516 448.179 540.118 457.851 546.574 474.408Z" fill="#F99746"/>
<path d="M1118.3 599.222L1105.72 601.615C1105.72 601.615 1082.17 596.036 1073.51 620.882C1073.51 620.882 1070.7 631.41 1078.56 630.85C1086.42 630.29 1083.32 629.376 1094.41 628.829C1105.51 628.289 1115.36 622.684 1117.96 614.981L1124.11 608.166L1118.3 599.222Z" fill="#FFB27D"/>
<path d="M1110.19 609.505C1106.33 601.146 1106.78 599.679 1106.78 599.679C1106.78 599.679 1178.68 547.806 1185.21 542.645C1191.74 537.484 1260.59 442.053 1260.59 442.053L1345.39 453.926C1345.39 453.926 1231.27 566.886 1214.46 579.64C1186.69 600.715 1118.48 619.473 1118.48 619.473C1118.48 619.473 1113.23 616.068 1110.19 609.505Z" fill="#233862"/>
<path d="M1535.9 1022.44C1535.9 1022.44 1549.18 1034.74 1546.59 1043.49C1544 1052.23 1532.02 1058.06 1530.4 1068.74C1528.78 1079.43 1522.3 1085.26 1516.47 1085.26C1510.64 1085.26 1488.68 1085.26 1488.68 1085.26C1488.68 1085.26 1484.38 1077.74 1494.75 1075.47C1505.12 1073.2 1509.02 1060.65 1508.38 1048.99C1507.73 1037.33 1509.35 1021.79 1509.35 1021.79L1531.38 1016.61L1535.9 1022.44Z" fill="#2C3A64"/>
<path d="M1370.4 1084.81C1370.07 1084.97 1369.54 1085.12 1368.83 1085.26H1295.14C1295.73 1082.68 1298.04 1077.51 1306.91 1076.07C1318.52 1074.19 1338.64 1067.45 1343.13 1052.59C1343.27 1052.12 1343.4 1051.63 1343.51 1051.13C1347.07 1035.27 1372.98 1056 1372.98 1056C1372.98 1056 1373.06 1056.63 1373.17 1057.7C1373.78 1063.51 1375.32 1082.34 1370.4 1084.81Z" fill="#2C3A64"/>
<path d="M1309.99 660.425C1309.99 660.425 1313.93 709.511 1318.56 768.514C1324.84 848.668 1332.4 947.117 1333.15 965.772C1334.44 998.159 1339.63 1049.97 1339.63 1049.97C1339.63 1049.97 1351.93 1062.28 1376.55 1057.08C1376.55 1057.08 1398.49 983.134 1404.76 904.884C1404.85 903.603 1404.95 902.31 1405.05 901.017C1410.88 821.358 1419.94 653.623 1419.94 653.623L1309.99 660.425Z" fill="#C65447"/>
<path d="M1309.99 660.425C1309.99 660.425 1313.93 709.511 1318.56 768.514L1404.76 904.884C1404.86 903.603 1404.95 902.31 1405.05 901.017C1410.88 821.358 1419.95 653.623 1419.95 653.623L1309.99 660.425Z" fill="#B2443B"/>
<path d="M1327.97 666.249C1327.97 666.249 1398.9 844.022 1445.54 927.561C1492.18 1011.11 1506.75 1034.42 1506.75 1034.42C1506.75 1034.42 1533.48 1023.74 1535.9 1016.45C1535.9 1016.45 1518.07 855.167 1486.84 815.85C1469.19 793.636 1448.45 726.963 1447.48 703.649C1446.51 680.335 1441.17 634.189 1441.17 634.189L1327.97 666.249Z" fill="#C65447"/>
<path d="M1296.72 386.39C1296.72 386.39 1267.78 437.297 1239.49 443.945C1239.49 443.945 1240.67 426.847 1247.56 415.148C1244.74 411.821 1242.26 408.765 1240.12 406.03C1232.99 396.905 1229.61 391.326 1229.61 391.326L1239.21 365.521L1245.72 348.012C1248.86 353.694 1252.31 358.533 1255.91 362.677C1274.44 383.983 1296.72 386.39 1296.72 386.39Z" fill="#FFB27D"/>
<path d="M1255.9 362.677C1255.9 362.677 1259.36 388.186 1240.12 406.03C1232.99 396.905 1229.61 391.326 1229.61 391.326L1239.21 365.522C1249.5 362.381 1255.9 362.677 1255.9 362.677Z" fill="#ED975D"/>
<path d="M1221.98 395.084C1221.98 395.084 1265.22 378.231 1254.3 351.467C1243.39 324.704 1241.62 304.511 1213.55 314.138C1185.48 323.765 1184.32 336.152 1185.79 345.965C1187.26 355.792 1210.45 398.778 1221.98 395.084Z" fill="#FFB27D"/>
<path d="M1445.36 647.632C1427.91 672.709 1297.49 706.203 1299.04 688.848C1299.63 682.207 1300.42 670.495 1299.02 654.614C1298.69 650.894 1298.23 646.956 1297.63 642.786C1294.32 619.981 1286.45 590.663 1268.9 556.718C1267.58 554.176 1266.21 551.615 1264.79 549.015C1257.56 535.875 1251.41 521.982 1246.71 508.398C1237.67 482.291 1234.03 457.317 1238.59 440.985C1238.61 440.907 1238.64 440.837 1238.66 440.753C1265.92 428.153 1276.49 379.273 1276.49 379.273C1276.49 379.273 1369.5 395.965 1421.6 519.91C1421.59 519.923 1460.54 625.811 1445.36 647.632Z" fill="#2B478B"/>
<path d="M1299.03 654.62C1298.7 650.901 1298.24 646.963 1297.64 642.793C1294.32 619.987 1286.46 590.669 1268.9 556.725C1271.92 538.462 1276.07 523.276 1280.64 516.435C1299.19 488.643 1310 484.292 1310 484.292C1310 484.292 1337.81 601.583 1299.03 654.62Z" fill="#233862"/>
<path d="M1260.52 301.757C1260.82 301.159 1261.7 300.522 1263.84 299.865C1263.84 299.865 1261.83 299.19 1259.49 299.704C1258.28 296.744 1255.32 291.699 1249.79 291.661C1249.79 291.661 1252.96 292.484 1254.13 295.663C1246.55 290.856 1232.49 289.46 1197.39 301.146C1151.13 316.551 1174.25 343.398 1181.25 345.547C1188.26 347.703 1201.17 333.887 1212.78 332.002C1224.39 330.116 1230.66 346.281 1235.09 347.619C1239.52 348.958 1237 345.284 1241.64 341.596C1246.27 337.909 1248.93 346.577 1248.83 352.664C1248.73 358.752 1257.77 364.524 1257.77 364.524C1257.77 364.524 1257.77 364.524 1263.06 354.807C1268.36 345.09 1266.92 309.807 1261.86 303.456C1261.42 302.903 1260.97 302.33 1260.52 301.757Z" fill="#2C3A64"/>
<path d="M1208.8 382.266C1208.8 382.266 1210.99 386.197 1218.63 383.25C1218.63 383.25 1225.06 380.779 1223.28 376.275C1223.28 376.275 1215.75 374.91 1208.8 382.266Z" fill="white"/>
<path d="M1249.45 601.486L1249.46 626.454C1249.46 627.722 1248.42 628.758 1247.15 628.758L973.441 628.88C972.173 628.88 971.136 627.844 971.136 626.576L971.124 598.623C971.124 593.803 972.012 589.183 973.64 584.916C973.769 584.569 973.904 584.228 974.052 583.893C974.722 582.271 975.5 580.701 976.376 579.196V579.189C983.102 567.651 995.628 559.845 1009.88 559.839L1199.99 559.755C1203.94 559.755 1207.54 561.975 1209.37 565.483C1215.21 576.712 1231.76 566.017 1238.52 573.43C1240.59 575.695 1242.4 578.179 1243.94 580.849C1244.48 581.802 1244.99 582.773 1245.46 583.764C1248.01 589.157 1249.44 595.161 1249.45 601.486Z" fill="#D3A47D"/>
<path d="M1249.44 601.486V605.914L971.13 606.042L971.124 598.629C971.124 593.809 972.012 589.189 973.64 584.923C973.769 584.575 973.904 584.234 974.052 583.899C974.722 582.278 975.5 580.708 976.376 579.202V579.195C983.102 567.657 995.628 559.852 1009.88 559.845L1200.19 559.762C1204.17 559.762 1207.79 561.769 1210.2 564.935C1217.31 574.292 1231.81 566.087 1238.52 573.436C1240.58 575.701 1242.4 578.185 1243.93 580.856C1244.47 581.808 1244.98 582.78 1245.45 583.771C1248.01 589.157 1249.44 595.161 1249.44 601.486Z" fill="#E2B691"/>
<path d="M1245.46 583.771L974.046 583.893C974.715 582.271 975.494 580.701 976.369 579.196V579.189C983.096 567.651 995.621 559.845 1009.87 559.839L1199.52 559.755C1203.43 559.755 1207.29 560.843 1210.51 563.069C1217.34 567.799 1232.04 566.332 1238.52 573.43C1240.58 575.695 1242.4 578.179 1243.93 580.849C1244.48 581.802 1244.99 582.773 1245.46 583.771Z" fill="#EDC39D"/>
<path d="M1202.95 524.813L1202.97 557.876C1202.97 558.912 1202.12 559.755 1201.09 559.755L1019.44 559.839C1018.41 559.839 1017.56 558.996 1017.56 557.96L1017.55 522.458C1017.55 516.313 1019.32 510.56 1022.39 505.689C1028 496.77 1037.93 490.811 1049.19 490.804L1168.86 490.753C1177.28 490.747 1185.02 493.842 1190.99 498.951C1198.29 505.206 1202.95 514.492 1202.95 524.813Z" fill="#D3A47D"/>
<path d="M1159.51 460.309L1159.52 490.232C1159.52 490.888 1158.98 491.435 1158.33 491.435L1062.15 491.48C1061.49 491.48 1060.95 490.94 1060.95 490.283L1060.93 458.803C1060.93 447.697 1070.02 438.604 1081.13 438.604L1137.76 438.578C1149.72 438.565 1159.51 448.346 1159.51 460.309Z" fill="#D8A987"/>
<path d="M1202.95 524.813L1202.96 540.515L1017.56 540.598L1017.55 522.458C1017.55 518.951 1018.13 515.566 1019.2 512.407C1020 510.032 1021.08 507.78 1022.39 505.689C1028 496.77 1037.93 490.811 1049.19 490.804L1168.86 490.753C1177.28 490.747 1185.02 493.842 1190.99 498.951C1195.18 502.542 1198.5 507.124 1200.56 512.323C1202.1 516.197 1202.95 520.405 1202.95 524.813Z" fill="#E2B691"/>
<path d="M1200.56 512.323L1019.19 512.407C1019.99 510.032 1021.07 507.78 1022.39 505.689C1027.99 496.77 1037.92 490.811 1049.18 490.804L1168.85 490.753C1177.28 490.747 1185.01 493.842 1190.98 498.951C1195.17 502.535 1198.49 507.124 1200.56 512.323Z" fill="#EDC39D"/>
<path d="M1190.98 498.951C1187.65 499.048 1183.51 503.945 1179.32 503.842C1174.62 503.719 1172.02 498.031 1167.94 498.282C1163.86 498.533 1163.36 502.323 1164.6 505.785C1165.84 509.247 1166.77 516.647 1160.9 515.972C1155.24 515.322 1158.73 506.821 1158.54 501.255C1158.33 495.238 1148.27 493.346 1141.1 498.913C1133.93 504.479 1120.38 505.637 1116.61 499.665C1115.12 497.317 1109.8 496.203 1106.71 497.812C1103.62 499.421 1106.45 514.073 1106.83 517.909C1107.2 521.744 1099.85 521.873 1099.29 519.028C1098.7 516.036 1102.54 497.819 1098.91 497.407C1095.29 496.995 1093.59 498.842 1093.88 500.129C1094.15 501.313 1095.39 504.53 1093.14 504.743C1091.22 504.929 1089.98 503.938 1090.56 502.503C1090.92 501.615 1092.64 498.063 1088.27 497.124C1083.9 496.178 1081.02 498.404 1080.52 499.556C1080.03 500.708 1081.92 505.573 1080.94 506.808C1079.95 508.044 1076.76 508.044 1075.99 506.068C1075.55 504.916 1079.53 499.144 1075.49 497.574C1071.45 496.01 1066.58 498.816 1063.2 501.538C1059.82 504.26 1054.13 505.586 1049.43 503.031C1044.73 500.476 1040.94 503.037 1039.54 504.685C1038.14 506.332 1039.95 511.03 1039.55 512.625C1039.13 514.215 1031.71 515.077 1034.1 509.305C1036.49 503.533 1032.98 501.924 1032.98 501.924C1028.88 500.399 1024.28 503.97 1022.38 505.689C1027.98 496.77 1037.92 490.811 1049.17 490.804L1168.84 490.753C1177.28 490.747 1185.01 493.842 1190.98 498.951Z" fill="#543419"/>
<path d="M1159.51 460.309L1159.52 477.278L1060.94 477.323L1060.93 458.796C1060.93 458.642 1060.93 458.488 1060.94 458.333C1061.19 447.439 1070.17 438.603 1081.13 438.597L1137.76 438.571C1149.04 438.565 1158.39 447.265 1159.42 458.288C1159.48 458.957 1159.51 459.627 1159.51 460.309Z" fill="#E5BC9C"/>
<path d="M1159.42 458.288L1060.94 458.333C1061.19 447.439 1070.17 438.603 1081.13 438.597L1137.76 438.571C1149.03 438.565 1158.39 447.265 1159.42 458.288Z" fill="#F2CCAD"/>
<path d="M1058.4 481.126L1057.96 481.017C1059.39 478.121 1061.96 475.933 1064.07 474.794C1065.92 473.803 1067.45 473.359 1068 473.211C1068.14 473.179 1068.28 473.211 1068.38 473.301L1068.79 473.648C1068.99 473.822 1068.92 474.15 1068.66 474.221C1066.7 474.762 1060.55 476.75 1058.4 481.126Z" fill="#543419"/>
<path d="M1050.72 482.896C1052.05 477.503 1055.18 478.275 1059.04 479.228C1062.9 480.18 1066.04 480.952 1064.71 486.339C1063.76 490.2 1059.86 492.561 1056 491.609C1052.13 490.656 1049.77 486.757 1050.72 482.896Z" fill="#ED7D2B"/>
<path d="M1053.94 482.709C1052.79 485.026 1052.8 487.613 1053.75 489.807C1052.19 488.089 1051.48 485.65 1052.08 483.23C1053.04 479.305 1054.97 478.649 1057.43 478.951C1056.19 479.389 1055.03 480.508 1053.94 482.709Z" fill="#F99746"/>
<path d="M1190.19 460.65C1190.19 460.65 1161.12 471.261 1175.19 492.574C1175.19 492.568 1196.63 484.299 1190.19 460.65Z" fill="#543419"/>
<path d="M1154.16 475.978L1154.7 476.326C1156.29 471.963 1156 467.124 1155.08 463.81C1154.27 460.907 1153.22 458.874 1152.82 458.166C1152.72 457.992 1152.55 457.876 1152.35 457.857L1151.58 457.78C1151.2 457.741 1150.94 458.14 1151.12 458.475C1152.51 461.049 1156.54 469.395 1154.16 475.978Z" fill="#543419"/>
<path d="M1142.35 477.934C1144.26 470.193 1148.76 471.3 1154.31 472.664C1159.86 474.028 1164.36 475.135 1162.45 482.883C1161.09 488.43 1155.48 491.821 1149.93 490.457C1144.38 489.086 1140.99 483.481 1142.35 477.934Z" fill="#ED7D2B"/>
<path d="M1146.98 477.664C1145.33 480.991 1145.34 484.71 1146.72 487.864C1144.47 485.399 1143.45 481.892 1144.31 478.411C1145.7 472.773 1148.46 471.828 1152.01 472.259C1150.22 472.896 1148.55 474.511 1146.98 477.664Z" fill="#F99746"/>
<path d="M1155 480.888C1155 480.888 1159.36 499.491 1173.47 492.432C1173.47 492.432 1169.98 478.681 1155 480.888Z" fill="#543419"/>
<path d="M989.565 532.69C989.565 532.69 1018.64 543.276 1004.59 564.595C1004.59 564.595 983.141 556.345 989.565 532.69Z" fill="#599DAD"/>
<path d="M987.865 553.346C987.865 553.346 1006.12 548.771 1006.31 564.299C1006.31 564.299 992.693 567.452 987.865 553.346Z" fill="#6BB7BF"/>
<path d="M1026.38 547.4L1027.01 547.246C1024.95 543.089 1021.27 539.942 1018.23 538.321C1015.58 536.898 1013.37 536.261 1012.59 536.055C1012.4 536.004 1012.19 536.055 1012.04 536.184L1011.46 536.686C1011.17 536.937 1011.27 537.407 1011.64 537.503C1014.45 538.269 1023.27 541.12 1026.38 547.4Z" fill="#543419"/>
<path d="M1037.41 549.929C1035.5 542.188 1031 543.301 1025.46 544.672C1019.91 546.042 1015.41 547.156 1017.32 554.897C1018.69 560.444 1024.3 563.829 1029.85 562.458C1035.4 561.087 1038.79 555.482 1037.41 549.929Z" fill="#ED7D2B"/>
<path d="M1032.79 549.665C1034.44 552.992 1034.43 556.705 1033.06 559.865C1035.3 557.4 1036.31 553.893 1035.46 550.412C1034.07 544.775 1031.3 543.829 1027.76 544.266C1029.55 544.903 1031.22 546.512 1032.79 549.665Z" fill="#F99746"/>
<path d="M1024.77 552.896C1024.77 552.896 1020.43 571.5 1006.31 564.46C1006.31 564.46 1009.79 550.708 1024.77 552.896Z" fill="#543419"/>
<path d="M1097.76 438.591C1097.76 438.591 1089.75 420.894 1069.78 422.632C1069.78 422.632 1077.1 430.109 1079.92 433.095C1086.44 440 1097.76 438.591 1097.76 438.591Z" fill="#599DAD"/>
<path d="M1120.18 438.578C1120.18 438.578 1126.68 419.826 1146.65 421.544C1146.65 421.544 1141.28 430.566 1138.01 433.063C1134.76 435.566 1120.18 438.578 1120.18 438.578Z" fill="#599DAD"/>
<path d="M1102.17 428.456C1102.41 426.886 1100.17 419.717 1103.65 415.972C1107.13 412.227 1110.65 409.672 1110.65 409.672C1110.65 409.672 1112.15 417.188 1111.78 418.983C1110.87 423.295 1102.17 428.456 1102.17 428.456Z" fill="#599DAD"/>
<path d="M1099.08 425.721L1099.61 425.592C1097.88 422.111 1094.79 419.479 1092.25 418.114C1090.02 416.924 1088.18 416.39 1087.52 416.216C1087.36 416.171 1087.18 416.216 1087.06 416.325L1086.57 416.744C1086.33 416.95 1086.42 417.349 1086.73 417.432C1089.08 418.076 1096.47 420.463 1099.08 425.721Z" fill="#FFB93E"/>
<path d="M1108.31 427.844C1106.71 421.364 1102.95 422.291 1098.3 423.442C1093.65 424.588 1089.89 425.521 1091.49 432.001C1092.63 436.647 1097.33 439.485 1101.98 438.333C1106.63 437.181 1109.47 432.49 1108.31 427.844Z" fill="#ED7D2B"/>
<path d="M1104.44 427.619C1105.82 430.405 1105.82 433.52 1104.67 436.164C1106.55 434.099 1107.4 431.164 1106.68 428.249C1105.51 423.526 1103.2 422.735 1100.23 423.101C1101.73 423.629 1103.13 424.98 1104.44 427.619Z" fill="#F99746"/>
<path d="M1120.24 438.275C1120.24 438.275 1117.67 426.808 1105.01 426.3C1105.01 426.3 1107.57 439.131 1120.24 438.275Z" fill="#543419"/>
<path d="M1121.34 425.708L1120.81 425.579C1122.53 422.098 1125.62 419.46 1128.16 418.095C1130.38 416.905 1132.23 416.364 1132.89 416.191C1133.05 416.146 1133.22 416.191 1133.35 416.3L1133.84 416.718C1134.08 416.924 1133.99 417.317 1133.68 417.407C1131.32 418.057 1123.94 420.451 1121.34 425.708Z" fill="#FFB93E"/>
<path d="M1112.09 427.838C1113.69 421.352 1117.45 422.278 1122.11 423.424C1126.76 424.569 1130.53 425.496 1128.92 431.976C1127.78 436.622 1123.09 439.46 1118.44 438.321C1113.79 437.182 1110.95 432.484 1112.09 427.838Z" fill="#ED7D2B"/>
<path d="M1115.97 427.613C1114.59 430.399 1114.6 433.514 1115.76 436.159C1113.88 434.093 1113.02 431.159 1113.74 428.243C1114.91 423.52 1117.22 422.729 1120.18 423.095C1118.68 423.617 1117.29 424.975 1115.97 427.613Z" fill="#F99746"/>
<path d="M1075.93 440.026C1075.93 440.026 1080.79 435.882 1087.31 436.738C1093.84 437.6 1097.02 438.449 1100.85 437.31C1104.67 436.165 1109.85 436.667 1114.15 437.497C1118.44 438.327 1138.03 433.617 1146.97 440.637C1146.97 440.637 1137.78 439.022 1136.37 440.946C1134.97 442.87 1139.74 448.958 1136.89 449.775C1135.21 450.257 1132.98 450.418 1133.43 446.834C1133.87 443.25 1131.89 440.405 1130.1 440.663C1128.31 440.92 1131 444.299 1129.91 445.766C1128.82 447.239 1125.05 446.068 1125.88 443.893C1126.71 441.718 1127.35 440.18 1124.15 439.865C1120.95 439.543 1115.64 441.532 1115.83 443.964C1116.03 446.396 1118.01 450.875 1115.9 451.261C1113.79 451.647 1111.99 451.004 1112.95 447.297C1113.91 443.584 1112.24 439.685 1109.24 439.813C1106.23 439.942 1098.81 444.936 1094.07 443.018C1089.33 441.1 1087.72 438.919 1086.13 440.142C1084.99 441.023 1086.84 445.869 1085.07 445.94C1083.57 446.004 1082.62 445.644 1083.13 443.018C1083.63 440.386 1079.78 438.16 1075.93 440.026Z" fill="#543419"/>
<path d="M1047.82 491.486C1047.82 491.486 1050.63 482.793 1046.15 480.071C1041.67 477.342 1033.86 475.302 1033.86 475.302C1033.86 475.302 1036.68 483.237 1039.63 485.534C1042.56 487.831 1047.82 491.486 1047.82 491.486Z" fill="#543419"/>
<path d="M1047.02 491.222C1047.02 491.222 1040.07 486.3 1035.97 486.235C1031.88 486.171 1028.87 489.569 1028.87 489.569C1028.87 489.569 1033.41 492.574 1035.39 492.059C1037.38 491.544 1045.16 490.013 1047.02 491.222Z" fill="#543419"/>
<path d="M1047.82 491.486C1047.82 491.486 1049.25 485.688 1055.5 485.843C1055.5 485.843 1055.3 490.27 1047.82 491.486Z" fill="#543419"/>
<path d="M1256 588.191C1256 588.191 1263.18 618.507 1237.46 618.481C1237.46 618.481 1232.54 595.881 1256 588.191Z" fill="#86D1CD"/>
<path d="M1262.97 616.814C1262.97 616.814 1254.95 640.309 1237.61 629.388C1237.61 629.382 1243.88 612.053 1262.97 616.814Z" fill="#599DAD"/>
<path d="M1225.76 621.589C1225.76 621.589 1229.24 611.016 1223.7 607.702C1218.16 604.388 1208.51 601.904 1208.51 601.904C1208.51 601.904 1212 611.55 1215.63 614.35C1219.28 617.149 1225.76 621.589 1225.76 621.589Z" fill="#543419"/>
<path d="M1237.04 631.859C1237.04 631.859 1227.44 620.695 1220.59 618.88C1213.74 617.065 1207.28 621.506 1207.28 621.506C1207.28 621.506 1214.67 630.186 1218.21 630.154C1221.76 630.122 1234.43 629.06 1237.04 631.859Z" fill="#543419"/>
<path d="M1236.78 610.733L1237.6 610.534C1234.92 605.128 1230.14 601.048 1226.19 598.931C1222.74 597.084 1219.87 596.254 1218.85 595.984C1218.6 595.92 1218.34 595.984 1218.14 596.151L1217.38 596.801C1217 597.123 1217.14 597.734 1217.62 597.863C1221.28 598.867 1232.75 602.573 1236.78 610.733Z" fill="#543419"/>
<path d="M1251.13 614.021C1248.64 603.963 1242.8 605.405 1235.58 607.187C1228.37 608.97 1222.53 610.411 1225.01 620.469C1226.79 627.676 1234.08 632.078 1241.3 630.295C1248.51 628.519 1252.91 621.229 1251.13 614.021Z" fill="#ED7D2B"/>
<path d="M1245.11 613.68C1247.26 617.998 1247.24 622.831 1245.46 626.936C1248.38 623.732 1249.7 619.176 1248.58 614.652C1246.77 607.329 1243.18 606.1 1238.57 606.666C1240.9 607.483 1243.07 609.581 1245.11 613.68Z" fill="#F99746"/>
<path d="M1238.52 573.43C1233.1 571.332 1225.91 580.907 1218.61 580.721C1211.31 580.534 1207.28 571.705 1200.94 572.091C1194.61 572.477 1193.85 578.365 1195.76 583.739C1197.69 589.112 1199.13 600.598 1190.01 599.543C1181.24 598.533 1186.64 585.341 1186.35 576.705C1186.04 567.368 1170.41 564.427 1159.28 573.069C1148.15 581.712 1127.13 583.507 1121.27 574.24C1118.96 570.592 1110.7 568.874 1105.9 571.37C1101.1 573.867 1105.51 596.615 1106.09 602.561C1106.67 608.513 1095.26 608.706 1094.4 604.292C1093.48 599.646 1099.44 571.37 1093.81 570.733C1088.17 570.096 1085.55 572.96 1086 574.961C1086.41 576.802 1088.34 581.789 1084.85 582.13C1081.87 582.419 1079.94 580.881 1080.84 578.655C1081.41 577.271 1084.07 571.769 1077.29 570.302C1070.51 568.835 1066.03 572.291 1065.26 574.08C1064.49 575.869 1067.44 583.423 1065.9 585.341C1064.37 587.258 1059.41 587.265 1058.22 584.195C1057.54 582.407 1063.72 573.443 1057.45 571.017C1051.18 568.591 1043.63 572.941 1038.38 577.168C1033.13 581.396 1024.3 583.449 1017 579.479C1009.7 575.515 1003.82 579.485 1001.65 582.046C999.471 584.607 1002.29 591.898 1001.65 594.369C1001.02 596.834 989.494 598.172 993.201 589.215C996.909 580.257 991.47 577.76 991.47 577.76C983.295 574.723 973.82 584.73 973.64 584.923C974.393 582.934 975.314 581.023 976.376 579.202L976.382 579.195C983.109 567.657 995.634 559.852 1009.89 559.852L1207.66 559.762C1219.85 559.749 1230.87 565.038 1238.52 573.43Z" fill="#543419"/>
<path d="M1284.22 645.907L936.398 646.062C935.902 646.062 935.497 645.656 935.497 645.167V644.002C935.49 635.695 942.287 628.893 950.603 628.887L1268.83 628.745C1277.79 628.739 1285.11 636.062 1285.12 645.006C1285.11 645.508 1284.71 645.907 1284.22 645.907Z" fill="#543419"/>
<path d="M1000.38 564.382C1000.38 563.147 1001.38 562.149 1002.61 562.149C1003.85 562.149 1004.85 563.147 1004.85 564.382C1004.85 565.618 1003.85 566.615 1002.61 566.615C1001.38 566.615 1000.38 565.618 1000.38 564.382Z" fill="#ED7D2B"/>
<path d="M1002.41 563.391C1002.41 563.005 1002.72 562.69 1003.11 562.69C1003.49 562.69 1003.81 563.005 1003.81 563.391C1003.81 563.777 1003.49 564.093 1003.11 564.093C1002.71 564.093 1002.41 563.777 1002.41 563.391Z" fill="#FFB37B"/>
<path d="M1015.85 563.031C1015.85 562.233 1016.49 561.589 1017.29 561.589C1018.09 561.589 1018.73 562.233 1018.73 563.031C1018.73 563.829 1018.09 564.472 1017.29 564.472C1016.5 564.472 1015.85 563.829 1015.85 563.031Z" fill="#ED7D2B"/>
<path d="M1017.16 562.394C1017.16 562.143 1017.36 561.943 1017.61 561.943C1017.86 561.943 1018.06 562.143 1018.06 562.394C1018.06 562.645 1017.86 562.844 1017.61 562.844C1017.36 562.844 1017.16 562.638 1017.16 562.394Z" fill="#FFB37B"/>
<path d="M1009.66 558.552C1009.66 557.432 1008.75 556.525 1007.63 556.525C1006.51 556.525 1005.6 557.432 1005.6 558.552C1005.6 559.672 1006.51 560.579 1007.63 560.579C1008.75 560.579 1009.66 559.672 1009.66 558.552Z" fill="#ED7D2B"/>
<path d="M1007.82 557.651C1007.82 557.297 1007.54 557.014 1007.18 557.014C1006.83 557.014 1006.54 557.297 1006.54 557.651C1006.54 558.005 1006.83 558.288 1007.18 558.288C1007.54 558.288 1007.82 558.005 1007.82 557.651Z" fill="#FFB37B"/>
<path d="M953.481 599.871C953.481 599.871 982.555 610.457 968.504 631.776C968.504 631.782 947.063 623.533 953.481 599.871Z" fill="#543419"/>
<path d="M985.117 614.376L985.767 614.363C984.686 609.852 981.783 605.965 979.182 603.707C976.91 601.731 974.902 600.618 974.181 600.245C974.007 600.154 973.795 600.154 973.621 600.251L972.939 600.611C972.604 600.791 972.597 601.268 972.932 601.448C975.507 602.831 983.482 607.568 985.117 614.376Z" fill="#543419"/>
<path d="M995.724 619.389C995.576 611.416 990.942 611.506 985.226 611.609C979.511 611.712 974.876 611.802 975.024 619.775C975.134 625.489 979.852 630.032 985.561 629.929C991.29 629.82 995.834 625.103 995.724 619.389Z" fill="#ED7D2B"/>
<path d="M991.27 618.102C992.146 621.712 991.309 625.335 989.275 628.108C992.01 626.203 993.781 623.005 993.71 619.421C993.6 613.617 991.116 612.085 987.563 611.725C989.172 612.735 990.44 614.685 991.27 618.102Z" fill="#F99746"/>
<path d="M987.453 620.077C987.453 620.077 983.109 638.681 968.993 631.641C968.993 631.647 972.469 617.889 987.453 620.077Z" fill="#543419"/>
<path d="M1048.34 599.826C1048.34 599.826 1077.41 610.412 1063.36 631.731C1063.36 631.737 1041.92 623.488 1048.34 599.826Z" fill="#543419"/>
<path d="M1083.55 620.038C1083.55 620.038 1079.2 638.642 1065.09 631.602C1065.09 631.602 1068.56 617.844 1083.55 620.038Z" fill="#543419"/>
<path d="M963.058 631.564C963.058 630.328 964.056 629.331 965.292 629.331C966.528 629.331 967.525 630.328 967.525 631.564C967.525 632.799 966.528 633.796 965.292 633.796C964.056 633.796 963.058 632.799 963.058 631.564Z" fill="#ED7D2B"/>
<path d="M965.086 630.572C965.086 630.186 965.401 629.871 965.788 629.871C966.174 629.871 966.489 630.186 966.489 630.572C966.489 630.959 966.174 631.274 965.788 631.274C965.401 631.274 965.086 630.959 965.086 630.572Z" fill="#FFB37B"/>
<path d="M978.526 630.212C978.526 629.414 979.169 628.771 979.968 628.771C980.766 628.771 981.409 629.414 981.409 630.212C981.409 631.01 980.766 631.653 979.968 631.653C979.176 631.653 978.532 631.01 978.526 630.212Z" fill="#ED7D2B"/>
<path d="M979.839 629.575C979.839 629.324 980.038 629.125 980.289 629.125C980.54 629.125 980.74 629.324 980.74 629.575C980.74 629.826 980.54 630.025 980.289 630.025C980.038 630.025 979.839 629.826 979.839 629.575Z" fill="#FFB37B"/>
<path d="M972.34 625.734C972.34 624.614 971.432 623.707 970.312 623.707C969.192 623.707 968.285 624.614 968.285 625.734C968.285 626.853 969.192 627.761 970.312 627.761C971.432 627.761 972.34 626.853 972.34 625.734Z" fill="#ED7D2B"/>
<path d="M970.499 624.839C970.499 624.485 970.216 624.202 969.862 624.202C969.508 624.202 969.225 624.485 969.225 624.839C969.225 625.193 969.508 625.476 969.862 625.476C970.216 625.476 970.499 625.187 970.499 624.839Z" fill="#FFB37B"/>
<path d="M1055.96 628.848C1055.96 627.613 1056.96 626.615 1058.19 626.615C1059.43 626.615 1060.43 627.613 1060.43 628.848C1060.43 630.084 1059.43 631.081 1058.19 631.081C1056.96 631.081 1055.96 630.077 1055.96 628.848Z" fill="#ED7D2B"/>
<path d="M1057.99 627.851C1057.99 627.465 1058.3 627.149 1058.69 627.149C1059.07 627.149 1059.39 627.465 1059.39 627.851C1059.39 628.237 1059.07 628.552 1058.69 628.552C1058.3 628.552 1057.99 628.237 1057.99 627.851Z" fill="#FFB37B"/>
<path d="M1072.1 632.715C1072.1 631.596 1071.19 630.688 1070.07 630.688C1068.95 630.688 1068.04 631.596 1068.04 632.715C1068.04 633.835 1068.95 634.743 1070.07 634.743C1071.19 634.736 1072.1 633.829 1072.1 632.715Z" fill="#ED7D2B"/>
<path d="M1070.25 631.815C1070.25 631.461 1069.97 631.178 1069.62 631.178C1069.26 631.178 1068.98 631.461 1068.98 631.815C1068.98 632.169 1069.26 632.452 1069.62 632.452C1069.97 632.452 1070.25 632.162 1070.25 631.815Z" fill="#FFB37B"/>
<path d="M1151.1 628.661C1151.1 627.587 1151.97 626.711 1153.05 626.711C1154.12 626.711 1155 627.58 1155 628.661C1155 629.736 1154.12 630.611 1153.05 630.611C1151.97 630.611 1151.1 629.736 1151.1 628.661Z" fill="#ED7D2B"/>
<path d="M1152.87 627.792C1152.87 627.451 1153.14 627.181 1153.48 627.181C1153.82 627.181 1154.09 627.458 1154.09 627.792C1154.09 628.134 1153.82 628.404 1153.48 628.404C1153.14 628.404 1152.87 628.134 1152.87 627.792Z" fill="#FFB37B"/>
<path d="M1176.19 628.79C1176.19 628.037 1175.58 627.426 1174.82 627.432C1174.07 627.432 1173.46 628.044 1173.47 628.796C1173.47 629.549 1174.08 630.154 1174.83 630.154C1175.58 630.154 1176.19 629.543 1176.19 628.79Z" fill="#ED7D2B"/>
<path d="M1174.95 628.185C1174.95 627.947 1174.76 627.76 1174.53 627.76C1174.29 627.76 1174.1 627.953 1174.1 628.185C1174.1 628.423 1174.3 628.61 1174.53 628.61C1174.77 628.616 1174.95 628.423 1174.95 628.185Z" fill="#FFB37B"/>
<path d="M1158.92 631.525C1158.92 630.772 1158.31 630.167 1157.56 630.167C1156.8 630.167 1156.19 630.778 1156.2 631.531C1156.2 632.284 1156.81 632.889 1157.56 632.889C1158.31 632.889 1158.92 632.271 1158.92 631.525Z" fill="#ED7D2B"/>
<path d="M1157.68 630.92C1157.68 630.682 1157.49 630.495 1157.26 630.495C1157.02 630.495 1156.83 630.688 1156.83 630.92C1156.83 631.152 1157.03 631.345 1157.26 631.345C1157.49 631.345 1157.68 631.152 1157.68 630.92Z" fill="#FFB37B"/>
<path d="M1039.69 495.322C1039.69 494.543 1040.32 493.913 1041.1 493.906C1041.88 493.906 1042.51 494.537 1042.51 495.316C1042.51 496.094 1041.88 496.731 1041.1 496.731C1040.32 496.731 1039.69 496.101 1039.69 495.322Z" fill="#ED7D2B"/>
<path d="M1040.97 494.698C1040.97 494.453 1041.17 494.254 1041.41 494.254C1041.66 494.254 1041.86 494.453 1041.86 494.698C1041.86 494.942 1041.66 495.142 1041.41 495.142C1041.17 495.136 1040.97 494.942 1040.97 494.698Z" fill="#FFB37B"/>
<path d="M1057.5 493.913C1057.85 493.14 1058.77 492.812 1059.54 493.166C1060.31 493.526 1060.64 494.434 1060.28 495.206C1059.93 495.978 1059.02 496.313 1058.24 495.952C1057.47 495.599 1057.14 494.685 1057.5 493.913Z" fill="#599DAD"/>
<path d="M1058.75 493.881C1058.75 493.617 1058.96 493.398 1059.23 493.398C1059.49 493.398 1059.71 493.61 1059.71 493.881C1059.71 494.151 1059.49 494.363 1059.23 494.363C1058.96 494.363 1058.75 494.144 1058.75 493.881Z" fill="#89CFDB"/>
<path d="M1033.35 494.382C1033.73 493.552 1034.72 493.192 1035.55 493.578C1036.38 493.964 1036.74 494.948 1036.35 495.779C1035.97 496.609 1034.98 496.969 1034.15 496.583C1033.33 496.197 1032.97 495.212 1033.35 494.382Z" fill="#599DAD"/>
<path d="M1034.7 494.343C1034.7 494.054 1034.93 493.822 1035.22 493.822C1035.51 493.822 1035.74 494.054 1035.74 494.343C1035.74 494.633 1035.51 494.865 1035.22 494.865C1034.93 494.865 1034.7 494.633 1034.7 494.343Z" fill="#89CFDB"/>
<path d="M1049.83 491.95C1049.83 490.869 1048.96 489.994 1047.87 489.994C1046.79 489.994 1045.92 490.869 1045.92 491.95C1045.92 493.031 1046.79 493.906 1047.87 493.906C1048.96 493.906 1049.83 493.031 1049.83 491.95Z" fill="#ED7D2B"/>
<path d="M1048.05 491.081C1048.05 490.74 1047.78 490.47 1047.44 490.47C1047.1 490.47 1046.83 490.746 1046.83 491.081C1046.83 491.422 1047.11 491.692 1047.44 491.692C1047.78 491.692 1048.05 491.422 1048.05 491.081Z" fill="#FFB37B"/>
<path d="M1158.53 490.515C1158.53 489.601 1159.27 488.867 1160.17 488.861C1161.09 488.861 1161.83 489.601 1161.83 490.508C1161.83 491.422 1161.09 492.156 1160.18 492.162C1159.27 492.168 1158.53 491.428 1158.53 490.515Z" fill="#ED7D2B"/>
<path d="M1160.02 489.781C1160.02 489.491 1160.25 489.26 1160.54 489.26C1160.82 489.26 1161.06 489.491 1161.06 489.775C1161.06 490.058 1160.83 490.289 1160.54 490.296C1160.25 490.302 1160.02 490.071 1160.02 489.781Z" fill="#FFB37B"/>
<path d="M1140.24 489.961C1140.24 489.035 1140.99 488.282 1141.92 488.282C1142.85 488.282 1143.6 489.035 1143.61 489.961C1143.61 490.888 1142.85 491.641 1141.93 491.647C1140.99 491.641 1140.24 490.888 1140.24 489.961Z" fill="#ED7D2B"/>
<path d="M1141.77 489.215C1141.77 488.925 1142 488.687 1142.29 488.687C1142.58 488.687 1142.82 488.925 1142.82 489.215C1142.82 489.504 1142.58 489.742 1142.29 489.742C1142 489.742 1141.77 489.504 1141.77 489.215Z" fill="#FFB37B"/>
<path d="M1163.86 494.06C1164.22 493.282 1165.14 492.947 1165.92 493.307C1166.7 493.668 1167.04 494.588 1166.68 495.367C1166.32 496.145 1165.39 496.48 1164.62 496.12C1163.84 495.753 1163.5 494.833 1163.86 494.06Z" fill="#599DAD"/>
<path d="M1165.12 494.022C1165.12 493.752 1165.34 493.533 1165.61 493.533C1165.88 493.533 1166.1 493.752 1166.1 494.015C1166.1 494.279 1165.88 494.504 1165.61 494.504C1165.34 494.511 1165.12 494.292 1165.12 494.022Z" fill="#89CFDB"/>
<path d="M1086.28 436.223C1086.28 435.225 1087.09 434.415 1088.09 434.415C1089.09 434.415 1089.9 435.225 1089.9 436.223C1089.9 437.22 1089.09 438.031 1088.09 438.031C1087.1 438.031 1086.29 437.22 1086.28 436.223Z" fill="#ED7D2B"/>
<path d="M1087.92 435.418C1087.92 435.103 1088.17 434.852 1088.49 434.852C1088.81 434.852 1089.06 435.103 1089.06 435.418C1089.06 435.734 1088.81 435.985 1088.49 435.985C1088.18 435.985 1087.92 435.734 1087.92 435.418Z" fill="#FFB37B"/>
<path d="M1092.96 439.479C1093.2 438.971 1093.8 438.752 1094.31 438.99C1094.82 439.228 1095.04 439.826 1094.8 440.335C1094.56 440.843 1093.96 441.062 1093.45 440.824C1092.95 440.586 1092.73 439.987 1092.96 439.479Z" fill="#599DAD"/>
<path d="M1093.79 439.453C1093.79 439.279 1093.93 439.138 1094.1 439.138C1094.28 439.138 1094.42 439.279 1094.42 439.453C1094.42 439.627 1094.28 439.768 1094.1 439.768C1093.94 439.768 1093.79 439.627 1093.79 439.453Z" fill="#89CFDB"/>
<path d="M1135.39 437.381C1135.39 436.499 1136.11 435.792 1136.98 435.792C1137.87 435.792 1138.57 436.506 1138.57 437.381C1138.57 438.263 1137.86 438.97 1136.98 438.97C1136.11 438.97 1135.39 438.263 1135.39 437.381Z" fill="#ED7D2B"/>
<path d="M1136.84 436.673C1136.84 436.397 1137.06 436.171 1137.34 436.171C1137.61 436.171 1137.84 436.397 1137.84 436.673C1137.84 436.95 1137.61 437.175 1137.34 437.175C1137.06 437.175 1136.84 436.95 1136.84 436.673Z" fill="#FFB37B"/>
<path d="M1111.33 436.609C1111.66 435.894 1112.51 435.586 1113.23 435.914C1113.94 436.242 1114.25 437.091 1113.92 437.806C1113.59 438.52 1112.74 438.829 1112.03 438.501C1111.31 438.166 1111 437.323 1111.33 436.609Z" fill="#599DAD"/>
<path d="M1112.49 436.576C1112.49 436.332 1112.69 436.126 1112.94 436.126C1113.18 436.126 1113.39 436.325 1113.39 436.57C1113.39 436.815 1113.19 437.02 1112.94 437.02C1112.7 437.02 1112.49 436.821 1112.49 436.576Z" fill="#89CFDB"/>
<path d="M1177.48 489.775C1177.48 488.591 1176.52 487.638 1175.34 487.638C1174.16 487.638 1173.2 488.597 1173.2 489.781C1173.2 490.965 1174.16 491.917 1175.35 491.917C1176.52 491.917 1177.48 490.959 1177.48 489.775Z" fill="#ED7D2B"/>
<path d="M1175.54 488.828C1175.54 488.455 1175.24 488.159 1174.87 488.159C1174.5 488.159 1174.2 488.462 1174.2 488.828C1174.2 489.202 1174.5 489.498 1174.87 489.498C1175.24 489.498 1175.54 489.195 1175.54 488.828Z" fill="#FFB37B"/>
<path d="M1190.22 529.105C1190.22 529.105 1161.15 539.717 1175.22 561.023C1175.22 561.023 1196.66 552.761 1190.22 529.105Z" fill="#543419"/>
<path d="M1155.03 549.344C1155.03 549.344 1159.4 567.947 1173.51 560.894C1173.51 560.894 1170.01 547.143 1155.03 549.344Z" fill="#543419"/>
<path d="M1158.55 558.977C1158.55 558.063 1159.29 557.323 1160.2 557.323C1161.11 557.323 1161.85 558.063 1161.85 558.97C1161.85 559.884 1161.11 560.624 1160.21 560.624C1159.29 560.624 1158.55 559.884 1158.55 558.977Z" fill="#ED7D2B"/>
<path d="M1160.05 558.243C1160.05 557.96 1160.28 557.722 1160.57 557.722C1160.85 557.722 1161.08 557.953 1161.08 558.236C1161.08 558.52 1160.85 558.751 1160.57 558.758C1160.28 558.758 1160.05 558.526 1160.05 558.243Z" fill="#FFB37B"/>
<path d="M1163.9 562.516C1164.26 561.737 1165.18 561.403 1165.95 561.763C1166.73 562.123 1167.07 563.044 1166.71 563.822C1166.35 564.601 1165.43 564.935 1164.65 564.575C1163.87 564.208 1163.53 563.288 1163.9 562.516Z" fill="#599DAD"/>
<path d="M1165.16 562.477C1165.16 562.207 1165.38 561.988 1165.65 561.988C1165.92 561.988 1166.13 562.207 1166.14 562.477C1166.14 562.748 1165.92 562.966 1165.65 562.966C1165.37 562.966 1165.16 562.748 1165.16 562.477Z" fill="#89CFDB"/>
<path d="M1177.52 558.23C1177.52 557.046 1176.56 556.094 1175.37 556.094C1174.19 556.094 1173.23 557.053 1173.23 558.237C1173.23 559.421 1174.19 560.373 1175.38 560.373C1176.56 560.373 1177.52 559.414 1177.52 558.23Z" fill="#ED7D2B"/>
<path d="M1175.57 557.284C1175.57 556.911 1175.27 556.615 1174.9 556.615C1174.53 556.615 1174.23 556.917 1174.23 557.284C1174.23 557.657 1174.54 557.953 1174.9 557.953C1175.27 557.953 1175.57 557.651 1175.57 557.284Z" fill="#FFB37B"/>
<path d="M1163.77 613.288L1164.4 613.134C1162.34 608.977 1158.65 605.83 1155.61 604.208C1152.95 602.786 1150.75 602.149 1149.97 601.943C1149.77 601.892 1149.57 601.943 1149.42 602.072L1148.83 602.574C1148.54 602.825 1148.65 603.294 1149.01 603.391C1151.83 604.157 1160.66 607.007 1163.77 613.288Z" fill="#ED7D2B"/>
<path d="M1174.52 615.824C1172.61 608.082 1168.11 609.196 1162.56 610.566C1157.01 611.937 1152.52 613.05 1154.43 620.791C1155.8 626.338 1161.41 629.723 1166.96 628.353C1172.5 626.975 1175.89 621.371 1174.52 615.824Z" fill="#543419"/>
<path d="M1169.71 615.984C1171.37 619.305 1171.36 623.024 1169.98 626.184C1172.23 623.719 1173.24 620.212 1172.38 616.731C1170.99 611.094 1168.22 610.148 1164.68 610.585C1166.48 611.216 1168.14 612.831 1169.71 615.984Z" fill="#935C37"/>
<path d="M1198.65 550.412L1198.17 550.296C1199.74 547.123 1202.55 544.723 1204.86 543.481C1206.89 542.394 1208.57 541.905 1209.17 541.75C1209.32 541.712 1209.47 541.75 1209.59 541.847L1210.03 542.226C1210.25 542.413 1210.17 542.773 1209.89 542.851C1207.75 543.443 1201.02 545.624 1198.65 550.412Z" fill="#ED7D2B"/>
<path d="M1190.46 552.355C1191.91 546.448 1195.34 547.297 1199.58 548.333C1203.82 549.369 1207.25 550.219 1205.79 556.126C1204.75 560.36 1200.47 562.947 1196.24 561.905C1192 560.862 1189.42 556.583 1190.46 552.355Z" fill="#543419"/>
<path d="M1194.12 552.477C1192.86 555.013 1192.87 557.851 1193.92 560.257C1192.21 558.378 1191.43 555.701 1192.09 553.05C1193.15 548.751 1195.25 548.024 1197.96 548.359C1196.59 548.835 1195.32 550.071 1194.12 552.477Z" fill="#935C37"/>
<path d="M669.965 1051.99C669.965 1051.99 669.205 1060.36 675.397 1066.47C679.298 1070.31 681.68 1075.12 682.001 1079.94C682.272 1084.01 677.824 1086.69 674.367 1084.51L637.923 1061.46C634.821 1059.5 634.093 1055.29 636.352 1052.39C638.329 1049.86 640.607 1046.9 642.255 1044.57C645.853 1039.48 653.809 1038.58 653.809 1038.58L669.965 1051.99Z" fill="#C65447"/>
<path d="M761.365 1021.77C761.365 1021.77 757.587 1029.28 761.108 1037.23C763.322 1042.24 763.779 1047.58 762.312 1052.19C761.069 1056.08 755.946 1056.94 753.532 1053.64L728.081 1018.82C725.912 1015.86 726.781 1011.67 729.948 1009.82C732.716 1008.19 735.921 1006.27 738.309 1004.7C743.523 1001.29 751.253 1003.36 751.253 1003.36L761.365 1021.77Z" fill="#C65447"/>
<path d="M824.368 946.274C818.954 966.364 764.082 1031.27 764.082 1031.27C764.082 1031.27 738.573 1014.27 738.573 1001.13C738.573 1001.13 766.405 943.172 766.405 936.222C766.405 934.575 762.646 927.947 756.943 918.706C747.115 902.76 731.512 879.009 719.456 859.446C709.113 842.638 701.376 828.932 702.193 825.933C704.51 817.439 783.121 802.567 783.121 802.567C783.121 802.567 829.768 926.184 824.368 946.274Z" fill="#35488B"/>
<path d="M756.937 918.713C747.108 902.767 731.506 879.015 719.45 859.453C720.924 834.942 727.85 813.507 740.987 813.507C773.82 813.507 768.845 815.991 768.845 815.991C768.845 815.991 777.335 888.494 756.937 918.713Z" fill="#2C3A64"/>
<path d="M742.667 818.475C742.667 818.475 749.844 953.256 738.548 970.167C727.251 987.078 677.579 1058.69 677.579 1058.69C677.579 1058.69 638.715 1048.74 640.768 1036.81C640.768 1036.81 682.581 956.151 682.529 945.212C682.478 934.272 662.653 835.386 683.546 818.475C704.44 801.563 742.667 818.475 742.667 818.475Z" fill="#35488B"/>
<path d="M758.231 655.18C758.231 655.18 807.201 611.499 810.194 605.502C813.187 599.498 827.077 545.85 827.077 545.85L838.747 547.278C838.747 547.278 836.52 611.609 831.602 624.144C826.685 636.68 768.999 689.968 768.999 689.968L758.231 655.18Z" fill="#FFB27D"/>
<path d="M764.236 644.55C764.236 644.55 752.727 635.013 700.655 642.227L737.196 661.236L753.455 657.355L757.478 648.726L764.236 644.55Z" fill="#A05F32"/>
<path d="M755.605 646.132L718.819 664.929L711.449 639.414C711.449 639.414 716.135 630.585 718.253 616.12C719.141 610.038 719.579 602.96 719.012 595.116L748.981 610.457C748.981 610.457 748.267 613.23 747.791 617.316C747.282 621.737 747.05 627.69 748.305 633.346C749.4 638.211 751.569 642.851 755.605 646.132Z" fill="#FFB27D"/>
<path d="M779.311 828.359C738.393 839.466 686.205 833.237 673.344 831.435C671.42 831.171 670.383 830.997 670.383 830.997C665.858 829.91 662.781 825.862 662.781 821.364C662.781 820.785 662.839 820.193 662.942 819.607L675.069 752.278L670.995 718.475L668.678 699.202L663.387 655.193C680.907 646.287 696.838 641.519 711.443 639.427C717.03 645.154 728.069 653.578 740.421 651.969C749.702 650.753 751.807 645.927 751.646 640.643C771.053 643.835 781.19 649.344 781.19 649.344L793.806 807.58C794.572 817.078 788.509 825.862 779.311 828.359Z" fill="#C65447"/>
<path d="M689.906 780.605C689.095 804.086 686.79 823.996 673.344 831.441C671.42 831.178 670.383 831.004 670.383 831.004C665.858 829.916 662.781 825.869 662.781 821.371C662.781 820.791 662.839 820.199 662.942 819.614L675.069 752.284L670.995 718.481C671.188 717.889 671.297 717.581 671.297 717.581C671.297 717.581 690.935 750.521 689.906 780.605Z" fill="#B2443B"/>
<path d="M748.312 633.353C731.268 632.896 718.253 616.12 718.253 616.12L747.791 617.323C747.288 621.744 747.057 627.696 748.312 633.353Z" fill="#EA9C68"/>
<path d="M689.944 651.319C689.944 651.319 655.997 607.375 639.474 593.732C639.474 593.732 616.875 538.025 615.041 534.357C613.206 530.689 601.472 537.42 601.472 537.42C601.472 537.42 609.776 591.57 618.523 607.626C627.277 623.681 654.42 677.555 673.576 679.556C692.738 681.551 689.944 651.319 689.944 651.319Z" fill="#FFB27D"/>
<path d="M756.583 623.861C756.583 623.861 722.591 632.831 710.863 605.811C698.209 576.647 712.093 555.393 723.634 553.964C746.651 551.107 760.027 559.884 764.069 569.157C768.118 578.43 775.339 619.08 756.583 623.861Z" fill="#FFB27D"/>
<path d="M743.105 608.649C743.105 608.649 744.527 612.156 753.493 610.187C753.493 610.187 761.024 608.539 760.168 604.575C760.168 604.575 752.354 602.87 743.105 608.649Z" fill="white"/>
<path d="M716.933 615.264C716.933 615.264 712.942 603.565 713.419 597.323C713.419 597.323 704.549 586.017 709.718 583.218C714.886 580.418 717.68 587.111 718.864 585.798C720.049 584.485 721.896 562.265 728.172 562.967C734.447 563.668 757.671 570.862 767.854 562.085C778.036 553.308 753.333 519.016 711.475 532.259C669.617 545.502 678.165 592.034 716.933 615.264Z" fill="#2C3A64"/>
<path d="M690.826 550.502C690.826 550.502 688.927 544.846 690.968 540.811C690.968 540.811 691.064 546.377 693.253 548.848C695.435 551.326 690.826 550.502 690.826 550.502Z" fill="#2C3A64"/>
<path d="M691.695 546.551C691.695 546.551 686.52 545.965 684.074 549.942C684.074 549.942 687.717 547.477 691.405 550.09L691.695 546.551Z" fill="#2C3A64"/>
<path d="M642.422 661.229C642.422 661.229 666.302 679.395 668.027 693.751C668.027 693.751 705.058 666.171 711.449 639.414C711.449 639.414 703.97 638.764 694.585 641.821C694.585 641.821 690.041 639.498 685.2 639.356L667.043 623.037C667.049 623.044 645.782 629.183 642.422 661.229Z" fill="#C65447"/>
<path d="M751.653 640.631C751.653 640.631 761.9 639.64 765.575 640.631C765.575 640.631 767.41 639.067 771.696 638.816L793.877 623.044C793.877 623.044 808.675 639.781 804.8 663.031C804.8 663.031 786.378 675.47 786.179 678.533C785.973 681.59 785.155 698.958 785.155 698.958L751.653 640.631Z" fill="#C65447"/>
<path d="M827.077 545.856C827.077 545.856 827.309 540.798 825.674 536.544C824.039 532.291 825.005 521.242 827.09 521.86C829.176 522.484 828.243 526.454 830.579 525.985C832.916 525.515 836.649 512.677 839.687 513.842C842.725 515.007 844.933 519.331 843.993 528.668C843.06 538.005 838.747 547.278 838.747 547.278L827.077 545.856Z" fill="#FFB27D"/>
<path d="M614.783 534.266C614.783 534.266 613.554 528.707 614.545 523.674C615.536 518.642 612.344 506.583 610.149 507.677C607.954 508.765 609.756 512.986 607.079 512.922C604.401 512.851 597.784 499.344 594.649 501.223C591.508 503.102 589.893 508.314 592.725 518.481C595.557 528.649 602.122 538.095 602.122 538.095L614.783 534.266Z" fill="#FFB27D"/>
<path d="M684.66 627.767C684.66 627.767 710.76 635.116 712.176 646.557C713.592 657.999 689.172 651.641 685.207 639.357L682.188 636.647L684.66 627.767Z" fill="#FFB27D"/>
<path d="M749.142 636.351C749.142 636.351 766.759 632.182 771.304 642.394C775.841 652.613 751.015 650.354 749.142 636.351Z" fill="#EA9C68"/>
<path d="M1147.42 628.121C1147.42 628.121 1131.18 627.278 1127.59 628.121C1124 628.964 1112.18 636.351 1112.18 637.406C1112.18 638.462 1112.92 639.202 1115.13 638.989C1117.35 638.777 1124.42 636.666 1124.1 637.619C1123.79 638.571 1103.66 646.062 1104.12 650.289C1104.57 654.511 1117.24 660.424 1126.96 659.363C1136.67 658.307 1154 644.543 1155.37 643.616C1156.74 642.69 1147.42 628.121 1147.42 628.121Z" fill="#FFB27D"/>
<path d="M1147.55 636.467C1142.4 628.14 1146.12 624.344 1146.12 624.344C1146.12 624.344 1225.6 562.123 1231.83 555.843C1238.06 549.556 1266.92 449.472 1266.92 449.472C1266.92 449.472 1276.85 408.971 1300.11 404.498C1320.33 400.618 1334.3 410.618 1343.44 422.336C1354.33 436.306 1355.4 455.566 1346.36 470.798C1326.07 504.987 1285.13 572.851 1273.18 584.44C1250.14 606.782 1180.32 636.815 1161.99 644.472C1158.95 645.746 1155.46 645.129 1153.01 642.921C1151.23 641.332 1149.23 639.176 1147.55 636.467Z" fill="#2B478B"/>
<path d="M687.884 565.959L662.781 499.775L726.942 532.87C726.942 532.864 718.941 565.747 687.884 565.959Z" fill="#A8D29F"/>
<path d="M691.933 560.206L662.788 499.769L687.891 565.953C718.941 565.74 726.942 532.857 726.942 532.857C717.866 555.74 691.933 560.206 691.933 560.206Z" fill="#82B378"/>
<path d="M693.703 551.931C694.944 551.931 695.95 550.925 695.95 549.685C695.95 548.444 694.944 547.439 693.703 547.439C692.463 547.439 691.457 548.444 691.457 549.685C691.457 550.925 692.463 551.931 693.703 551.931Z" fill="#599DAD"/>
<path d="M714.069 534.91C714.069 535.457 713.625 535.901 713.078 535.901C712.53 535.901 712.086 535.457 712.086 534.91C712.086 534.363 712.53 533.919 713.078 533.919C713.625 533.919 714.069 534.363 714.069 534.91Z" fill="#599DAD"/>
<path d="M709.73 546.583C709.73 547.06 709.344 547.439 708.874 547.439C708.404 547.439 708.018 547.053 708.018 546.583C708.018 546.107 708.404 545.728 708.874 545.728C709.344 545.728 709.73 546.107 709.73 546.583Z" fill="#599DAD"/>
<path d="M695.055 533.263C696.47 533.263 697.617 532.116 697.617 530.702C697.617 529.287 696.47 528.141 695.055 528.141C693.64 528.141 692.493 529.287 692.493 530.702C692.493 532.116 693.64 533.263 695.055 533.263Z" fill="#599DAD"/>
<path d="M681.905 520.534C681.905 521.5 681.119 522.285 680.154 522.285C679.188 522.285 678.403 521.5 678.403 520.534C678.403 519.569 679.188 518.784 680.154 518.784C681.119 518.784 681.905 519.569 681.905 520.534Z" fill="#599DAD"/>
<path d="M692.969 519.093C692.969 519.891 692.326 520.534 691.528 520.534C690.729 520.534 690.086 519.891 690.086 519.093C690.086 518.295 690.729 517.651 691.528 517.651C692.326 517.651 692.969 518.295 692.969 519.093Z" fill="#599DAD"/>
<path d="M673.859 508.758C673.859 509.44 673.305 509.987 672.63 509.987C671.947 509.987 671.4 509.434 671.4 508.758C671.4 508.083 671.954 507.529 672.63 507.529C673.312 507.529 673.859 508.076 673.859 508.758Z" fill="#599DAD"/>
<path d="M683.392 536.744C683.392 537.754 682.574 538.578 681.557 538.578C680.547 538.578 679.723 537.761 679.723 536.744C679.723 535.734 680.54 534.91 681.557 534.91C682.574 534.91 683.392 535.727 683.392 536.744Z" fill="#599DAD"/>
<path d="M710.471 526.918C710.471 527.6 709.917 528.147 709.241 528.147C708.565 528.147 708.012 527.593 708.012 526.918C708.012 526.235 708.565 525.688 709.241 525.688C709.917 525.688 710.471 526.235 710.471 526.918Z" fill="#599DAD"/>
<path d="M702.618 560.116C702.618 560.74 702.109 561.249 701.485 561.249C700.861 561.249 700.352 560.74 700.352 560.116C700.352 559.492 700.861 558.983 701.485 558.983C702.116 558.977 702.618 559.485 702.618 560.116Z" fill="#599DAD"/>
<path d="M672.173 516.905C672.173 517.317 671.838 517.645 671.432 517.645C671.027 517.645 670.692 517.31 670.692 516.905C670.692 516.493 671.027 516.165 671.432 516.165C671.838 516.165 672.173 516.493 672.173 516.905Z" fill="#599DAD"/>
<path d="M723.968 539.691C723.968 540.309 723.466 540.811 722.848 540.811C722.231 540.811 721.728 540.309 721.728 539.691C721.728 539.074 722.231 538.572 722.848 538.572C723.466 538.572 723.968 539.074 723.968 539.691Z" fill="#599DAD"/>
<path d="M690.086 559.479C690.086 559.961 689.693 560.354 689.21 560.354C688.728 560.354 688.335 559.961 688.335 559.479C688.335 558.996 688.728 558.604 689.21 558.604C689.693 558.604 690.086 558.99 690.086 559.479Z" fill="#599DAD"/>
<path d="M703.686 538.012C703.686 538.713 703.12 539.286 702.412 539.286C701.71 539.286 701.138 538.713 701.138 538.012C701.138 537.31 701.704 536.738 702.412 536.738C703.114 536.744 703.686 537.31 703.686 538.012Z" fill="#599DAD"/>
<path d="M933.16 915.534C933.16 915.534 962.28 937.181 967.963 935.869C973.64 934.556 946.677 912.497 946.677 912.497C956.821 907.619 988.361 910.676 988.361 910.676C988.361 910.676 998.866 944.543 1004.05 941.872C1009.23 939.202 993.214 912.362 993.214 912.362C1004.52 911.679 1018.38 920.071 1018.38 920.071C1037.35 935.051 1017.13 958.636 1017.13 958.636C1017.13 958.636 1021.02 970.296 1033 980.914C1033 980.914 1050.11 993.565 1051.3 1016.17L1048.19 1016.45C1048.19 1016.45 1043.27 995.392 1034.32 985.431C1033.97 985.071 1033.47 984.556 1032.84 983.932C1031.38 982.58 1030.36 981.564 1029.67 980.811C1025.22 976.531 1019.06 971.087 1016.1 970.56C1016.1 970.56 1016.25 970.013 1016.23 969.067C1016.19 969.543 1016.15 970.032 1016.1 970.56C1015.09 982.477 991.959 992.889 977.728 995.032C963.496 997.175 967.899 991.325 972.797 982.651C977.695 973.977 993.214 970.103 996.754 966.107C1000.29 962.111 992.976 962.104 984.402 966.017C975.829 969.929 974.657 980.367 960.902 986.956C947.147 993.539 926.453 970.727 926.453 970.727C937.415 970.174 953.069 958.269 952.502 954.627C951.936 950.984 925.932 960.907 921.484 961.383C917.036 961.86 906.924 956.332 905.36 938.43C903.796 920.528 933.16 915.534 933.16 915.534Z" fill="#599DAD"/>
<path d="M1087.82 928.976C1087.82 928.976 1055.66 910.971 1070.67 886.531C1070.67 886.531 1082.68 871.525 1095.54 867.664C1095.54 867.664 1088.68 904.105 1095.54 904.968C1102.4 905.823 1100.26 863.809 1100.26 863.809C1100.26 863.809 1134.14 847.516 1147.43 848.803C1147.43 848.803 1126.41 884.388 1133.28 883.533C1140.14 882.677 1163.73 846.66 1163.73 846.66C1163.73 846.66 1198.47 840.231 1204.04 860.811C1209.61 881.39 1200.61 891.679 1195.46 892.966C1190.31 894.253 1157.29 893.822 1158.15 898.114C1159 902.406 1181.31 909.26 1193.74 905.405C1193.74 905.405 1180.02 939.279 1162 937.561C1143.99 935.843 1138.41 924.697 1127.26 923.841C1116.12 922.986 1107.97 925.984 1113.54 928.989C1119.12 931.988 1137.99 929.974 1146.99 937.625C1156 945.276 1163.29 949.993 1146.56 953.423C1129.83 956.853 1099.81 954.71 1093.81 941.846C1087.81 928.983 1087.82 928.976 1087.82 928.976Z" fill="#79C8CC"/>
<path d="M1079.25 960.277C1088.25 943.552 1087.83 928.977 1087.83 928.977C1098.12 896.39 1188.18 867.233 1188.18 867.233C1073.67 913.539 1093.83 941.834 1093.83 941.834C1090.75 943.636 1086.12 952.214 1082.91 958.797C1082.45 959.916 1081.72 961.467 1080.65 963.571C1080.21 964.524 1079.86 965.302 1079.63 965.843C1073.73 980.592 1076.85 1006.06 1076.85 1006.06L1073.28 1007.02C1065.36 981.364 1079.25 960.277 1079.25 960.277Z" fill="#6BB7BF"/>
<path d="M1036.65 904.144C1036.65 904.144 1079.05 880.405 1059.26 848.192C1059.26 848.192 1043.43 828.41 1026.47 823.327C1026.47 823.327 1035.52 871.37 1026.47 872.497C1017.43 873.629 1020.25 818.237 1020.25 818.237C1020.25 818.237 975.591 796.763 958.07 798.455C958.07 798.455 985.773 845.367 976.723 844.234C967.68 843.101 936.584 795.63 936.584 795.63C936.584 795.63 890.794 787.156 883.443 814.279C876.093 841.403 887.968 854.974 894.752 856.666C901.537 858.359 945.068 857.799 943.935 863.449C942.802 869.099 913.406 878.146 897.012 873.056C897.012 873.056 915.105 917.702 938.844 915.444C962.588 913.185 969.939 898.488 984.634 897.355C999.335 896.222 1010.07 900.18 1002.73 904.137C995.377 908.095 970.506 905.431 958.63 915.527C946.761 925.617 937.144 931.834 959.196 936.357C981.242 940.881 1020.81 938.056 1028.73 921.1C1036.65 904.144 1036.65 904.144 1036.65 904.144Z" fill="#6BB7BF"/>
<path d="M904.362 822.76C904.362 822.76 1023.08 861.19 1036.65 904.144C1036.65 904.144 1036.08 923.359 1047.96 945.405C1047.96 945.405 1066.26 973.198 1055.83 1007.03L1051.12 1005.77C1051.12 1005.77 1055.24 972.2 1047.46 952.76C1047.15 952.046 1046.68 951.016 1046.11 949.761C1044.69 946.988 1043.74 944.942 1043.14 943.468C1038.9 934.787 1032.81 923.481 1028.74 921.106C1028.73 921.1 1055.3 883.796 904.362 822.76Z" fill="#599DAD"/>
<path d="M1038.08 1080.4C992.21 1080.4 955.025 1043.23 955.025 997.374H1121.14C1121.13 1043.23 1083.95 1080.4 1038.08 1080.4Z" fill="#F1A34F"/>
<path d="M1017.64 1079.77C1021.02 1080.19 1024.46 1080.4 1027.96 1080.4C1073.83 1080.4 1111.01 1043.23 1111.01 997.374H1090.38C1090.38 1039.74 1058.64 1074.69 1017.64 1079.77Z" fill="#FFB973"/>
<path d="M964.127 1074.38H1112.04C1117.69 1074.38 1122.28 1078.97 1122.28 1084.63H953.88C953.88 1078.97 958.463 1074.38 964.127 1074.38Z" fill="#F1A34F"/>
<path d="M1123.86 997.368H953.133V999.916H1123.86V997.368Z" fill="#D86713"/>
</svg>
