<svg width="2000" height="1333" viewBox="0 0 2000 1333" fill="none" xmlns="http://www.w3.org/2000/svg">
<rect width="2000" height="1333" fill="#FFE0F1"/>
<path d="M1708 382.524V1006.47C1708 1106.52 1622.92 1174 1520.13 1187.62C1454.7 1196.29 1391.72 1197.63 1324.99 1196.21C1237.71 1194.36 1122.4 1186.74 1024.07 1180.25C973.595 1176.93 904.977 1176.75 831.095 1177.95C747.994 1179.3 660.598 1182.33 580.955 1184.72C533.156 1186.16 489.724 1187.31 454.864 1187.61C351.113 1188.5 267 1106.5 267 1006.46V382.524C267 282.473 351.289 195.489 454.864 201.372C551.043 206.837 692.526 228.474 840.006 215.232C1015.42 199.472 1348.35 186.084 1520.14 201.372C1623.45 210.566 1708 282.473 1708 382.524Z" fill="#FFE0F1"/>
<path d="M1410.73 630.343C1410.73 630.343 1420.46 640.795 1434.04 635.318C1434.04 635.318 1431.67 626.282 1428.72 624.751C1428.72 624.751 1415.86 628.642 1405.64 614.559C1405.63 614.553 1407.53 626.324 1410.73 630.343Z" fill="#C96B55"/>
<path d="M1396.26 589.599C1396.26 589.599 1389.66 609.826 1410.73 630.343C1410.73 630.343 1401.71 609.324 1409.99 598.678C1409.99 598.672 1404.52 590.471 1396.26 589.599Z" fill="#E28569"/>
<path d="M622.097 326.945C622.097 326.945 632.152 343.505 651.681 339.958C651.681 339.958 651.021 327.309 647.526 324.458C647.526 324.458 629.384 326.098 619.674 304.582C619.68 304.582 618.959 320.736 622.097 326.945Z" fill="#C96B55"/>
<path d="M614.095 268.855C614.095 268.855 599.769 293.906 622.097 326.946C622.097 326.946 615.906 296.545 629.844 284.682C629.844 284.688 624.835 272.293 614.095 268.855Z" fill="#E28569"/>
<path d="M1006.7 477.57C1006.7 477.57 1014.49 465.49 1005.78 453.621C1005.78 453.621 997.546 458.166 996.777 461.429C996.777 461.429 1003.76 472.995 992.549 486.449C992.549 486.449 1003.57 481.68 1006.7 477.57Z" fill="#C96B55"/>
<path d="M970.506 501.767C970.506 501.767 991.889 503.183 1006.7 477.564C1006.7 477.564 988.406 491.563 975.964 486.122C975.964 486.128 969.307 493.494 970.506 501.767Z" fill="#E28569"/>
<path d="M351.658 861.741C351.658 861.741 368.183 871.867 383.926 859.786C383.926 859.786 377.548 848.838 373.132 847.906C373.132 847.906 357.752 857.656 339.265 842.961C339.259 842.961 346.019 857.65 351.658 861.741Z" fill="#C96B55"/>
<path d="M317.937 813.747C317.937 813.747 316.671 842.574 351.658 861.742C351.658 861.742 332.232 837.538 339.192 820.622C339.192 820.622 329.058 811.889 317.937 813.747Z" fill="#E28569"/>
<path d="M1341.32 257.762C1359.53 315.537 1340.14 417.495 1282.32 435.688C1224.49 453.881 1150.13 381.429 1131.92 323.653C1113.71 265.878 1145.82 204.289 1203.64 186.096C1261.47 167.897 1323.11 199.986 1341.32 257.762Z" fill="#65C7B5"/>
<path d="M1275.86 437.334C1275.86 437.334 1262.08 462.094 1269.81 463.771C1277.54 465.447 1281.85 457.924 1287.37 461.586C1292.9 465.242 1297.43 463.305 1300.22 459.086C1303 454.868 1309.15 458.076 1308.79 452.023C1308.42 445.971 1296.45 429.188 1286.11 430.647C1275.76 432.099 1275.86 437.334 1275.86 437.334Z" fill="#65C7B5"/>
<path d="M1284.22 207.999C1274.39 193.328 1248.15 185.291 1227.75 200.652C1207.34 216.012 1239.72 218.5 1254 231.149C1268.28 243.793 1293.19 221.393 1284.22 207.999Z" fill="#90DECF"/>
<path d="M1206.46 534.958C1205.82 521.873 1212.18 511.693 1220.27 504.915C1218.62 501.023 1218.27 496.792 1219.25 492.283C1221.65 481.153 1231.88 468.431 1249.62 454.462C1262.8 444.095 1275.44 436.88 1275.56 436.808L1276.16 437.855C1275.66 438.139 1226.04 466.609 1220.43 492.537C1219.54 496.665 1219.82 500.539 1221.25 504.11C1224.04 501.9 1227.01 500.085 1229.95 498.681C1243.84 492.053 1259.07 492.852 1267.86 500.678C1273.01 505.272 1273.14 509.599 1272.34 512.425C1270.8 517.848 1264.55 522.291 1256.42 523.737C1243.59 526.013 1230.98 520.554 1222.68 509.133C1221.95 508.134 1221.32 507.105 1220.8 506.052C1213.07 512.619 1207.06 522.394 1207.67 534.898L1206.46 534.958ZM1221.75 505.259C1222.28 506.343 1222.91 507.402 1223.66 508.425C1231.68 519.464 1243.85 524.748 1256.2 522.551C1263.77 521.207 1269.78 517.007 1271.18 512.099C1272.19 508.528 1270.77 504.89 1267.06 501.586C1258.63 494.081 1243.93 493.355 1230.48 499.776C1227.52 501.186 1224.54 503.02 1221.75 505.259Z" fill="#6F4975"/>
<path d="M1292.15 431.621C1292.15 431.621 1269.26 434.919 1270.98 439.234C1272.7 443.55 1274.3 440.142 1280.8 439.234C1287.29 438.327 1301.54 432.91 1292.15 431.621Z" fill="#6F4975"/>
<path d="M480.342 432.365C511.083 477.286 521.035 569.983 476.077 600.699C431.119 631.414 348.278 588.509 317.537 543.589C286.796 498.669 298.323 437.358 343.281 406.643C388.239 375.933 449.6 387.445 480.342 432.365Z" fill="#EF8062"/>
<path d="M470.953 603.798C470.953 603.798 465.574 628.673 472.655 628.104C479.736 627.535 481.48 619.939 487.18 621.646C492.886 623.347 496.272 620.502 497.563 616.15C498.853 611.799 504.977 612.949 503.087 607.841C501.191 602.732 486.52 591.427 478.009 595.373C469.505 599.325 470.953 603.798 470.953 603.798Z" fill="#EF8062"/>
<path d="M418.259 404.476C405.981 394.423 381.321 394.356 367.795 412.877C354.269 431.397 382.745 425.102 398.324 432.25C413.904 439.398 429.465 413.651 418.259 404.476Z" fill="#F9A38F"/>
<path d="M436.777 705.81C432.809 694.728 435.62 684.318 440.805 676.383C438.37 673.472 436.964 669.925 436.625 665.798C435.789 655.6 441.253 642 452.865 625.362C461.485 613.015 470.462 603.519 470.553 603.422L471.352 604.179C470.995 604.554 435.771 641.964 437.722 665.707C438.03 669.484 439.278 672.734 441.447 675.427C443.27 672.8 445.342 670.47 447.498 668.503C457.711 659.183 471.019 655.896 480.614 660.339C486.247 662.941 487.489 666.633 487.538 669.272C487.635 674.338 483.413 679.791 476.798 683.15C466.367 688.452 454.095 687.041 443.979 679.385C443.094 678.713 442.289 677.999 441.562 677.231C436.643 684.887 434.021 694.855 437.812 705.44L436.777 705.81ZM442.192 676.292C442.925 677.085 443.743 677.83 444.645 678.514C454.422 685.91 466.258 687.277 476.301 682.175C482.449 679.046 486.526 673.872 486.441 669.296C486.381 665.961 484.206 663.213 480.154 661.337C470.952 657.082 458.129 660.29 448.243 669.32C446.081 671.293 444.003 673.642 442.192 676.292Z" fill="#6F4975"/>
<path d="M483.467 594.64C483.467 594.64 464.653 603.44 467.258 606.703C469.862 609.965 470.347 606.618 475.696 604.143C481.038 601.673 491.875 593.303 483.467 594.64Z" fill="#E28569"/>
<path d="M1127 772.664C1127 772.664 1127.72 778.686 1136.53 785.15C1136.53 785.15 1142.02 783.982 1144.27 782.184C1146.52 780.386 1150.2 777.245 1149.12 775.986C1148.04 774.728 1143.91 770.775 1141.75 766.285C1139.59 761.794 1137.43 767.362 1133.12 768.082C1128.8 768.802 1126.1 769.958 1127 772.664Z" fill="#6F4975"/>
<path d="M837.667 302.392C837.667 302.392 838.388 308.414 847.196 314.878C847.196 314.878 852.684 313.71 854.931 311.912C857.178 310.115 860.867 306.973 859.789 305.714C858.711 304.456 854.574 300.503 852.417 296.013C850.261 291.522 848.104 297.09 843.785 297.81C839.467 298.53 836.765 299.692 837.667 302.392Z" fill="#436E8E"/>
<path d="M330.009 708.594C330.009 708.594 326.502 713.545 328.707 724.245C328.707 724.245 333.559 727.053 336.436 727.223C339.307 727.398 344.153 727.532 344.202 725.873C344.244 724.215 343.826 718.513 345.237 713.732C346.649 708.957 341.312 711.644 337.629 709.284C333.934 706.929 331.154 705.985 330.009 708.594Z" fill="#436E8E"/>
<path d="M450.158 998.997C450.158 998.997 450.878 1005.02 459.686 1011.48C459.686 1011.48 465.174 1010.31 467.421 1008.52C469.668 1006.72 473.357 1003.58 472.279 1002.32C471.201 1001.06 467.064 997.108 464.907 992.618C462.751 988.127 460.594 993.695 456.275 994.415C451.957 995.135 449.255 996.297 450.158 998.997Z" fill="#436E8E"/>
<path d="M1483.76 330.631C1483.76 330.631 1484.48 336.654 1493.29 343.117C1493.29 343.117 1498.78 341.949 1501.02 340.152C1503.27 338.354 1506.96 335.213 1505.88 333.954C1504.8 332.695 1500.67 328.743 1498.51 324.252C1496.35 319.761 1494.2 325.33 1489.88 326.05C1485.56 326.77 1482.86 327.932 1483.76 330.631Z" fill="#436E8E"/>
<path d="M491.39 250.414C491.39 250.414 492.111 256.436 500.919 262.9C500.919 262.9 506.407 261.732 508.654 259.935C510.901 258.137 514.59 254.996 513.512 253.737C512.434 252.478 508.296 248.526 506.14 244.035C503.984 239.544 501.827 245.112 497.508 245.833C493.189 246.553 490.494 247.709 491.39 250.414Z" fill="#436E8E"/>
<path d="M766.214 439.701C766.214 439.701 769.855 444.549 780.728 445.729C780.728 445.729 784.889 441.97 785.931 439.289C786.973 436.608 788.584 432.038 787.021 431.494C785.459 430.943 779.898 429.599 775.773 426.791C771.654 423.983 772.581 429.884 769.207 432.668C765.827 435.458 764.076 437.812 766.214 439.701Z" fill="#E28569"/>
<path d="M1150.25 605.081C1150.25 605.081 1153.89 609.929 1164.76 611.109C1164.76 611.109 1168.92 607.351 1169.96 604.669C1171.01 601.988 1172.62 597.419 1171.05 596.874C1169.49 596.323 1163.93 594.98 1159.81 592.171C1155.69 589.363 1156.61 595.264 1153.24 598.048C1149.86 600.838 1148.11 603.193 1150.25 605.081Z" fill="#E28569"/>
<path d="M1019.28 286.91C1019.28 286.91 1022.93 291.758 1033.79 292.938C1033.79 292.938 1037.96 289.179 1039 286.498C1040.04 283.817 1041.65 279.247 1040.09 278.703C1038.52 278.152 1032.96 276.808 1028.84 274C1024.72 271.192 1025.65 277.093 1022.27 279.877C1018.9 282.667 1017.15 285.027 1019.28 286.91Z" fill="#E28569"/>
<path d="M1617.21 423.402C1617.21 423.402 1620.85 428.25 1631.72 429.43C1631.72 429.43 1635.88 425.671 1636.92 422.99C1637.96 420.309 1639.58 415.74 1638.01 415.195C1636.45 414.644 1630.89 413.3 1626.76 410.492C1622.65 407.684 1623.57 413.585 1620.2 416.369C1616.82 419.159 1615.07 421.513 1617.21 423.402Z" fill="#E28569"/>
<path d="M1279.84 940.792C1279.84 940.792 1283.49 945.639 1294.35 946.82C1294.35 946.82 1298.51 943.061 1299.56 940.38C1300.6 937.699 1302.21 933.129 1300.65 932.585C1299.08 932.034 1293.52 930.69 1289.4 927.882C1285.28 925.074 1286.21 930.975 1282.83 933.759C1279.45 936.549 1277.7 938.903 1279.84 940.792Z" fill="#E28569"/>
<path d="M1068.58 910.899L1106.49 898.432C1130.15 961.648 1239.71 970.908 1240.74 971.023C1248.32 970.061 1253.14 1007.91 1245.55 1008.88C1228.9 1011.46 1102.86 1002.48 1068.58 910.899Z" fill="#EAA97D"/>
<path d="M1330.05 839.518C1330.05 839.518 1362.17 838.059 1373.43 879.385C1380.68 906.027 1390.28 895.69 1399.9 902.977C1409.5 910.264 1390.59 924.039 1397.18 930.46C1403.76 936.882 1413.79 939.46 1411.41 951.038C1409.03 962.616 1389.33 953.961 1391.32 966.133C1393.31 978.31 1395.33 979.436 1387.58 985.276C1379.82 991.117 1366.39 979.2 1356.43 989.477C1346.47 999.753 1253.76 977.602 1250.12 962.029C1246.49 946.457 1253.78 942.692 1243.1 934.243C1232.42 925.788 1241.43 913.943 1244.03 903.219C1246.63 892.5 1227.96 879.233 1247.13 869.495C1266.29 859.757 1256.22 844.269 1274.46 839.385C1292.7 834.501 1313.42 830.209 1330.05 839.518Z" fill="#366F90"/>
<path d="M1241.65 1026.57C1241.65 1026.57 1235.78 1059.6 1231.69 1095.1C1228.31 1124.38 1213.28 1179.61 1203.44 1229.32H1443.93C1441.5 1183.14 1432.64 1116.09 1403.96 1021.78C1403.96 1021.78 1401.3 1013.5 1407.49 1009.19C1412.98 994.851 1392.75 969.359 1400.75 953.84C1400.75 953.84 1389.01 958.513 1365.79 953.465C1365.79 953.465 1352.84 950.481 1334.16 948.986C1322.45 948.054 1308.65 947.855 1293.91 948.871C1281.24 949.743 1263.69 953.84 1254.49 955.662C1254.49 955.662 1241.28 959.13 1220.88 962.846C1220.88 962.84 1216.2 1008.66 1241.65 1026.57Z" fill="#EF8062"/>
<path d="M1400.75 953.841C1405.51 953.562 1410.81 965.74 1412.57 981.034C1414.34 996.328 1411.92 1008.95 1407.16 1009.23C1402.4 1009.51 1397.1 997.333 1395.34 982.032C1393.57 966.744 1395.99 954.119 1400.75 953.841Z" fill="#2F1A31"/>
<path d="M1331.15 838.562C1331.55 838.677 1331.98 838.513 1332.19 838.138C1332.27 838.005 1333.95 835.36 1339.98 835.275C1340.49 835.269 1340.89 834.852 1340.89 834.349C1340.88 833.847 1340.47 833.435 1339.95 833.448C1332.75 833.55 1330.68 837.079 1330.6 837.23C1330.35 837.672 1330.51 838.229 1330.95 838.477C1331.02 838.519 1331.08 838.544 1331.15 838.562Z" fill="#E28569"/>
<path d="M1326.97 837.37C1327.26 837.454 1327.58 837.394 1327.82 837.176C1328.2 836.843 1328.24 836.262 1327.9 835.887C1327.61 835.554 1320.53 827.68 1305.43 827.317C1304.92 827.305 1304.5 827.704 1304.49 828.212C1304.47 828.715 1304.87 829.138 1305.38 829.151C1319.68 829.489 1326.46 837.019 1326.52 837.097C1326.65 837.23 1326.8 837.321 1326.97 837.37Z" fill="#E28569"/>
<path d="M1334.16 948.98C1327.46 947.262 1326.28 944.223 1324.45 938.346L1318.7 919.935L1317.04 914.591L1307.25 883.173L1304.93 913.744L1303.54 932.094L1303.14 937.324C1302.81 941.59 1298.82 948.884 1293.91 948.865C1293.91 948.865 1295.32 959.209 1312.86 959.124C1325.96 959.058 1334.19 948.992 1334.16 948.98Z" fill="#F7B686"/>
<path d="M1318.82 919.445C1318.79 919.609 1318.75 919.772 1318.7 919.935C1316.32 929.528 1303.34 934.624 1303.34 934.624L1303.54 932.088L1304.93 913.738C1308.78 913.157 1314.2 912.794 1317.04 914.591C1318.53 915.535 1319.32 917.06 1318.82 919.445Z" fill="#DB996B"/>
<path d="M1274.31 876.001C1282.75 857.953 1304.23 850.164 1322.29 858.595C1340.35 867.026 1348.15 888.487 1339.71 906.535C1331.27 924.577 1309.79 932.373 1291.74 923.942C1273.68 915.511 1265.88 894.049 1274.31 876.001Z" fill="#F7B686"/>
<path d="M1283.05 903.067C1283.05 903.067 1293.18 908.085 1305.1 909.271C1305.1 909.271 1301.24 919.754 1289.83 915.251C1283.19 912.636 1283.05 903.067 1283.05 903.067Z" fill="#DB6B49"/>
<path d="M1283.05 903.067C1283.05 903.067 1284.57 906.281 1290.36 908.956C1296.16 911.631 1305.1 909.277 1305.1 909.277C1305.1 909.277 1291.18 906.899 1283.05 903.067Z" fill="white"/>
<path d="M1309.07 887.071C1308.9 886.92 1308.79 886.702 1308.81 886.454C1308.83 886.042 1309.18 885.721 1309.6 885.745C1309.84 885.758 1315.54 885.546 1317.51 891.834C1317.64 892.234 1317.43 892.657 1317.03 892.79C1316.64 892.923 1316.29 892.675 1316.08 892.318C1313.93 888.753 1309.72 887.265 1309.51 887.253C1309.35 887.234 1309.19 887.168 1309.07 887.071Z" fill="#060633"/>
<path d="M1310.97 897.076C1310.26 898.728 1308.71 899.648 1307.52 899.134C1306.32 898.619 1305.92 896.87 1306.63 895.218C1307.34 893.572 1308.88 892.652 1310.08 893.16C1311.28 893.674 1311.68 895.43 1310.97 897.076Z" fill="#060633"/>
<path d="M1283.07 879.258C1282.85 879.185 1282.67 879.016 1282.59 878.786C1282.45 878.392 1282.66 877.969 1283.05 877.829C1283.28 877.745 1288.46 875.378 1292.68 880.444C1292.95 880.765 1292.92 881.231 1292.6 881.503C1292.29 881.776 1291.88 881.673 1291.54 881.43C1288.2 878.949 1283.73 879.179 1283.54 879.246C1283.39 879.312 1283.22 879.306 1283.07 879.258Z" fill="#060633"/>
<path d="M1288.64 887.792C1288.62 889.589 1287.54 891.024 1286.24 891.005C1284.93 890.987 1283.9 889.516 1283.92 887.719C1283.95 885.927 1285.02 884.481 1286.33 884.505C1287.63 884.523 1288.66 885.994 1288.64 887.792Z" fill="#060633"/>
<path d="M1317.8 853.59C1317.8 853.59 1298.4 832.552 1278.65 864.533C1278.65 864.533 1269.84 871.366 1284.08 873.091C1298.32 874.822 1295.92 883.204 1306.08 882.036C1316.24 880.874 1314.61 880.099 1319.49 885.389C1324.37 890.679 1323.43 877.006 1344.74 872.812C1357.07 870.391 1340.38 859.104 1317.8 853.59Z" fill="#366F90"/>
<path d="M1329.6 877.218C1329.6 877.218 1339.34 890.594 1334.83 896.555C1330.32 902.511 1328.53 906.475 1331.19 910.942C1333.84 915.408 1323.65 916.001 1326.58 923.748C1329.5 931.495 1356.56 932.736 1358.85 912.346C1363.36 872.056 1325.9 859.097 1329.6 877.218Z" fill="#366F90"/>
<path d="M1333.62 906.451C1328.71 908.103 1323.8 906.221 1322.66 902.244C1321.53 898.268 1324.59 893.698 1329.5 892.04C1334.41 890.388 1339.31 892.27 1340.45 896.252C1341.59 900.229 1338.54 904.798 1333.62 906.451Z" fill="#F7B686"/>
<path d="M1390.19 895.544C1390.73 895.696 1391.27 895.829 1391.85 895.944C1392.34 896.041 1392.83 895.72 1392.92 895.224C1393.03 894.727 1392.71 894.255 1392.2 894.146C1381.4 891.968 1379.11 882.484 1377.69 872.951C1376.11 862.299 1365.78 854.159 1365.35 853.82C1364.95 853.505 1364.37 853.584 1364.05 853.977C1363.75 854.377 1363.82 854.951 1364.22 855.26C1364.32 855.339 1374.41 863.298 1375.88 873.217C1377.25 882.484 1379.63 892.53 1390.19 895.544Z" fill="#366F90"/>
<path d="M1552.18 870.827L1515.95 865.64C1505.6 932.336 1402.35 962.386 1401.37 962.707C1393.75 963.3 1400.07 1000.95 1407.69 1000.36C1424.53 999.523 1526.78 972.736 1552.18 870.827Z" fill="#EAA97D"/>
<path d="M1544.51 859.382C1546.88 860.036 1549.36 858.631 1550.01 856.265L1560.19 819.515C1560.84 817.149 1559.44 814.673 1557.07 814.02C1554.7 813.366 1552.22 814.764 1551.57 817.131L1541.39 853.88C1540.74 856.253 1542.14 858.728 1544.51 859.382Z" fill="#EAA97D"/>
<path d="M1533.48 856.337C1535.85 856.991 1538.33 855.593 1538.98 853.227L1550.36 812.125C1551.02 809.759 1549.62 807.283 1547.24 806.63C1544.87 805.976 1542.4 807.374 1541.74 809.741L1530.37 850.842C1529.71 853.208 1531.11 855.678 1533.48 856.337Z" fill="#EAA97D"/>
<path d="M1524.59 876.903L1526.06 876.28C1528.8 875.118 1530.08 871.928 1528.92 869.193L1517.58 842.568C1516.42 839.833 1513.22 838.55 1510.49 839.712L1509.03 840.335C1506.29 841.497 1505 844.687 1506.17 847.416L1517.51 874.041C1518.66 876.782 1521.86 878.065 1524.59 876.903Z" fill="#EAA97D"/>
<path d="M1522.45 853.287C1524.82 853.941 1527.3 852.543 1527.95 850.176L1537.07 817.227C1537.73 814.861 1536.33 812.385 1533.96 811.732C1531.59 811.078 1529.11 812.482 1528.46 814.849L1519.34 847.791C1518.68 850.158 1520.08 852.633 1522.45 853.287Z" fill="#EAA97D"/>
<path d="M1546.19 882.381C1546.19 882.381 1564.54 864.611 1562.63 846.575C1561.97 840.335 1529.26 832.249 1524.6 837.521C1519.94 842.786 1515.95 865.64 1515.95 865.64L1546.19 882.381Z" fill="#EAA97D"/>
<path d="M1555.46 862.444C1557.82 863.098 1560.29 861.7 1560.94 859.334L1570.05 826.457C1570.7 824.097 1569.3 821.628 1566.94 820.974C1564.58 820.32 1562.11 821.718 1561.45 824.085L1552.35 856.961C1551.69 859.321 1553.09 861.791 1555.46 862.444Z" fill="#EAA97D"/>
<path d="M1077.26 898.08C1075.07 899.2 1072.36 898.329 1071.24 896.144L1053.83 862.214C1052.7 860.029 1053.58 857.324 1055.76 856.204C1057.95 855.085 1060.66 855.956 1061.78 858.141L1079.19 892.07C1080.31 894.249 1079.44 896.961 1077.26 898.08Z" fill="#EAA97D"/>
<path d="M1087.44 892.863C1085.25 893.983 1082.54 893.111 1081.42 890.927L1061.94 852.978C1060.82 850.794 1061.69 848.088 1063.88 846.968C1066.07 845.849 1068.78 846.72 1069.9 848.905L1089.37 886.853C1090.5 889.032 1089.62 891.744 1087.44 892.863Z" fill="#EAA97D"/>
<path d="M1100.31 911.208L1098.75 910.893C1095.84 910.306 1093.93 907.443 1094.52 904.532L1100.23 876.165C1100.81 873.254 1103.68 871.347 1106.59 871.934L1108.15 872.249C1111.06 872.83 1112.97 875.693 1112.38 878.61L1106.68 906.977C1106.09 909.889 1103.22 911.795 1100.31 911.208Z" fill="#EAA97D"/>
<path d="M1097.62 887.646C1095.43 888.766 1092.73 887.895 1091.61 885.71L1076 855.291C1074.87 853.106 1075.74 850.4 1077.93 849.275C1080.12 848.155 1082.83 849.026 1083.95 851.211L1099.56 881.624C1100.68 883.815 1099.81 886.521 1097.62 887.646Z" fill="#EAA97D"/>
<path d="M1080.27 920.946C1080.27 920.946 1058.7 907.262 1056.91 889.214C1056.29 882.968 1086.69 868.43 1092.32 872.649C1097.95 876.861 1106.49 898.432 1106.49 898.432L1080.27 920.946Z" fill="#EAA97D"/>
<path d="M1067.16 903.291C1064.98 904.411 1062.28 903.539 1061.15 901.355L1045.58 871.002C1044.45 868.823 1045.33 866.124 1047.51 865.004C1049.69 863.885 1052.39 864.756 1053.51 866.935L1069.09 897.287C1070.21 899.472 1069.34 902.172 1067.16 903.291Z" fill="#EAA97D"/>
<path d="M1296.94 835.172L1374.73 751.953L1361.6 863.219C1361.61 863.219 1326.04 870.881 1296.94 835.172Z" fill="#FFB27D"/>
<path d="M1321.21 845.564C1323.47 845.564 1325.29 843.738 1325.29 841.485C1325.29 839.232 1323.47 837.406 1321.21 837.406C1318.96 837.406 1317.13 839.232 1317.13 841.485C1317.13 843.738 1318.96 845.564 1321.21 845.564Z" fill="white"/>
<path d="M1317.13 820.949C1319.38 820.949 1321.21 819.121 1321.21 816.87C1321.21 814.848 1319.74 813.172 1317.81 812.851L1313.16 817.82C1313.59 819.612 1315.2 820.949 1317.13 820.949Z" fill="white"/>
<path d="M1360.99 827.317C1363.24 827.317 1365.07 825.49 1365.07 823.237C1365.07 820.985 1363.24 819.158 1360.99 819.158C1358.74 819.158 1356.91 820.985 1356.91 823.237C1356.91 825.49 1358.74 827.317 1360.99 827.317Z" fill="white"/>
<path d="M1350.89 797.055C1353.15 797.055 1354.98 795.228 1354.98 792.975C1354.98 790.722 1353.15 788.896 1350.89 788.896C1348.64 788.896 1346.81 790.722 1346.81 792.975C1346.81 795.228 1348.64 797.055 1350.89 797.055Z" fill="white"/>
<path d="M1365.07 767.937C1367.33 767.937 1369.16 766.109 1369.16 763.858C1369.16 762.29 1368.27 760.934 1366.97 760.25L1361.6 766C1362.32 767.162 1363.61 767.937 1365.07 767.937Z" fill="white"/>
<path d="M1354.98 858.837C1352.72 858.837 1350.89 860.665 1350.89 862.916C1350.89 863.249 1350.93 863.57 1351.01 863.878C1354.42 863.993 1357.16 863.812 1359 863.612C1359.03 863.388 1359.06 863.158 1359.06 862.922C1359.06 860.659 1357.23 858.837 1354.98 858.837Z" fill="white"/>
<path d="M999.733 888.935C907.982 882.973 798.004 817.402 756.965 761.775C711.353 699.951 736.109 619.116 815.425 727.513C864.393 794.428 948.706 810.327 1015.17 852.161L999.733 888.935Z" fill="#FFB27D"/>
<path d="M498.683 983.145C497.545 994.869 562.486 1007.71 643.831 1015.13C725.175 1022.54 790.438 1021.9 791.577 1010.18C792.715 998.458 729.294 980.077 647.95 972.663C566.605 965.249 499.822 971.416 498.683 983.145Z" fill="#331832"/>
<path d="M584.541 669.659C584.541 669.659 634.43 619.733 713.648 641.086C792.867 662.439 828.878 781.282 791.571 1010.18C791.571 1010.18 667.4 951.244 498.665 982.649C498.671 982.649 528.159 753.423 584.541 669.659Z" fill="#6DA49A"/>
<path d="M532.459 675.929L590.38 710.101C590.38 710.101 732.481 758.308 772.72 760.238C812.959 762.175 825.547 735.194 825.547 735.194C825.547 735.194 800.481 676.347 733.468 647.665C727.174 644.96 720.602 643.235 713.654 641.092C701.994 637.509 690.121 634.314 678.14 633.69C551.752 627.069 532.459 675.929 532.459 675.929Z" fill="#6DA49A"/>
<path d="M614.568 706.167C616.91 699.833 600.426 687.914 577.751 679.545C555.076 671.176 534.796 669.526 532.455 675.859C530.113 682.192 546.597 694.111 569.272 702.481C591.947 710.85 612.227 712.5 614.568 706.167Z" fill="#331832"/>
<path d="M805.085 891.895C698.535 888.282 617.227 862.117 574.431 807.834C526.862 747.498 539.322 684.409 539.91 681.552C539.91 681.552 542.678 675.548 570.76 683.761C602.701 693.106 606.638 702.965 606.638 702.965C608.807 723.168 623.399 757.055 644.545 781.5C675.202 816.955 749.502 830.282 832.307 846.932L805.085 891.895Z" fill="#FFB27D"/>
<g opacity="0.5">
<path d="M641.408 840.317C640.632 840.317 639.827 840.238 638.991 840.081C635.629 839.445 632.237 837.551 629.444 834.761C623.532 828.853 622.139 820.634 626.343 816.434C630.547 812.24 638.773 813.626 644.685 819.533C647.477 822.323 649.367 825.712 650.009 829.071C650.688 832.63 649.9 835.747 647.786 837.859C646.169 839.481 643.958 840.317 641.408 840.317ZM631.461 832.751C633.854 835.142 636.719 836.758 639.53 837.29C642.141 837.787 644.358 837.272 645.781 835.856C647.205 834.434 647.713 832.219 647.223 829.61C646.69 826.808 645.078 823.945 642.68 821.554C637.961 816.84 631.407 815.417 628.366 818.456C625.319 821.488 626.743 828.036 631.461 832.751Z" fill="#EC865C"/>
</g>
<path d="M750.356 1196.7C778.529 1025.32 772.314 1018.13 772.314 1018.13C772.314 1018.13 759.533 1003.17 707.003 992.509C657.484 982.45 627.246 982.062 627.246 982.062L615.797 1102.17L609.031 1196.7H750.356V1196.7Z" fill="#764678"/>
<path d="M621.103 1196.7L682.937 998.234C686.123 975.272 546.616 979.877 514.166 989.228C508.181 990.953 504.662 1018.36 503.287 1024.57L472.067 1196.7H621.103V1196.7Z" fill="#764678"/>
<path d="M621.988 1196.7L642.819 1133.41C651.184 1108 668.393 1086.79 691.272 1073.69L689.824 1071.17C666.322 1084.63 648.64 1106.41 640.051 1132.51L618.917 1196.7H621.988V1196.7Z" fill="#020202"/>
<path d="M1023.77 841.085H760.199V852.161H1023.77V841.085Z" fill="#331832"/>
<path d="M968.907 891.501C968.907 891.501 950.383 895.362 946.973 878.44C942.63 856.882 957.907 825.864 960.844 839.487C963.449 851.562 963.037 869.604 963.037 869.604C963.037 869.604 964.721 823.751 974.128 827.352C983.535 830.96 981.555 870.366 981.555 870.366C981.555 870.366 987.406 825.882 995.196 832.158C1002.98 838.44 1001.4 874.234 1001.4 874.234C1001.4 874.234 1004.78 830.445 1013.65 837.956C1022.53 845.461 1016.18 867.752 1015.66 877.805C1015.16 887.307 1008.87 890.067 999.727 888.929C999.727 888.929 989.968 893.081 984.184 890.835C981.967 889.976 979.61 891.997 977.938 892.112C974.752 892.324 968.907 891.501 968.907 891.501Z" fill="#FFB27D"/>
<path d="M796.586 891.501C796.586 891.501 778.063 895.362 774.652 878.44C770.309 856.882 785.586 825.864 788.524 839.487C791.128 851.562 790.722 869.604 790.722 869.604C790.722 869.604 792.406 823.751 801.814 827.352C811.221 830.96 809.24 870.366 809.24 870.366C809.24 870.366 815.091 825.882 822.881 832.158C830.665 838.44 829.09 874.234 829.09 874.234C829.09 874.234 832.464 830.445 841.338 837.956C850.212 845.461 843.87 867.752 843.343 877.805C842.846 887.307 836.553 890.067 827.412 888.929C827.412 888.929 817.654 893.081 811.869 890.835C809.652 889.976 807.296 891.997 805.624 892.112C802.431 892.324 796.586 891.501 796.586 891.501Z" fill="#FFB27D"/>
<path d="M698.493 627.952L708.445 608.192L711.534 601.02L729.7 558.853L726.55 602.551L724.654 628.776L724.121 636.165C723.679 642.284 726.999 644.494 733.462 647.665L734.074 648.857C737.308 654.111 741.773 664.787 728.428 669.03C712.752 674.017 687.232 648.306 678.134 633.69C678.14 633.69 695.119 635.778 698.493 627.952Z" fill="#FFB27D"/>
<path d="M708.403 607.471C708.409 607.713 708.427 607.955 708.451 608.197C709.493 622.281 724.57 628.866 724.57 628.866L724.661 628.787L726.557 602.562C721.947 600.874 715.381 599.143 711.54 601.031C709.529 602.012 708.263 603.985 708.403 607.471Z" fill="#331832"/>
<path d="M731.693 616.495C754.385 616.495 772.78 593.818 772.78 565.843C772.78 537.869 754.385 515.191 731.693 515.191C709.001 515.191 690.606 537.869 690.606 565.843C690.606 593.818 709.001 616.495 731.693 616.495Z" fill="#FFB27D"/>
<path d="M753.821 598.623C753.821 598.623 739.786 598.944 725.751 594.023C725.751 594.023 724.582 607.847 739.786 608.773C748.624 609.306 753.821 598.623 753.821 598.623Z" fill="white"/>
<path d="M735.667 566.333C735.939 566.261 736.176 566.061 736.291 565.776C736.484 565.298 736.248 564.754 735.77 564.566C735.485 564.451 729.197 561.219 723.673 567.259C723.322 567.641 723.334 568.222 723.703 568.579C724.079 568.936 724.594 568.833 725.024 568.548C729.319 565.667 734.837 566.206 735.073 566.303C735.267 566.376 735.473 566.388 735.667 566.333Z" fill="#080435"/>
<path d="M728.271 576.599C728.198 578.826 729.452 580.672 731.069 580.726C732.687 580.775 734.056 579.013 734.128 576.786C734.201 574.559 732.947 572.713 731.33 572.658C729.706 572.604 728.344 574.371 728.271 576.599Z" fill="#080435"/>
<path d="M769.025 571.2C769.304 571.236 769.6 571.146 769.812 570.922C770.17 570.552 770.164 569.965 769.794 569.602C769.576 569.39 764.991 564.01 757.583 567.49C757.116 567.708 756.898 568.253 757.11 568.725C757.322 569.197 757.837 569.3 758.346 569.197C763.416 568.168 768.31 570.764 768.492 570.94C768.643 571.091 768.831 571.176 769.025 571.2Z" fill="#080435"/>
<path d="M758.273 577.876C757.358 579.909 757.813 582.094 759.291 582.754C760.769 583.42 762.707 582.306 763.622 580.272C764.536 578.239 764.082 576.054 762.604 575.394C761.126 574.734 759.188 575.842 758.273 577.876Z" fill="#080435"/>
<path d="M757.455 619.83C751.992 619.83 747.915 617.44 747.842 617.397C747.346 617.101 747.188 616.453 747.485 615.957C747.782 615.461 748.43 615.297 748.927 615.594C749.369 615.86 759.927 621.985 769.322 612.477C778.735 602.95 771.963 592.359 771.89 592.256C771.569 591.772 771.708 591.118 772.193 590.803C772.678 590.483 773.332 590.622 773.647 591.106C773.726 591.227 781.406 603.235 770.812 613.96C766.323 618.511 761.508 619.83 757.455 619.83Z" fill="#EF8062"/>
<path d="M719.154 530.008C720.632 539.177 718.276 546.294 746.491 553.121C746.491 553.121 751.138 556.184 751.398 551.197C751.658 546.204 744.589 538.59 748.387 532.81C748.387 532.81 768.643 574.716 775.397 565.844C782.151 556.971 790.989 528.259 775.397 510.743C759.806 493.234 710.874 489.481 702.678 503.741C690.6 524.754 717.888 522.164 719.154 530.008Z" fill="#366F90"/>
<path d="M701.867 513.357C701.867 513.357 714.296 516.444 713.745 522C713.194 527.556 721.947 538.039 713.709 541.543C705.471 545.047 703.52 547.154 703.557 553.297C703.581 557.576 696.082 567.03 693.392 575.624C692.223 579.358 694.458 587.281 694.458 587.281C694.458 587.281 663.069 576.689 668.678 540.896C672.331 517.6 694.01 510.198 701.867 513.357Z" fill="#366F90"/>
<path d="M691.375 573.487C696.027 577.929 702.539 578.383 705.913 574.504C709.287 570.624 708.251 563.882 703.593 559.44C698.941 554.997 692.429 554.543 689.055 558.423C685.681 562.302 686.717 569.045 691.375 573.487Z" fill="#FFB27D"/>
<path d="M695.512 609.099C694.495 609.099 693.604 609.009 692.902 608.894C685.633 607.725 679.478 602.157 679.176 596.474C678.63 586.094 688.861 577.845 689.297 577.494C689.752 577.131 690.412 577.21 690.776 577.663C691.139 578.117 691.06 578.777 690.606 579.14C690.509 579.219 680.787 587.075 681.278 596.365C681.526 601.032 687.002 605.819 693.235 606.824C700.292 607.955 706.107 604.021 709.214 596.044C711.48 590.228 711.546 585.187 709.408 581.071C705.931 574.365 697.669 572.253 697.584 572.235C697.021 572.095 696.675 571.526 696.815 570.964C696.954 570.401 697.523 570.056 698.087 570.195C698.462 570.286 707.336 572.537 711.268 580.09C713.703 584.769 713.672 590.392 711.171 596.807C707.118 607.229 700.055 609.099 695.512 609.099Z" fill="#EF8062"/>
<path d="M678.303 510.749C677.94 510.749 677.589 510.561 677.395 510.222C677.104 509.72 677.274 509.078 677.776 508.788C687.335 503.262 695.24 508.606 695.573 508.836C696.051 509.169 696.167 509.823 695.839 510.301C695.506 510.779 694.858 510.894 694.38 510.567C694.095 510.367 687.208 505.774 678.836 510.61C678.661 510.7 678.479 510.749 678.303 510.749Z" fill="#366F90"/>
<path d="M697.481 506.894C696.906 506.894 696.433 506.428 696.427 505.853C696.427 505.544 696.403 498.318 699.734 495.576C700.183 495.207 700.843 495.267 701.212 495.721C701.582 496.169 701.515 496.829 701.067 497.198C698.941 498.947 698.511 504.025 698.529 505.835C698.535 506.416 698.069 506.888 697.487 506.894H697.481Z" fill="#366F90"/>
<path d="M999.569 774.763C999.376 806.617 950.838 841.297 891.227 840.933C831.628 840.564 783.52 805.291 783.72 773.438C783.72 773.117 783.732 772.802 783.744 772.494C783.769 771.743 783.823 770.993 783.908 770.248C787.106 753.865 834.197 750.875 891.784 751.232C949.384 751.589 996.426 755.154 999.418 771.58C999.491 772.324 999.539 773.075 999.557 773.825C999.563 774.122 999.569 774.442 999.569 774.763Z" fill="#764678"/>
<path d="M999.576 773.293C999.576 773.469 999.563 773.638 999.557 773.808C999.388 776.646 997.892 779.382 995.251 781.978C994.627 782.596 993.936 783.201 993.185 783.794C985.292 790.052 970.549 795.324 951.54 798.888C951.328 798.931 951.116 798.967 950.904 799.009C949.354 799.294 947.773 799.566 946.168 799.826C935.234 801.618 923.071 802.859 910.12 803.434C909.084 803.476 908.036 803.524 906.982 803.555C906.649 803.573 906.316 803.579 905.983 803.591C901.234 803.748 896.382 803.821 891.457 803.785C879.161 803.712 867.361 803.046 856.354 801.89H856.348C846.317 800.837 836.959 799.36 828.515 797.557C810.978 793.798 797.398 788.581 789.99 782.553C788.633 781.452 787.488 780.326 786.555 779.17C784.817 777.015 783.847 774.782 783.738 772.494C783.72 772.319 783.72 772.155 783.72 771.98C783.726 771.471 783.769 770.981 783.853 770.491C783.872 770.406 783.884 770.333 783.902 770.255C786.064 759.155 808.422 749.725 840.533 744.914C855.809 742.626 873.279 741.379 891.833 741.494C900.876 741.549 909.653 741.924 918.043 742.578C919.921 742.723 921.78 742.886 923.616 743.062C924.367 743.128 925.106 743.201 925.845 743.28C926.372 743.334 926.893 743.382 927.42 743.437H927.432C928.54 743.558 929.637 743.685 930.721 743.818C930.854 743.836 930.988 743.849 931.121 743.867C931.575 743.921 932.029 743.976 932.484 744.024C932.635 744.042 932.787 744.066 932.938 744.078C934.368 744.254 935.779 744.448 937.172 744.635C937.657 744.708 938.141 744.775 938.614 744.841C938.711 744.859 938.814 744.871 938.917 744.889C939.111 744.914 939.311 744.944 939.504 744.974H939.51C941.861 745.325 944.162 745.7 946.404 746.088C974.704 751.069 994.717 759.633 998.794 769.498C999.079 770.188 999.285 770.878 999.412 771.574C999.533 772.137 999.582 772.712 999.576 773.293Z" fill="#331832"/>
<path d="M952.358 774.298C952.176 779.999 951.68 786.051 950.747 792.346C950.093 796.794 949.214 801.364 948.082 806.024L850.394 830.518C846.99 831.371 843.676 828.835 843.622 825.325L842.483 756.026L946.785 727.114C946.785 727.114 949.22 734.479 950.898 746.566C951.595 751.602 952.164 757.46 952.364 763.948C952.467 767.241 952.473 770.703 952.358 774.298Z" fill="#FFCCA8"/>
<path d="M842.483 756.025C842.483 756.025 881.814 709.997 887.162 706.535C892.511 703.079 938.747 703.975 946.785 727.113L842.483 756.025Z" fill="#EF8062"/>
<path d="M952.364 763.948C944.423 766.43 929.267 770.69 917.819 770.987C901.591 771.417 873.763 779.902 858.487 782.801C852.69 783.903 847.359 785.204 842.98 786.396L842.75 772.307C850.037 770.297 861.212 767.574 869.293 767.223C882.268 766.66 898.544 756.637 912.731 757.182C926.517 757.714 943.302 747.304 950.898 746.566C951.595 751.601 952.164 757.46 952.364 763.948Z" fill="#FFB27D"/>
<path d="M952.358 774.297C952.176 779.998 951.68 786.051 950.747 792.345C942.436 794.851 928.789 798.47 918.273 798.748C902.045 799.178 874.218 807.664 858.941 810.563C853.144 811.664 847.814 812.965 843.434 814.158L843.204 800.068C850.491 798.059 861.667 795.335 869.747 794.984C882.722 794.421 898.999 784.398 913.185 784.943C927.371 785.488 944.72 774.461 951.983 774.291C952.116 774.285 952.237 774.291 952.358 774.297Z" fill="#FFB27D"/>
<path d="M888.21 707.341C888.21 707.341 888.229 695.085 896.86 692.276C905.492 689.468 920.714 689.256 920.605 692.046C920.496 694.836 913.688 706.185 905.771 707.625C897.854 709.071 888.21 707.341 888.21 707.341Z" fill="#ACC9C5"/>
<path d="M885.369 710.627C885.333 710.615 885.297 710.597 885.26 710.579C885.03 710.433 884.964 710.131 885.109 709.907C885.357 709.507 891.512 700.102 917.116 692.706C917.377 692.634 917.649 692.779 917.722 693.039C917.795 693.299 917.649 693.572 917.389 693.644C892.214 700.913 885.999 710.331 885.939 710.421C885.818 710.615 885.581 710.694 885.369 710.627Z" fill="#92BCB5"/>
<path d="M912.985 700.72L904.723 697.917C904.468 697.833 904.329 697.554 904.414 697.294C904.499 697.04 904.777 696.901 905.032 696.985L913.288 699.782C913.542 699.866 913.682 700.145 913.597 700.405C913.518 700.665 913.24 700.804 912.985 700.72Z" fill="#92BCB5"/>
<path d="M894.746 702.868C894.552 702.807 894.413 702.626 894.413 702.414C894.334 698.776 899.211 694.37 899.416 694.183C899.616 694.001 899.931 694.019 900.107 694.219C900.289 694.419 900.271 694.727 900.071 694.909C900.022 694.951 895.322 699.2 895.394 702.39C895.4 702.662 895.188 702.886 894.916 702.892C894.855 702.898 894.801 702.886 894.746 702.868Z" fill="#92BCB5"/>
<path d="M890.639 710.736C890.639 710.736 896.648 700.054 905.547 701.815C914.451 703.576 927.838 710.821 926.384 713.205C924.924 715.59 913.439 722.163 905.825 719.56C898.211 716.952 890.639 710.736 890.639 710.736Z" fill="#CCD39C"/>
<path d="M886.557 712.219C886.532 712.189 886.508 712.159 886.49 712.122C886.363 711.886 886.448 711.59 886.684 711.457C887.096 711.233 897.06 706.028 923.022 712.068C923.283 712.128 923.452 712.395 923.386 712.655C923.325 712.921 923.058 713.085 922.798 713.018C897.272 707.075 887.253 712.255 887.15 712.31C886.95 712.425 886.708 712.377 886.557 712.219Z" fill="#C2C68E"/>
<path d="M915.499 717.048C915.499 717.042 915.499 717.042 915.499 717.048L909.66 710.572C909.478 710.373 909.496 710.064 909.696 709.882C909.896 709.701 910.205 709.719 910.386 709.919L916.226 716.389C916.408 716.588 916.389 716.897 916.189 717.079C915.99 717.26 915.681 717.242 915.499 717.048Z" fill="#C2C68E"/>
<path d="M898.532 710.022C898.399 709.87 898.363 709.652 898.459 709.459C900.168 706.245 906.576 704.78 906.849 704.72C907.115 704.659 907.376 704.829 907.436 705.089C907.497 705.355 907.327 705.616 907.067 705.676C907.006 705.688 900.828 707.104 899.332 709.919C899.204 710.155 898.908 710.246 898.671 710.125C898.611 710.1 898.568 710.064 898.532 710.022Z" fill="#C2C68E"/>
<path d="M871.752 706.832C871.752 706.832 864.356 708.115 864.798 712.951C865.241 717.787 872.279 724.22 880.305 721.799C888.325 719.378 888.646 708.884 884.116 705.73C879.585 702.577 877.095 702.898 871.752 706.832Z" fill="#331832"/>
<path d="M876.332 711.541C876.332 711.541 881.062 710.227 880.905 707.346C880.747 704.459 880.42 705.01 878.603 707.177C876.786 709.344 874.581 711.28 876.332 711.541Z" fill="#764678"/>
<path d="M875.678 703.624C875.678 703.624 869.081 705.628 868.566 707.861C868.051 710.088 870.565 708.091 871.316 707.855C872.074 707.619 871.068 709.223 872.304 708.805C873.539 708.393 874.181 706.687 874.181 706.687C874.181 706.687 874.878 706.977 875.653 706.971C877.549 706.971 879.803 702.88 875.678 703.624Z" fill="#68A1BF"/>
<path d="M895.328 704.738C895.328 704.738 889.404 700.127 886.115 703.71C882.825 707.287 882.795 716.825 889.985 721.128C897.175 725.431 905.159 718.61 904.45 713.145C903.742 707.668 901.833 706.046 895.328 704.738Z" fill="#4D264E"/>
<path d="M894.916 711.293C894.916 711.293 899.071 713.908 901.101 711.85C903.13 709.792 902.506 709.919 899.677 710.034C896.848 710.149 893.935 709.822 894.916 711.293Z" fill="#764678"/>
<path d="M900.343 705.482C900.343 705.482 894.419 701.954 892.426 703.073C890.433 704.193 893.601 704.708 894.28 705.107C894.958 705.507 893.105 705.839 894.237 706.481C895.376 707.116 897.072 706.445 897.072 706.445C897.072 706.445 897.327 707.153 897.854 707.728C899.126 709.12 903.669 708.03 900.343 705.482Z" fill="#68A1BF"/>
<path d="M881.481 737.717C881.729 736.949 882.547 736.531 883.316 736.773C884.085 737.021 884.503 737.838 884.261 738.607C884.013 739.376 883.195 739.793 882.426 739.551C881.656 739.309 881.238 738.486 881.481 737.717Z" fill="#331832"/>
<path d="M871.662 732.028C871.91 731.26 872.728 730.842 873.497 731.084C874.266 731.332 874.684 732.15 874.442 732.918C874.194 733.687 873.376 734.104 872.607 733.862C871.837 733.62 871.413 732.791 871.662 732.028Z" fill="#331832"/>
<path d="M897.472 731.604C897.72 730.836 898.538 730.418 899.307 730.66C900.077 730.908 900.495 731.725 900.252 732.494C900.004 733.262 899.186 733.68 898.417 733.438C897.648 733.19 897.224 732.373 897.472 731.604Z" fill="#331832"/>
<path d="M923.882 726.799C924.131 726.03 924.948 725.613 925.718 725.855C926.487 726.103 926.905 726.92 926.663 727.689C926.414 728.457 925.596 728.875 924.827 728.633C924.058 728.385 923.64 727.562 923.882 726.799Z" fill="#331832"/>
<path d="M880.172 726.424C880.118 725.74 880.626 725.141 881.311 725.08C881.995 725.026 882.595 725.534 882.656 726.218C882.71 726.902 882.201 727.501 881.517 727.562C880.832 727.622 880.233 727.114 880.172 726.424Z" fill="#DAEBE8"/>
<path d="M900.567 723.712C900.513 723.028 901.022 722.429 901.706 722.368C902.391 722.314 902.99 722.822 903.051 723.506C903.106 724.19 902.597 724.789 901.912 724.85C901.228 724.904 900.628 724.396 900.567 723.712Z" fill="#DAEBE8"/>
<path d="M914.051 725.873C913.997 725.189 914.506 724.59 915.19 724.529C915.875 724.475 916.474 724.983 916.535 725.667C916.589 726.351 916.08 726.95 915.396 727.011C914.711 727.065 914.112 726.557 914.051 725.873Z" fill="#DAEBE8"/>
<path d="M863.545 741.917C863.49 741.233 863.999 740.634 864.683 740.574C865.368 740.513 865.968 741.028 866.028 741.712C866.083 742.395 865.574 742.995 864.889 743.055C864.199 743.116 863.599 742.601 863.545 741.917Z" fill="#DAEBE8"/>
<path d="M931.357 721.963C931.303 721.279 931.811 720.68 932.496 720.62C933.18 720.559 933.78 721.074 933.841 721.757C933.895 722.441 933.386 723.041 932.702 723.101C932.011 723.155 931.412 722.647 931.357 721.963Z" fill="#DAEBE8"/>
<path d="M998.964 769.94C999 770.049 999.043 770.152 999.079 770.261C999.036 770.152 999 770.049 998.964 769.94Z" fill="#764678"/>
<path d="M999.424 771.568C999.424 771.568 999.424 771.574 999.424 771.568C999.37 771.259 999.291 770.956 999.206 770.654C999.285 770.962 999.364 771.265 999.424 771.568Z" fill="#764678"/>
<path d="M784.296 768.863C784.32 768.803 784.344 768.736 784.363 768.675C784.338 768.736 784.32 768.803 784.296 768.863Z" fill="#764678"/>
<path d="M999.557 773.789C999.557 773.795 999.557 773.807 999.557 773.813C999.388 776.651 997.892 779.387 995.251 781.984C994.627 782.601 993.936 783.206 993.185 783.799C985.292 790.057 970.549 795.329 951.54 798.894C951.328 798.936 951.116 798.972 950.904 799.015C949.354 799.299 947.773 799.572 946.168 799.832C935.234 801.623 923.071 802.864 910.12 803.439C909.084 803.481 908.036 803.53 906.982 803.56C906.649 803.578 906.316 803.584 905.983 803.596C901.234 803.754 896.382 803.826 891.457 803.79C879.161 803.718 867.361 803.052 856.355 801.896H856.348C846.317 800.843 836.959 799.366 828.515 797.562C810.979 793.804 797.398 788.587 789.99 782.559C788.633 781.457 787.488 780.331 786.555 779.175C784.817 777.021 783.847 774.787 783.738 772.5C783.738 772.481 783.738 772.469 783.738 772.451C783.738 772.469 783.738 772.487 783.738 772.506C783.726 772.814 783.714 773.135 783.714 773.45C783.52 805.303 831.622 840.582 891.221 840.945C950.832 841.315 999.37 806.629 999.563 774.775C999.563 774.454 999.557 774.14 999.551 773.831C999.557 773.807 999.557 773.795 999.557 773.789Z" fill="#764678"/>
<path d="M783.908 770.242C783.962 769.946 784.047 769.655 784.132 769.365C784.041 769.649 783.962 769.946 783.908 770.242Z" fill="#764678"/>
<path d="M1515.27 552.208C1496.7 594.889 1503.3 674.35 1546.02 692.9C1588.74 711.451 1651.39 662.07 1669.96 619.389C1688.53 576.708 1668.95 527.066 1626.23 508.516C1583.51 489.966 1533.84 509.527 1515.27 552.208Z" fill="#96A7E2"/>
<path d="M1550.83 694.679C1550.83 694.679 1559.36 714.707 1553.32 715.366C1547.29 716.026 1544.6 709.931 1540.08 712.28C1535.56 714.628 1532.26 712.782 1530.48 709.338C1528.69 705.894 1523.73 707.843 1524.5 703.25C1525.27 698.656 1535.76 686.793 1543.55 688.736C1551.32 690.685 1550.83 694.679 1550.83 694.679Z" fill="#96A7E2"/>
<path d="M1634 523.617C1625.32 513.195 1604.61 509.17 1590.26 522.539C1575.91 535.915 1600.84 535.219 1612.78 543.729C1624.71 552.238 1641.94 533.131 1634 523.617Z" fill="#B4C2F0"/>
<path d="M1595.07 774.704C1596.54 765.201 1592.73 757.255 1587.36 751.614C1586.88 752.376 1586.31 753.109 1585.68 753.811C1578.41 761.873 1568.33 765.032 1558.72 762.26C1552.62 760.499 1548.2 756.601 1547.46 752.334C1547.08 750.113 1547.52 746.808 1551.83 743.716C1559.18 738.444 1570.88 739.055 1580.96 745.241C1583.09 746.548 1585.21 748.17 1587.17 750.083C1588.55 747.474 1589.08 744.539 1588.72 741.319C1586.53 721.062 1550.91 695.315 1550.55 695.061L1551.1 694.298C1551.19 694.365 1560.27 700.895 1569.5 709.877C1581.93 721.976 1588.72 732.525 1589.66 741.222C1590.04 744.745 1589.44 747.952 1587.86 750.791C1593.5 756.625 1597.54 764.911 1596 774.861L1595.07 774.704ZM1580.47 746.046C1570.72 740.06 1559.42 739.431 1552.39 744.484C1549.28 746.712 1547.9 749.369 1548.39 752.183C1549.06 756.044 1553.32 759.73 1558.99 761.364C1568.25 764.033 1577.97 760.977 1584.99 753.188C1585.63 752.467 1586.2 751.711 1586.69 750.924C1584.74 748.993 1582.61 747.353 1580.47 746.046Z" fill="#6F4975"/>
<path d="M1538.84 689.002C1538.84 689.002 1556.06 693.36 1554.4 696.519C1552.74 699.679 1551.79 696.943 1546.9 695.733C1542.02 694.516 1531.56 689.232 1538.84 689.002Z" fill="#E28569"/>
</svg>
