<svg width="2000" height="1333" viewBox="0 0 2000 1333" fill="none" xmlns="http://www.w3.org/2000/svg">
<rect width="2000" height="1333" fill="#FFE0F1"/>
<path d="M276.508 1106.04C276.508 1106.04 83.9727 899.318 243.946 675.512C385.888 476.933 551.377 490.51 672.795 571.095C724.507 605.419 872.596 574.689 1000.5 373.266C1182.74 86.2831 1773.72 264.471 1664.05 688.784C1611.03 893.923 1825.14 901.405 1716.09 1106.48L276.508 1106.04Z" fill="#FFE0F1"/>
<path d="M1450.82 1104.57C1449.45 1104.57 1448.27 1103.45 1448.04 1101.92L1434.39 1012.2L1414.76 883.159L1409.27 847.078L1423.25 846.614L1425.67 867.558L1442.71 1014.76L1452.8 1102.01C1452.96 1103.36 1452.03 1104.57 1450.82 1104.57Z" fill="#C69D7F"/>
<path d="M1307.76 847.078L1301.54 887.974V887.981L1284.36 1000.94L1268.99 1101.92C1268.76 1103.45 1267.58 1104.57 1266.21 1104.57C1265 1104.57 1264.07 1103.37 1264.23 1102.02L1277.47 987.544L1291.64 865.096L1293.78 846.62L1307.76 847.078Z" fill="#C69D7F"/>
<path d="M1301.55 887.968C1302.36 870.395 1291.65 865.083 1291.65 865.083L1293.78 846.607L1307.76 847.071L1301.55 887.968Z" fill="#A0795F"/>
<path d="M1425.68 867.558C1416.62 872.197 1414.76 883.159 1414.76 883.159L1409.27 847.078L1423.25 846.614L1425.68 867.558Z" fill="#A0795F"/>
<path d="M1464.97 847.072H1252.07C1248.82 847.072 1246.16 844.412 1246.16 841.161V838.813C1246.16 835.562 1248.82 832.903 1252.07 832.903H1464.97C1468.22 832.903 1470.88 835.562 1470.88 838.813V841.161C1470.88 844.412 1468.22 847.072 1464.97 847.072Z" fill="#C69D7F"/>
<path d="M512.306 748.042C512.306 748.042 580.777 764.629 561.054 835.034C561.054 835.034 493.964 815.565 512.306 748.042Z" fill="#543419"/>
<path d="M517.969 808.134C520.176 806.576 525.177 803.153 525.438 803.916C525.623 804.463 525.355 805.399 524.757 806.366C527.779 805.233 530.852 804.495 538.118 805.888C539.575 806.168 540.892 806.995 541.694 808.242C542.432 809.394 542.712 810.838 540.86 811.99C537.151 814.293 538.226 812.912 533.079 816.272C527.926 819.631 521.621 820.484 517.854 818.129L512.796 817.283L512.166 808.968C512.16 808.968 515.042 808.624 517.969 808.134Z" fill="#FFB27D"/>
<path d="M383.801 736.171C383.801 736.171 397.385 752.509 412.565 746.592C412.565 746.592 415.829 738.69 415.88 732.869C415.886 732.15 415.892 731.456 415.905 730.795C415.988 724.235 416.204 720.558 416.204 720.558C416.204 720.558 416.198 720.558 416.191 720.558C415.498 720.271 392.982 711.027 393.001 711.79C393.389 729.535 383.801 736.171 383.801 736.171Z" fill="#FFB27D"/>
<path d="M395.266 716.034C397.436 720.061 404.886 727.932 415.905 730.807C415.988 724.248 416.204 720.57 416.204 720.57C416.204 720.57 416.198 720.57 416.192 720.57C415.568 720.399 394.617 714.844 395.266 716.034Z" fill="#ED975D"/>
<path d="M420.925 719.889C420.925 719.889 395.603 725.844 392.136 710.015C388.668 694.186 383.07 684.299 399.09 679.826C415.11 675.353 419.583 680.704 422.026 685.705C424.469 690.712 427.421 717.93 420.925 719.889Z" fill="#FFB27D"/>
<path d="M393.001 714.329C392.657 714.552 387.205 716.225 376.892 695.669C375.269 692.443 374.169 685.464 377.942 679.292C381.714 673.127 395.107 668.273 406.228 666.167C417.349 664.054 420.022 670.315 422.643 676.607C425.391 683.211 433.332 688.645 433.332 688.645C423.737 694.002 412.183 686.342 408.181 687.601C404.18 688.861 402.767 695.166 402.468 697.189C402.169 699.212 401.705 700.892 396.672 699.085C391.64 697.278 394.394 706.217 395.202 707.929C395.202 707.929 395.89 712.478 393.001 714.329Z" fill="#A9453D"/>
<path d="M327.769 1109H312.436C309.223 1109 305.647 1105.78 304.756 1099.89C303.859 1093.99 297.255 1090.78 295.824 1085.96C294.392 1081.13 301.721 1074.34 301.721 1074.34L302.943 1072.77L304.216 1071.13L316.361 1073.99C316.361 1073.99 316.66 1076.88 316.851 1080.57C316.978 1083.23 317.055 1086.3 316.902 1089C316.546 1095.43 318.702 1102.36 324.416 1103.6C330.135 1104.85 327.769 1109 327.769 1109Z" fill="#2C3A64"/>
<path d="M434.508 1109H393.866C393.478 1108.92 393.179 1108.84 393.001 1108.75C390.291 1107.39 391.137 1097.01 391.461 1093.79C391.525 1093.2 391.569 1092.85 391.569 1092.85C391.569 1092.85 405.859 1081.42 407.825 1090.17C407.889 1090.45 407.959 1090.71 408.035 1090.98V1090.98C410.516 1099.17 421.606 1102.89 428.013 1103.93C432.918 1104.72 434.184 1107.58 434.508 1109Z" fill="#2C3A64"/>
<path d="M426.32 874.626C426.32 874.626 424.151 901.704 421.599 934.26C418.132 978.478 413.965 1032.79 413.551 1043.08C412.839 1060.95 409.976 1089.52 409.976 1089.52C409.976 1089.52 403.193 1096.31 389.61 1093.45C389.61 1093.45 377.509 1052.65 374.054 1009.48C374.003 1008.77 373.946 1008.06 373.895 1007.35C370.682 963.405 365.681 870.866 365.681 870.866L426.32 874.626Z" fill="#2B478B"/>
<path d="M426.32 874.626C426.32 874.626 424.151 901.704 421.599 934.26L374.054 1009.49C374.003 1008.79 373.946 1008.07 373.895 1007.36C370.682 963.418 365.681 870.879 365.681 870.879L426.32 874.626Z" fill="#233862"/>
<path d="M416.408 877.839C416.408 877.839 377.286 975.914 351.563 1022C325.841 1068.09 317.799 1080.96 317.799 1080.96C317.799 1080.96 303.064 1075.06 301.721 1071.04C301.721 1071.04 311.558 982.066 328.787 960.377C338.521 948.123 349.954 911.343 350.495 898.479C351.029 885.614 353.975 860.159 353.975 860.159L416.408 877.839Z" fill="#2B478B"/>
<path d="M327.19 860.018L326.776 866.324C326.776 866.324 330.937 877.528 319.281 883.279C319.281 883.279 314.293 885.289 314.09 881.408C313.886 877.521 314.529 878.984 314.122 873.513C313.714 868.041 315.865 862.875 319.485 861.132L322.456 857.709L327.19 860.018Z" fill="#FFB27D"/>
<path d="M322.634 864.613C326.967 866 327.661 865.688 327.661 865.688C327.661 865.688 348.739 827.317 350.87 823.805C353.008 820.293 395.616 780.777 395.616 780.777L384.666 739.944C384.666 739.944 336.199 802.708 330.963 811.71C322.316 826.592 317.245 861.158 317.245 861.158C317.245 861.158 319.237 863.518 322.634 864.613Z" fill="#1E3D70"/>
<path d="M434.578 796.81C434.426 805.195 433.942 814.624 433.281 824.199C433.242 824.766 433.198 825.332 433.16 825.904C432.74 831.834 432.282 837.783 431.76 843.579C431.55 845.901 431.327 848.198 431.092 850.456L431.054 850.762C431.035 851.608 430.933 852.524 430.837 853.358C428.7 875.072 426.46 892.231 426.047 892.492C425.55 892.823 424.991 892.988 424.38 892.918C418.685 892.206 401.692 893.497 387.784 890.469C376.046 887.994 365.936 883.298 355.228 876.968C353.809 876.128 350.565 873.901 350.832 872.241C351.093 870.415 351.57 867.768 352.181 864.447C354.293 852.893 357.932 833.024 359.179 809.77C359.421 805.437 359.771 801.161 360.229 796.956C361.425 786 363.334 775.592 365.904 766.347C370.676 749.175 378.571 736.298 387.364 731.151C388.509 730.508 393.803 734.167 399.484 737.806C404.727 741.165 409.403 740.402 414.773 739.937L420.34 746.859C426.059 753.508 432.154 762.364 433.815 774.955C433.942 775.884 434.05 776.87 434.139 777.927C434.598 783.048 434.706 789.538 434.578 796.81Z" fill="#2A4E96"/>
<path d="M434.579 796.81C434.426 805.195 433.942 814.624 433.281 824.199C433.242 824.766 433.198 825.332 433.16 825.904C400.629 805.545 395.616 768.281 395.616 768.281C411.617 768.981 424.335 772.665 434.133 777.926C434.598 783.048 434.706 789.538 434.579 796.81Z" fill="#1E3D70"/>
<path d="M516.773 812.849C517.11 808.026 514.61 807.224 514.61 807.224C514.61 807.224 465.563 798.336 461.395 797.026C457.228 795.715 421.574 758.629 421.574 758.629C421.574 758.629 407.908 743.22 396.717 746.624C386.995 749.582 383.19 757.166 381.899 764.394C380.359 773.002 384.323 781.667 391.786 786.242C408.525 796.51 442.035 816.736 449.924 819.052C467.491 824.199 514.679 819.465 514.679 819.465C514.679 819.465 516.505 816.634 516.773 812.849Z" fill="#2A4E96"/>
<path d="M837.839 237.858C837.8 236.815 836.992 225.592 819.891 225C819.891 225 828.301 226.005 829.752 229.702C829.752 229.702 824.026 225.134 819.363 226.603C814.699 228.073 811.963 236.242 811.931 238.927C811.906 241.612 814.495 250.277 817.454 251.015C818.574 251.295 819.865 251.219 821.036 251.022C820.247 252.25 819.477 253.605 818.739 255.119C811.912 269.129 818.955 282.82 824.732 281.306C828.435 280.339 829.485 286.657 829.485 286.657L865.483 257.518C865.489 257.518 852.268 230.16 837.839 237.858Z" fill="#2C3A64"/>
<path d="M850.372 650.541L842.725 653.391C842.725 653.391 809.514 607.328 805.429 566.807C804.697 559.573 804.939 552.562 806.523 546.091C806.523 546.091 806.199 544.24 805.633 540.957C805.372 539.43 805.047 537.585 804.678 535.479C803.597 529.295 802.114 520.827 800.416 511.188C796.509 489.009 791.445 460.659 787.513 439.816L789.574 439.154L811.868 431.965L816.474 417.332L833.073 412.961C833.073 412.961 836.782 420.214 840.097 454.481C840.708 458.973 841.261 463.929 841.681 469.305C842.973 485.707 843.068 506.06 840.104 529.327C839.34 535.282 838.379 541.434 837.19 547.746C836.318 552.377 836.184 558.689 836.553 565.935C838.214 599.057 850.372 650.541 850.372 650.541Z" fill="#2B478B"/>
<path d="M841.675 469.299L805.633 540.957C805.372 539.43 805.047 537.585 804.678 535.479C803.597 529.295 802.114 520.827 800.416 511.188C796.509 489.009 791.445 460.659 787.513 439.816L789.574 439.154L811.868 431.965L816.474 417.332L833.073 412.961C833.073 412.961 836.782 420.214 840.097 454.481C840.702 458.967 841.255 463.923 841.675 469.299Z" fill="#233862"/>
<path d="M825.814 422.148L824.98 414.99C811.003 418.706 773.65 404.613 773.65 404.613C773.65 404.613 760.111 416.517 761.886 445.052C762.751 458.979 764.342 518.161 765.996 535.676C766.594 542.026 767.116 546.543 767.332 548.343C767.338 548.35 767.338 548.356 767.338 548.362C767.402 548.916 767.211 549.431 766.931 549.915C764.494 554.05 762.477 558.358 760.817 562.767C744.568 606.068 763.317 659.397 763.317 659.397L768.184 657.437C768.184 657.437 778.854 598.09 787.526 571.871C788.995 567.424 790.408 563.931 791.699 561.844C795.472 555.762 798.971 545.818 802.146 533.99C808.146 511.633 812.981 482.551 816.194 460.099C816.646 460.118 825.814 422.148 825.814 422.148Z" fill="#2B478B"/>
<path d="M935.945 413.005C932.935 415.665 924.951 406.522 923.85 405.307C923.793 405.192 923.736 405.135 923.736 405.135L926.166 398.366C926.166 398.366 936.638 397.959 938.375 399.695C940.112 401.432 939.247 410.174 935.945 413.005Z" fill="#FFB27D"/>
<path d="M926.166 398.366L925.123 405.364C925.123 405.364 924.658 405.364 923.85 405.307C921.305 405.135 915.115 404.786 908.11 404.035C897.58 402.991 885.079 401.14 880.103 398.073C872.526 393.442 860.081 379.266 851.982 365.091C851.753 364.748 851.575 364.398 851.403 364.048C847.178 356.528 844.226 349.058 843.997 343.103C843.826 339.458 844.226 336.334 844.977 333.611C845.963 330.022 847.579 327.191 849.259 325.047C849.488 324.697 849.723 324.354 850.067 324.061C852.847 320.765 855.564 319.372 855.564 319.372C856.951 318.793 858.459 319.487 860.018 321.166V321.223C861.29 322.553 862.677 324.576 864.007 327.128C864.064 327.185 864.121 327.242 864.121 327.299C864.414 327.821 864.7 328.4 865.05 329.036C865.165 329.151 865.222 329.329 865.279 329.443C865.915 330.773 866.552 332.16 867.188 333.611C874.307 349.116 881.885 372.611 888.19 379.61C890.906 382.619 903.351 388.524 913.244 392.92C920.383 396.056 926.166 398.366 926.166 398.366Z" fill="#FFB27D"/>
<path d="M852.523 335.36C848.133 337.396 842.833 338.783 836.426 339.133C812.396 340.45 806.937 319.384 805.945 305.4C809.412 304.146 812.44 304.261 814.19 304.356C815.895 304.452 817.67 304.624 819.14 304.808C822.079 303.275 827.36 295.812 830.414 283.335L831.451 283.819L848.794 291.969C848.794 291.969 846.956 297.612 845.594 303.014C844.532 307.239 843.768 311.323 844.411 312.462C845.779 313.015 846.593 313.365 846.593 313.365C846.593 313.365 846.593 313.372 846.599 313.384C846.765 313.823 850.538 323.43 852.523 335.36Z" fill="#FFB27D"/>
<path d="M848.788 291.969C848.788 291.969 846.943 297.606 845.588 303.014C835.453 300.183 832.373 289.533 831.444 283.819L848.788 291.969Z" fill="#ED985F"/>
<path d="M850.926 297.937C850.926 297.937 826.673 292.325 830.401 277.279C834.129 262.232 833.506 251.372 849.151 254.317C864.789 257.263 866.367 263.746 866.342 269.071C866.323 274.397 857.326 299.006 850.926 297.937Z" fill="#FFB27D"/>
<path d="M867.709 260.527C865.101 255.074 862.034 255.361 860.113 256.328C848.718 245.786 837.54 254.4 837.54 254.4C833.239 264.79 823.912 269.04 823.912 269.04C823.912 269.04 827.64 272.857 838.437 272.768C841.732 272.742 845.053 271.228 848.069 269.141C842.248 275.001 835.427 278.57 835.427 278.57C848.941 275.981 858.007 260.336 858.936 258.676C860.081 260.368 862.27 263.969 862.454 267.004C862.702 271.133 861.284 279.156 863.65 279.461C863.65 279.467 871.616 268.709 867.709 260.527Z" fill="#2C3A64"/>
<path d="M867.264 333.591C866.392 330.97 860.552 320.784 860.552 320.784C860.526 320.758 856.843 317.38 846.587 313.359C846.587 313.359 846.587 313.365 846.593 313.378C846.758 313.976 851.129 329.825 849.532 333.209C847.91 336.651 817.193 325.543 815.513 323.011C814.171 320.975 814.133 310.222 814.171 306.03C814.177 304.986 814.19 304.35 814.19 304.35C814.19 304.35 802.725 302.798 796.274 305.406C796.274 305.406 798.819 310.935 799.76 317.036C799.849 317.615 799.919 318.201 799.977 318.78C800.104 320.008 800.142 321.242 800.072 322.438C799.977 324.022 799.162 325.428 797.858 326.803C796.675 328.062 795.059 329.303 793.239 330.633C792.049 331.492 790.764 332.401 789.441 333.381C789.326 340.564 789.835 352.373 788.505 364.97C788.168 368.164 787.106 371.224 785.433 373.934C784.771 375.016 784.007 376.04 783.161 376.995C776.385 384.591 764.38 399.733 767.02 409.162C767.211 418.05 842.19 429.731 840.587 419.965C840.587 419.965 851.855 365.663 857.943 352.557C858.16 352.073 858.363 351.609 858.541 351.125C860.495 345.953 860.164 340.634 859.502 335.869C862.931 333.432 867.264 333.591 867.264 333.591Z" fill="#F99746"/>
<path d="M820.393 401.725C805.607 401.566 793.08 386.214 785.426 373.941C787.099 371.231 788.162 368.171 788.499 364.977C789.829 352.373 789.32 340.565 789.434 333.388C790.758 332.408 792.037 331.505 793.233 330.64C795.059 329.31 796.668 328.069 797.852 326.81C809.959 347.271 840.441 401.935 820.393 401.725Z" fill="#ED7D2B"/>
<path d="M791.617 663.374H753.106C753.106 663.374 752.183 657.508 754.194 653.054C756.122 648.779 759.137 646.838 758.418 641.672C760.868 644.191 764.851 647.016 770.424 646.265C771.105 647.372 774.827 653.289 777.104 654.924C779.624 656.731 790.84 656.089 791.617 663.374Z" fill="#233862"/>
<path d="M874.301 663.374H835.79C835.79 663.374 834.352 657.234 836.878 653.054C839.117 649.357 838.259 647.245 836.598 644.191C838.341 644.904 840.6 645.553 843.081 645.413C845.003 645.305 847.032 644.433 848.807 643.396C850.461 645.286 857.562 653.328 859.782 654.924C862.308 656.731 873.531 656.089 874.301 663.374Z" fill="#233862"/>
<path d="M910.031 389.509L908.39 389.102C913.741 378.274 923.341 370.085 931.237 365.854C938.146 362.145 943.872 360.485 945.927 359.944C946.43 359.81 946.964 359.937 947.352 360.275L948.873 361.579C949.624 362.222 949.356 363.449 948.396 363.71C941.079 365.733 918.118 373.165 910.031 389.509Z" fill="#FFB93E"/>
<path d="M881.318 396.12C886.287 375.971 897.994 378.859 912.436 382.416C926.879 385.979 938.585 388.867 933.616 409.016C930.053 423.459 915.458 432.277 901.016 428.714C886.574 425.158 877.755 410.562 881.318 396.12Z" fill="#ED7D2B"/>
<path d="M893.362 395.426C889.061 404.079 889.099 413.762 892.662 421.982C886.822 415.563 884.175 406.439 886.408 397.373C890.028 382.701 897.218 380.239 906.443 381.372C901.786 383.007 897.447 387.212 893.362 395.426Z" fill="#F99746"/>
<path d="M876.292 409.767L874.269 417.172C874.269 417.172 871.724 416.708 867.671 415.957C866.456 415.728 865.763 415.55 865.763 415.55C862.524 414.914 858.643 414.048 854.419 413.12H854.361C847.128 411.383 839.028 409.302 832.202 406.986C827.398 405.307 823.231 403.513 820.4 401.718C820.113 401.547 819.878 401.368 819.592 401.139C812.822 396.221 804.78 381.754 798.533 366.249C797.667 364.111 796.853 361.967 796.045 359.886C793.15 352.131 790.841 344.496 789.447 337.898C788.582 333.967 788.003 330.378 787.882 327.426C787.825 326.383 787.768 325.403 787.825 324.474C787.939 307.697 796.274 305.381 796.274 305.381C796.446 305.324 796.624 305.266 796.853 305.209C798.297 304.98 799.805 305.96 801.364 307.869C803.33 310.242 805.416 314.116 807.554 318.805C810.85 326.268 814.324 335.932 817.562 345.54C819.356 350.807 821.093 356.069 822.83 360.93C823.816 363.882 824.796 366.656 825.725 369.207C827.519 374.068 829.141 378 830.586 380.487C831.515 382.11 834.174 384.362 837.705 386.907C843.838 391.361 852.809 396.743 860.616 401.139C863.854 402.991 866.921 404.671 869.466 406.057C873.569 408.322 876.292 409.767 876.292 409.767Z" fill="#FFB27D"/>
<path d="M807.529 318.831C796.388 315.758 787.799 324.455 787.799 324.455C787.939 307.703 796.28 305.406 796.28 305.406C799.633 304.019 803.521 309.834 807.529 318.831Z" fill="#F99746"/>
<path d="M876.292 409.767C876.292 409.767 879.925 409.85 881.98 408.59C884.035 407.336 889.857 405.625 892.484 405.905C892.484 405.905 893.458 406.306 893.114 407.216C892.771 408.125 888.489 408.87 888.489 410.581C888.489 410.581 893.852 410.409 895.455 409.722C897.052 409.035 903.217 410.613 904.414 411.319C905.616 412.032 896.594 417.459 892.599 419.654C888.603 421.849 874.269 417.16 874.269 417.16L876.292 409.767Z" fill="#FFB27D"/>
<path d="M1653.72 1072.14C1653.72 1072.14 1660.98 1078.76 1659.56 1083.46C1658.15 1088.16 1651.6 1091.3 1650.71 1097.04C1649.83 1102.79 1646.29 1105.93 1643.11 1105.93C1639.93 1105.93 1627.94 1105.93 1627.94 1105.93C1627.94 1105.93 1625.6 1101.89 1631.25 1100.67C1636.91 1099.44 1639.05 1092.69 1638.69 1086.43C1638.33 1080.16 1639.22 1071.8 1639.22 1071.8L1651.24 1069.01L1653.72 1072.14Z" fill="#233862"/>
<path d="M1564.77 1089.26C1564.77 1089.26 1566.06 1104.32 1562.88 1105.88L1522.15 1105.8C1522.15 1105.8 1522.15 1101.1 1528.69 1100.05C1535.23 1099.01 1546.73 1095.18 1548.68 1086.65C1550.62 1078.11 1564.77 1089.26 1564.77 1089.26Z" fill="#233862"/>
<path d="M1530.37 876.535C1530.37 876.535 1532.52 902.932 1535.05 934.661C1538.48 977.765 1542.61 1030.71 1543.01 1040.74C1543.72 1058.15 1546.55 1086.01 1546.55 1086.01C1546.55 1086.01 1553.27 1092.63 1566.71 1089.84C1566.71 1089.84 1578.69 1050.07 1582.12 1007.99C1582.17 1007.31 1582.22 1006.61 1582.28 1005.91C1585.46 963.075 1590.41 872.877 1590.41 872.877L1530.37 876.535Z" fill="#2B478B"/>
<path d="M1530.37 876.535C1530.37 876.535 1532.52 902.932 1535.05 934.661L1582.12 1007.99C1582.17 1007.31 1582.22 1006.61 1582.28 1005.91C1585.46 963.075 1590.41 872.877 1590.41 872.877L1530.37 876.535Z" fill="#233862"/>
<path d="M1540.19 879.666C1540.19 879.666 1578.92 975.265 1604.38 1020.19C1629.85 1065.11 1637.81 1077.65 1637.81 1077.65C1637.81 1077.65 1652.39 1071.91 1653.72 1067.99C1653.72 1067.99 1643.98 981.258 1626.93 960.117C1617.29 948.168 1605.97 912.317 1605.45 899.783C1604.92 887.243 1602 862.43 1602 862.43L1540.19 879.666Z" fill="#2B478B"/>
<path d="M1591.14 732.346C1591.14 732.346 1564.94 744.988 1549.83 740.299C1549.83 740.299 1553.55 735.61 1560.06 732.117C1559.54 729.083 1559.13 726.455 1558.89 724.222C1558.26 719.075 1558.26 716.154 1558.26 716.154L1568.37 708.202L1577.96 700.592C1577.2 721.989 1591.14 732.346 1591.14 732.346Z" fill="#FFB27D"/>
<path d="M1604.95 867.329C1605.01 868.932 1601.58 870.765 1600.07 871.452C1588.85 876.37 1578.4 879.805 1566.55 880.95C1552.54 882.382 1535.98 879.233 1530.29 879.347C1529.7 879.347 1529.18 879.118 1528.72 878.717C1528.31 878.431 1528.02 861.552 1528.31 840.327C1528.31 839.468 1528.31 838.61 1528.37 837.751V837.464C1528.48 829.168 1528.78 820.471 1529.18 811.773C1530 792.661 1531.5 774.242 1534.06 764.056C1537.14 752.044 1544.11 744.092 1550.45 738.308L1555.67 733.734C1560.9 734.765 1566.42 734.478 1571.94 731.787C1577.99 728.867 1584.5 725.724 1585.54 726.525C1593.44 732.302 1598.79 745.294 1601.64 761.881C1603.26 771.437 1604.08 782.132 1604.02 793.348C1604.02 797.465 1603.9 801.702 1603.67 805.876C1602.27 828.532 1603.67 848.21 1604.48 859.599C1604.72 862.92 1604.89 865.496 1604.95 867.329Z" fill="#EE9849"/>
<path d="M1604.49 859.605C1477.53 859.433 1581.07 766.404 1581.07 766.404L1601.64 761.887C1603.27 771.443 1604.09 782.138 1604.02 793.355C1604.02 797.471 1603.91 801.708 1603.67 805.882C1602.28 828.538 1603.68 848.216 1604.49 859.605Z" fill="#E58638"/>
<path d="M1578.13 708.775C1578.13 708.775 1571.5 720.844 1558.89 724.222C1558.26 719.075 1558.26 716.155 1558.26 716.155L1568.37 708.202L1578.13 708.775Z" fill="#ED985F"/>
<path d="M1553.65 715.805C1553.65 715.805 1578.64 719.896 1580.99 704.525C1583.34 689.16 1588.14 679.337 1572.28 676.073C1556.42 672.809 1552.42 678.217 1550.36 683.16C1548.32 688.104 1547.21 714.342 1553.65 715.805Z" fill="#FFB27D"/>
<path d="M1590.08 674.234C1590.3 673.973 1590.83 673.763 1591.99 673.699C1591.99 673.699 1591.06 673.12 1589.81 673.089C1589.57 671.466 1588.71 668.603 1585.92 667.903C1585.92 667.903 1587.42 668.699 1587.61 670.423C1584.38 667.108 1577.47 664.69 1558.31 666.205C1533.06 668.196 1541.38 684.362 1544.65 686.29C1547.92 688.218 1556.15 682.937 1562.23 683.421C1568.32 683.904 1569.48 692.703 1571.55 693.912C1573.62 695.121 1572.8 692.983 1575.6 691.724C1578.39 690.458 1578.66 695.089 1577.85 698.105C1577.05 701.114 1580.89 705.091 1580.89 705.091C1580.89 705.091 1580.89 705.091 1584.77 700.911C1588.65 696.731 1592.31 679.025 1590.55 675.252C1590.39 674.914 1590.23 674.577 1590.08 674.234Z" fill="#2C3A64"/>
<path d="M1469.59 780.566L1663.78 868.544C1666.18 869.632 1667.24 872.469 1666.16 874.868C1665.07 877.266 1662.24 878.335 1659.83 877.247L1465.65 789.27C1463.25 788.182 1462.18 785.344 1463.27 782.946C1463.82 781.743 1464.79 780.878 1465.94 780.452C1467.09 780.025 1468.39 780.025 1469.59 780.566Z" fill="#EDC39D"/>
<path d="M1474.37 782.729L1482.24 786.292L1483.31 797.274L1475.45 793.711L1474.37 782.729Z" fill="#E58638"/>
<path d="M1502.12 795.308L1509.99 798.871L1511.06 809.846L1503.21 806.283L1502.12 795.308Z" fill="#E58638"/>
<path d="M1529.88 807.88L1530.96 818.861L1538.82 822.418L1537.74 811.443L1529.88 807.88Z" fill="#E58638"/>
<path d="M1557.63 820.452L1565.49 824.015L1566.57 834.996L1558.72 831.433L1557.63 820.452Z" fill="#E58638"/>
<path d="M1585.38 833.03L1593.24 836.593L1594.33 847.568L1586.47 844.005L1585.38 833.03Z" fill="#E58638"/>
<path d="M1613.14 845.602L1621 849.165L1622.08 860.14L1614.22 856.583L1613.14 845.602Z" fill="#E58638"/>
<path d="M1640.89 858.174L1648.75 861.737L1649.83 872.718L1641.97 869.155L1640.89 858.174Z" fill="#E58638"/>
<path d="M1463.28 782.946C1463.28 782.946 1458.77 783.582 1456.33 779.657C1456.33 779.657 1459.43 778.588 1463.28 782.946Z" fill="#E58638"/>
<path d="M1479.89 751.536L1658.32 868.207C1660.53 869.651 1661.14 872.616 1659.7 874.817C1658.26 877.019 1655.3 877.649 1653.09 876.198L1474.67 759.527C1472.46 758.082 1471.85 755.118 1473.28 752.916C1474.01 751.809 1475.1 751.109 1476.31 750.855C1477.49 750.613 1478.78 750.817 1479.89 751.536Z" fill="#EDC39D"/>
<path d="M1484.27 754.405L1491.5 759.132L1490.88 770.145L1483.66 765.418L1484.27 754.405Z" fill="#543419"/>
<path d="M1509.78 771.081L1517 775.801L1516.38 786.821L1509.16 782.094L1509.78 771.081Z" fill="#543419"/>
<path d="M1535.28 787.756L1534.67 798.769L1541.89 803.49L1542.5 792.477L1535.28 787.756Z" fill="#543419"/>
<path d="M1560.78 804.432L1568 809.152L1567.39 820.166L1560.17 815.445L1560.78 804.432Z" fill="#543419"/>
<path d="M1586.28 821.107L1593.5 825.828L1592.89 836.841L1585.67 832.12L1586.28 821.107Z" fill="#543419"/>
<path d="M1611.78 837.776L1619 842.504L1618.39 853.517L1611.17 848.796L1611.78 837.776Z" fill="#543419"/>
<path d="M1637.28 854.452L1644.5 859.179L1643.89 870.192L1636.67 865.471L1637.28 854.452Z" fill="#543419"/>
<path d="M1473.27 752.923C1473.27 752.923 1468.72 752.866 1466.91 748.609C1466.91 748.609 1470.15 748.024 1473.27 752.923Z" fill="#E58638"/>
<path d="M1462.54 799.132L1659.93 879.665C1662.38 880.664 1663.55 883.457 1662.55 885.894C1661.56 888.331 1658.77 889.508 1656.33 888.515L1458.94 807.982C1456.5 806.989 1455.32 804.196 1456.32 801.753C1456.81 800.531 1457.76 799.634 1458.89 799.157C1460.01 798.68 1461.32 798.629 1462.54 799.132Z" fill="#EDC39D"/>
<path d="M1467.4 801.11L1475.39 804.374L1476.88 815.298L1468.89 812.041L1467.4 801.11Z" fill="#2B478B"/>
<path d="M1495.61 812.62L1503.6 815.883L1505.09 826.814L1497.1 823.55L1495.61 812.62Z" fill="#2B478B"/>
<path d="M1523.82 824.129L1525.32 835.06L1533.31 838.317L1531.81 827.393L1523.82 824.129Z" fill="#2B478B"/>
<path d="M1552.03 835.638L1560.02 838.902L1561.52 849.832L1553.53 846.569L1552.03 835.638Z" fill="#2B478B"/>
<path d="M1580.24 847.148L1588.23 850.412L1589.73 861.342L1581.74 858.078L1580.24 847.148Z" fill="#2B478B"/>
<path d="M1608.45 858.657L1616.45 861.921L1617.94 872.851L1609.95 869.588L1608.45 858.657Z" fill="#2B478B"/>
<path d="M1636.66 870.167L1644.66 873.43L1646.15 884.361L1638.16 881.097L1636.66 870.167Z" fill="#2B478B"/>
<path d="M1456.32 801.753C1456.32 801.753 1451.84 802.561 1449.25 798.731C1449.25 798.724 1452.31 797.541 1456.32 801.753Z" fill="#E58638"/>
<path d="M1554.85 841.123C1554.85 841.123 1550.58 839.513 1549.54 838.317C1548.49 837.121 1546.72 837.77 1546.99 839.252C1547.26 840.735 1548.62 841.982 1550.91 842.503C1553.2 843.025 1554.85 841.123 1554.85 841.123Z" fill="#FFB27D"/>
<path d="M1560.14 839.252L1554.85 841.123C1554.85 841.123 1550.13 836.447 1534.98 847.218C1534.98 847.218 1530.61 850.062 1536 851.334C1539.6 852.187 1541.11 850.965 1546.21 852.085C1551.3 853.205 1556.49 851.869 1558.67 848.694L1562.33 846.359L1560.14 839.252Z" fill="#FFB27D"/>
<path d="M1569.8 760.455C1573.81 773.791 1581.63 795.74 1593.5 812.301C1593.5 812.301 1607.84 829.976 1613.14 827.73C1617.74 825.777 1611.4 730.374 1582.01 738.13C1572.36 740.669 1566.92 750.905 1569.8 760.455Z" fill="#EE9849"/>
<path d="M1593.5 812.296C1593.5 812.296 1572.88 831.707 1557.18 840.296C1557.18 840.296 1552.71 850.228 1560.4 852.467C1560.4 852.467 1609.93 833.775 1613.14 827.718C1616.35 821.667 1610.21 804.795 1593.5 812.296Z" fill="#EE9849"/>
<path d="M1341 977.899V1049.17C1341 1052.78 1338.03 1055.74 1334.42 1055.74H553.381C549.761 1055.74 546.803 1052.78 546.803 1049.17V969.38C546.803 955.624 549.341 942.429 553.998 930.252C554.374 929.266 554.756 928.298 555.169 927.325C557.078 922.693 559.305 918.221 561.818 913.92L561.824 913.907C581.038 880.976 616.781 858.727 657.455 858.727H1221.82C1256.61 858.727 1288.04 873.831 1309.87 897.81C1315.77 904.268 1320.95 911.368 1325.32 918.99C1325.32 918.997 1325.32 918.997 1325.32 918.997C1326.87 921.707 1328.33 924.481 1329.66 927.325C1336.93 942.696 1341 959.849 1341 977.899Z" fill="#D3A47D"/>
<path d="M1341 977.899V990.534H546.803V969.38C546.803 955.624 549.341 942.429 553.998 930.252C554.374 929.266 554.756 928.298 555.169 927.325C557.078 922.693 559.305 918.221 561.818 913.92L561.824 913.907C581.038 880.976 616.781 858.727 657.455 858.727H1221.82C1256.61 858.727 1288.04 873.831 1309.87 897.81C1315.77 904.268 1320.95 911.368 1325.32 918.99C1325.32 918.997 1325.32 918.997 1325.32 918.997C1326.87 921.707 1328.33 924.481 1329.66 927.325C1336.93 942.696 1341 959.849 1341 977.899Z" fill="#E2B691"/>
<path d="M1329.66 927.325H555.169C557.078 922.693 559.305 918.221 561.818 913.92L561.824 913.907C581.038 880.976 616.781 858.727 657.455 858.727H1221.82C1256.61 858.727 1288.04 873.831 1309.87 897.81C1315.77 904.268 1320.95 911.368 1325.32 918.99C1325.32 918.997 1325.32 918.997 1325.32 918.997C1326.87 921.707 1328.32 924.481 1329.66 927.325Z" fill="#EDC39D"/>
<path d="M1208.43 758.979V853.357C1208.43 856.309 1206.02 858.727 1203.06 858.727H684.737C681.785 858.727 679.367 856.309 679.367 853.357V752.025C679.367 734.478 684.444 718.064 693.192 704.162C709.206 678.719 737.556 661.719 769.673 661.719H1111.16C1135.2 661.719 1157.28 670.556 1174.29 685.158C1195.16 703.023 1208.43 729.528 1208.43 758.979Z" fill="#D3A47D"/>
<path d="M1084.55 574.817V660.23C1084.55 662.114 1083.02 663.653 1081.13 663.653H806.676C804.793 663.653 803.253 662.107 803.253 660.23V570.376C803.253 538.673 829.186 512.74 860.889 512.74H1022.48C1056.62 512.74 1084.55 540.677 1084.55 574.817Z" fill="#D8A987"/>
<path d="M1208.43 758.979V803.802H679.367V752.019C679.367 742.005 681.021 732.353 684.075 723.332C686.359 716.549 689.438 710.123 693.192 704.156C709.206 678.713 737.556 661.713 769.673 661.713H1111.16C1135.2 661.713 1157.28 670.55 1174.29 685.151C1186.25 695.395 1195.72 708.482 1201.61 723.338C1206.02 734.389 1208.43 746.414 1208.43 758.979Z" fill="#E2B691"/>
<path d="M1201.62 723.338H684.081C686.365 716.556 689.445 710.13 693.199 704.162C709.212 678.719 737.563 661.719 769.679 661.719H1111.16C1135.2 661.719 1157.28 670.556 1174.3 685.158C1186.26 695.395 1195.73 708.482 1201.62 723.338Z" fill="#EDC39D"/>
<path d="M1174.3 685.151C1164.81 685.412 1152.98 699.403 1141.01 699.091C1127.6 698.741 1120.19 682.498 1108.54 683.211C1096.89 683.917 1095.49 694.739 1099.02 704.626C1102.55 714.507 1105.19 735.63 1088.42 733.689C1072.3 731.819 1082.25 707.566 1081.72 691.686C1081.14 674.52 1052.42 669.093 1031.95 684.98C1011.48 700.86 972.827 704.149 962.062 687.098C957.825 680.393 942.644 677.211 933.826 681.799C925.002 686.392 933.095 728.218 934.151 739.161C935.207 750.104 914.237 750.46 912.646 742.342C910.973 733.797 921.941 681.805 911.59 680.634C901.239 679.457 896.416 684.719 897.237 688.396C897.994 691.781 901.531 700.955 895.124 701.573C889.64 702.101 886.096 699.276 887.763 695.172C888.8 692.627 893.706 682.511 881.236 679.807C868.766 677.103 860.526 683.453 859.114 686.742C857.708 690.038 863.116 703.927 860.297 707.451C857.472 710.982 848.355 710.982 846.179 705.333C844.907 702.037 856.296 685.571 844.767 681.092C833.232 676.62 819.35 684.623 809.705 692.392C800.053 700.16 783.823 703.927 770.411 696.629C756.999 689.332 746.171 696.629 742.175 701.337C738.174 706.045 743.346 719.457 742.175 724C740.998 728.536 719.825 730.985 726.645 714.513C733.472 698.041 723.464 693.454 723.464 693.454C711.764 689.096 698.626 699.276 693.218 704.175C709.231 678.732 737.582 661.732 769.705 661.732H1111.19C1135.2 661.713 1157.28 670.556 1174.3 685.151Z" fill="#543419"/>
<path d="M1084.55 574.817V623.247H803.247V570.376C803.247 569.931 803.253 569.492 803.266 569.053C803.979 537.954 829.625 512.74 860.883 512.74H1022.47C1054.67 512.74 1081.35 537.585 1084.27 569.053C1084.46 570.949 1084.55 572.876 1084.55 574.817Z" fill="#E5BC9C"/>
<path d="M1084.28 569.053H803.272C803.985 537.954 829.631 512.74 860.889 512.74H1022.48C1054.68 512.74 1081.35 537.585 1084.28 569.053Z" fill="#F2CCAD"/>
<path d="M795.988 634.094L794.734 633.783C798.819 625.518 806.148 619.27 812.173 616.038C817.448 613.207 821.818 611.941 823.39 611.527C823.772 611.425 824.179 611.527 824.478 611.782L825.642 612.781C826.215 613.277 826.011 614.206 825.28 614.409C819.681 615.949 802.159 621.618 795.988 634.094Z" fill="#543419"/>
<path d="M774.076 639.139C777.868 623.762 786.807 625.963 797.826 628.68C808.852 631.396 817.785 633.604 813.993 648.982C811.276 660.008 800.136 666.739 789.11 664.016C778.084 661.299 771.353 650.159 774.076 639.139Z" fill="#ED7D2B"/>
<path d="M783.269 638.612C779.986 645.216 780.018 652.602 782.735 658.882C778.275 653.983 776.258 647.016 777.963 640.1C780.725 628.903 786.215 627.019 793.252 627.885C789.695 629.132 786.387 632.345 783.269 638.612Z" fill="#F99746"/>
<path d="M1172.1 575.822C1172.1 575.822 1089.15 606.075 1129.26 666.917C1129.26 666.917 1190.45 643.345 1172.1 575.822Z" fill="#543419"/>
<path d="M1069.26 619.538L1070.83 620.53C1075.34 608.085 1074.55 594.267 1071.92 584.806C1069.62 576.522 1066.59 570.72 1065.46 568.69C1065.19 568.194 1064.68 567.87 1064.11 567.812L1061.92 567.596C1060.84 567.488 1060.08 568.633 1060.59 569.587C1064.56 576.917 1076.09 600.743 1069.26 619.538Z" fill="#543419"/>
<path d="M1035.57 625.104C1041.02 603.008 1053.86 606.176 1069.69 610.083C1085.53 613.989 1098.37 617.158 1092.91 639.254C1089.01 655.089 1073.01 664.76 1057.17 660.854C1041.34 656.941 1031.67 640.94 1035.57 625.104Z" fill="#ED7D2B"/>
<path d="M1048.78 624.341C1044.06 633.833 1044.1 644.446 1048.01 653.461C1041.6 646.424 1038.7 636.416 1041.16 626.479C1045.13 610.388 1053.01 607.684 1063.12 608.931C1058.01 610.732 1053.25 615.345 1048.78 624.341Z" fill="#F99746"/>
<path d="M1071.65 633.547C1071.65 633.547 1084.08 686.647 1124.35 666.529C1124.35 666.529 1114.41 627.28 1071.65 633.547Z" fill="#543419"/>
<path d="M599.501 781.19C599.501 781.19 682.453 811.443 642.339 872.279C642.332 872.285 581.153 848.713 599.501 781.19Z" fill="#599DAD"/>
<path d="M594.622 840.142C594.622 840.142 646.716 827.106 647.25 871.426C647.25 871.432 608.396 880.409 594.622 840.142Z" fill="#6BB7BF"/>
<path d="M704.543 823.226L706.343 822.78C700.477 810.908 689.948 801.931 681.295 797.287C673.717 793.221 667.438 791.395 665.186 790.81C664.638 790.664 664.053 790.804 663.621 791.173L661.954 792.604C661.126 793.31 661.425 794.653 662.475 794.939C670.504 797.153 695.68 805.303 704.543 823.226Z" fill="#543419"/>
<path d="M736.029 830.473C730.577 808.376 717.744 811.545 701.909 815.451C686.073 819.358 673.234 822.526 678.686 844.622C682.593 860.458 698.594 870.129 714.436 866.222C730.265 862.309 739.936 846.308 736.029 830.473Z" fill="#ED7D2B"/>
<path d="M722.822 829.709C727.542 839.201 727.498 849.814 723.591 858.829C729.998 851.792 732.899 841.785 730.45 831.847C726.48 815.757 718.597 813.059 708.481 814.3C713.59 816.1 718.343 820.706 722.822 829.709Z" fill="#F99746"/>
<path d="M699.949 838.915C699.949 838.915 687.517 892.015 647.25 871.897C647.25 871.897 657.188 832.648 699.949 838.915Z" fill="#543419"/>
<path d="M908.364 512.74C908.364 512.74 885.549 462.23 828.569 467.161C828.569 467.161 849.424 488.507 857.472 497.038C876.069 516.755 908.364 512.74 908.364 512.74Z" fill="#599DAD"/>
<path d="M972.369 512.74C972.369 512.74 990.94 459.227 1047.92 464.158C1047.92 464.158 1032.58 489.906 1023.27 497.032C1013.95 504.157 972.369 512.74 972.369 512.74Z" fill="#599DAD"/>
<path d="M920.955 483.824C921.63 479.351 915.255 458.877 925.199 448.195C935.143 437.513 945.189 430.215 945.189 430.215C945.189 430.215 949.465 451.669 948.39 456.791C945.8 469.102 920.955 483.824 920.955 483.824Z" fill="#599DAD"/>
<path d="M912.144 476.011L913.651 475.642C908.733 465.698 899.922 458.177 892.669 454.29C886.325 450.886 881.064 449.359 879.174 448.863C878.716 448.742 878.226 448.857 877.864 449.169L876.464 450.365C875.77 450.956 876.019 452.082 876.897 452.324C883.634 454.176 904.719 460.996 912.144 476.011Z" fill="#FFB93E"/>
<path d="M938.509 482.08C933.947 463.572 923.195 466.225 909.929 469.496C896.664 472.766 885.912 475.419 890.48 493.927C893.75 507.186 907.155 515.291 920.414 512.015C933.68 508.744 941.779 495.339 938.509 482.08Z" fill="#ED7D2B"/>
<path d="M927.451 481.437C931.402 489.384 931.364 498.272 928.094 505.824C933.457 499.926 935.888 491.547 933.833 483.225C930.511 469.75 923.907 467.491 915.439 468.528C919.715 470.043 923.697 473.905 927.451 481.437Z" fill="#F99746"/>
<path d="M972.528 511.874C972.528 511.874 965.218 479.134 929.061 477.677C929.054 477.677 936.365 514.292 972.528 511.874Z" fill="#543419"/>
<path d="M975.658 476.011L974.15 475.642C979.062 465.698 987.88 458.177 995.133 454.29C1001.48 450.886 1006.74 449.359 1008.63 448.863C1009.09 448.742 1009.58 448.857 1009.94 449.169L1011.34 450.365C1012.02 450.956 1011.78 452.082 1010.91 452.324C1004.17 454.176 983.083 460.996 975.658 476.011Z" fill="#FFB93E"/>
<path d="M949.293 482.08C953.855 463.572 964.607 466.225 977.872 469.496C991.138 472.766 1001.89 475.419 997.322 493.927C994.051 507.186 980.646 515.291 967.387 512.015C954.128 508.738 946.023 495.339 949.293 482.08Z" fill="#ED7D2B"/>
<path d="M960.357 481.437C956.406 489.384 956.444 498.272 959.714 505.824C954.351 499.926 951.921 491.547 953.976 483.225C957.297 469.75 963.901 467.491 972.369 468.528C968.087 470.043 964.104 473.905 960.357 481.437Z" fill="#F99746"/>
<path d="M846.071 516.806C846.071 516.806 859.928 504.978 878.557 507.44C897.186 509.909 906.278 512.346 917.182 509.082C928.087 505.824 942.886 507.249 955.133 509.629C967.381 512.008 1023.3 498.59 1048.8 518.632C1048.8 518.632 1022.55 514.013 1018.54 519.49C1014.52 524.968 1028.13 542.363 1020 544.691C1015.21 546.066 1008.86 546.517 1010.14 536.293C1011.42 526.063 1005.76 517.938 1000.65 518.67C995.534 519.401 1003.19 529.04 1000.09 533.239C996.984 537.438 986.226 534.098 988.599 527.889C990.972 521.679 992.798 517.295 983.668 516.386C974.538 515.469 959.377 521.132 959.924 528.073C960.471 535.014 966.134 547.796 960.109 548.89C954.084 549.985 948.968 548.159 951.711 537.566C954.453 526.972 949.7 515.832 941.117 516.195C932.535 516.557 911.348 530.803 897.835 525.325C884.321 519.847 879.734 513.612 875.191 517.105C871.928 519.618 877.202 533.449 872.131 533.653C867.862 533.825 865.145 532.807 866.609 525.318C868.059 517.855 857.072 511.499 846.071 516.806Z" fill="#543419"/>
<path d="M765.786 663.659C765.786 663.659 773.821 638.853 761.04 631.066C748.258 623.278 725.977 617.431 725.977 617.431C725.977 617.431 734.013 640.074 742.411 646.653C750.809 653.225 765.786 663.659 765.786 663.659Z" fill="#543419"/>
<path d="M763.502 662.909C763.502 662.909 743.683 648.848 731.996 648.664C720.308 648.479 711.726 658.163 711.726 658.163C711.726 658.163 724.692 666.745 730.354 665.282C736.017 663.819 758.202 659.461 763.502 662.909Z" fill="#543419"/>
<path d="M765.786 663.66C765.786 663.66 769.896 647.111 787.704 647.569C787.697 647.563 787.15 660.211 765.786 663.66Z" fill="#543419"/>
<path d="M1359.73 939.96C1359.73 939.96 1380.17 1026.49 1306.78 1026.39C1306.78 1026.39 1292.77 961.872 1359.73 939.96Z" fill="#86D1CD"/>
<path d="M1379.59 1021.66C1379.59 1021.66 1356.67 1088.71 1307.2 1057.51C1307.2 1057.51 1325.12 1008.04 1379.59 1021.66Z" fill="#599DAD"/>
<path d="M1273.4 1035.24C1273.4 1035.24 1283.32 1005.08 1267.53 995.605C1251.72 986.138 1224.18 979.031 1224.18 979.031C1224.18 979.031 1234.12 1006.57 1244.5 1014.56C1254.89 1022.56 1273.4 1035.24 1273.4 1035.24Z" fill="#543419"/>
<path d="M1305.56 1064.57C1305.56 1064.57 1278.18 1032.69 1258.63 1027.5C1239.09 1022.31 1220.64 1034.97 1220.64 1034.97C1220.64 1034.97 1238.81 1054.79 1248.93 1054.7C1259.05 1054.61 1298.11 1056.57 1305.56 1064.57Z" fill="#543419"/>
<path d="M1304.87 1004.27L1307.2 1003.69C1299.58 988.269 1285.9 976.601 1274.65 970.563C1264.8 965.282 1256.65 962.909 1253.71 962.146C1253 961.961 1252.24 962.139 1251.68 962.623L1249.51 964.481C1248.44 965.403 1248.82 967.146 1250.18 967.515C1260.64 970.391 1293.35 980.978 1304.87 1004.27Z" fill="#543419"/>
<path d="M1345.78 1013.68C1338.7 984.967 1322.01 989.084 1301.44 994.161C1280.86 999.238 1264.18 1003.35 1271.26 1032.06C1276.34 1052.64 1297.13 1065.2 1317.71 1060.13C1338.29 1055.05 1350.85 1034.26 1345.78 1013.68Z" fill="#ED7D2B"/>
<path d="M1328.62 1012.69C1334.75 1025.02 1334.69 1038.82 1329.62 1050.53C1337.94 1041.38 1341.71 1028.38 1338.52 1015.47C1333.36 994.562 1323.12 991.05 1309.98 992.666C1316.62 995.007 1322.8 1001 1328.62 1012.69Z" fill="#F99746"/>
<path d="M1309.87 897.81C1294.38 891.824 1273.86 919.143 1253.05 918.59C1232.23 918.043 1220.72 892.842 1202.64 893.936C1184.56 895.03 1182.37 911.833 1187.85 927.172C1193.32 942.512 1197.43 975.297 1171.41 972.281C1146.38 969.38 1161.82 931.734 1161 907.08C1160.11 880.435 1115.53 872.018 1083.75 896.672C1051.97 921.325 991.99 926.428 975.27 899.961C968.698 889.552 945.138 884.621 931.44 891.741C917.742 898.867 930.302 963.787 931.943 980.775C933.584 997.762 901.029 998.309 898.567 985.705C895.971 972.44 912.99 891.741 896.925 889.915C880.854 888.083 873.366 896.258 874.644 901.971C875.821 907.233 881.312 921.465 871.355 922.426C862.849 923.247 857.339 918.863 859.935 912.495C861.544 908.55 869.16 892.842 849.806 888.649C830.452 884.456 817.664 894.305 815.469 899.414C813.28 904.529 821.678 926.078 817.301 931.562C812.918 937.04 798.762 937.04 795.383 928.273C793.411 923.158 811.085 897.588 793.195 890.647C775.297 883.705 753.748 896.125 738.765 908.181C723.789 920.238 698.588 926.078 677.77 914.753C656.953 903.428 640.144 914.753 633.94 922.057C627.731 929.367 635.766 950.185 633.94 957.234C632.114 964.277 599.241 968.082 609.834 942.518C620.427 916.948 604.903 909.822 604.903 909.822C581.573 901.138 554.533 929.692 554.018 930.245C556.174 924.57 558.802 919.111 561.83 913.92L561.843 913.901C581.057 880.97 616.794 858.721 657.475 858.721H1221.85C1256.61 858.727 1288.04 873.831 1309.87 897.81Z" fill="#543419"/>
<path d="M1440.16 1104.74H447.64C446.234 1104.74 445.076 1103.59 445.076 1102.17V1098.85C445.076 1075.14 464.481 1055.73 488.193 1055.73H1396.28C1421.83 1055.73 1442.73 1076.63 1442.73 1102.17C1442.73 1103.59 1441.57 1104.74 1440.16 1104.74Z" fill="#543419"/>
<path d="M1210.01 633.363L1204.8 634.355C1204.8 634.355 1195.05 632.046 1191.47 642.334C1191.47 642.334 1190.3 646.692 1193.56 646.463C1196.81 646.234 1195.53 645.852 1200.13 645.629C1204.72 645.407 1208.8 643.084 1209.88 639.897L1212.42 637.072L1210.01 633.363Z" fill="#FFB27D"/>
<path d="M1206.65 637.626C1205.05 634.165 1205.24 633.554 1205.24 633.554C1205.24 633.554 1235.01 612.068 1237.71 609.931C1240.42 607.793 1268.93 568.271 1268.93 568.271L1304.03 573.189C1304.03 573.189 1256.78 619.97 1249.82 625.251C1238.32 633.98 1210.08 641.748 1210.08 641.748C1210.08 641.748 1207.91 640.342 1206.65 637.626Z" fill="#233862"/>
<path d="M1213.85 626.173L1212.12 626.828C1210.22 613.722 1213.79 600.355 1218.28 591.62C1222.22 583.972 1226.35 578.908 1227.88 577.145C1228.25 576.719 1228.81 576.496 1229.37 576.56L1231.56 576.795C1232.64 576.91 1233.16 578.182 1232.46 579.016C1227.09 585.385 1210.98 606.38 1213.85 626.173Z" fill="#FFB93E"/>
<path d="M1192.03 650C1183.98 628.712 1196.35 624.035 1211.61 618.265C1226.87 612.494 1239.23 607.818 1247.28 629.106C1253.05 644.363 1245.36 661.407 1230.1 667.178C1214.84 672.949 1197.8 665.257 1192.03 650Z" fill="#ED7D2B"/>
<path d="M1202.48 641.875C1203.97 652.366 1210.04 661.083 1218.37 666.287C1209.1 664.124 1201.03 657.533 1197.42 647.957C1191.56 632.459 1196.51 625.759 1205.55 621.045C1202.36 625.429 1201.05 631.924 1202.48 641.875Z" fill="#F99746"/>
<path d="M1382.92 808.643C1382.92 808.643 1388.42 813.739 1387.35 817.36C1386.28 820.98 1381.31 823.397 1380.64 827.819C1379.97 832.247 1377.29 834.659 1374.88 834.659C1372.47 834.659 1363.37 834.659 1363.37 834.659C1363.37 834.659 1361.59 831.547 1365.88 830.606C1370.17 829.671 1371.79 824.466 1371.53 819.637C1371.26 814.808 1371.93 808.37 1371.93 808.37L1381.04 806.226L1382.92 808.643Z" fill="#2C3A64"/>
<path d="M1314.39 834.474C1314.26 834.544 1314.04 834.608 1313.74 834.665H1283.23C1283.48 833.596 1284.43 831.452 1288.1 830.854C1292.91 830.078 1301.24 827.285 1303.1 821.133C1303.16 820.935 1303.21 820.732 1303.26 820.528C1304.73 813.956 1315.46 822.545 1315.46 822.545C1315.46 822.545 1315.49 822.806 1315.54 823.251C1315.79 825.656 1316.43 833.456 1314.39 834.474Z" fill="#2C3A64"/>
<path d="M1289.38 658.71C1289.38 658.71 1291.01 679.038 1292.93 703.475C1295.53 736.673 1298.66 777.449 1298.97 785.173C1299.5 798.585 1301.65 820.045 1301.65 820.045C1301.65 820.045 1306.75 825.141 1316.94 822.99C1316.94 822.99 1326.03 792.362 1328.62 759.953C1328.66 759.425 1328.71 758.884 1328.75 758.35C1331.16 725.361 1334.91 655.892 1334.91 655.892L1289.38 658.71Z" fill="#F1A34F"/>
<path opacity="0.4" d="M1289.38 658.71C1289.38 658.71 1291.01 679.038 1292.93 703.475L1328.62 759.953C1328.66 759.425 1328.7 758.884 1328.74 758.35C1331.15 725.361 1334.9 655.892 1334.9 655.892L1289.38 658.71Z" fill="#D86713"/>
<path d="M1296.83 661.128C1296.83 661.128 1326.19 734.752 1345.51 769.35C1364.82 803.948 1370.86 813.606 1370.86 813.606C1370.86 813.606 1381.92 809.178 1382.93 806.162C1382.93 806.162 1375.54 739.365 1362.61 723.084C1355.3 713.884 1346.72 686.271 1346.32 676.613C1345.92 666.956 1343.7 647.85 1343.7 647.85L1296.83 661.128Z" fill="#F1A34F"/>
<path d="M1283.88 545.219C1283.88 545.219 1271.9 566.304 1260.19 569.052C1260.19 569.052 1260.68 561.971 1263.53 557.123C1262.36 555.742 1261.33 554.483 1260.45 553.35C1257.49 549.571 1256.09 547.261 1256.09 547.261L1260.07 536.573L1262.77 529.32C1264.07 531.674 1265.49 533.678 1266.99 535.396C1274.66 544.22 1283.88 545.219 1283.88 545.219Z" fill="#FFB27D"/>
<path d="M1266.99 535.397C1266.99 535.397 1268.42 545.964 1260.45 553.351C1257.5 549.572 1256.1 547.262 1256.1 547.262L1260.08 536.574C1264.33 535.276 1266.99 535.397 1266.99 535.397Z" fill="#ED975D"/>
<path d="M1252.94 548.82C1252.94 548.82 1270.84 541.841 1266.33 530.758C1261.81 519.675 1261.08 511.308 1249.45 515.298C1237.83 519.287 1237.34 524.415 1237.96 528.48C1238.56 532.546 1248.17 550.347 1252.94 548.82Z" fill="#FFB27D"/>
<path d="M1345.43 653.416C1338.21 663.8 1284.2 677.676 1284.85 670.486C1285.09 667.738 1285.42 662.884 1284.84 656.311C1284.71 654.772 1284.51 653.143 1284.27 651.412C1282.89 641.964 1279.63 629.825 1272.37 615.765C1271.82 614.708 1271.26 613.652 1270.67 612.577C1267.68 607.137 1265.13 601.379 1263.18 595.755C1259.44 584.946 1257.93 574.601 1259.82 567.838C1259.83 567.806 1259.84 567.774 1259.85 567.742C1271.14 562.525 1275.52 542.28 1275.52 542.28C1275.52 542.28 1314.03 549.196 1335.6 600.527C1335.59 600.521 1351.71 644.376 1345.43 653.416Z" fill="#2B478B"/>
<path d="M1284.84 656.305C1284.71 654.765 1284.51 653.136 1284.27 651.406C1282.89 641.958 1279.63 629.818 1272.37 615.758C1273.62 608.193 1275.34 601.901 1277.23 599.07C1284.91 587.56 1289.38 585.76 1289.38 585.76C1289.38 585.76 1300.9 634.342 1284.84 656.305Z" fill="#233862"/>
<path d="M1268.9 510.17C1269.02 509.922 1269.39 509.661 1270.28 509.387C1270.28 509.387 1269.44 509.107 1268.48 509.324C1267.97 508.096 1266.75 506.009 1264.46 505.99C1264.46 505.99 1265.78 506.333 1266.26 507.65C1263.12 505.659 1257.3 505.08 1242.77 509.922C1223.62 516.303 1233.18 527.418 1236.09 528.309C1238.99 529.199 1244.33 523.48 1249.14 522.697C1253.94 521.915 1256.55 528.614 1258.38 529.168C1260.21 529.721 1259.17 528.2 1261.09 526.674C1263.01 525.147 1264.11 528.735 1264.07 531.261C1264.02 533.78 1267.76 536.172 1267.76 536.172C1267.76 536.172 1267.76 536.172 1269.96 532.145C1272.15 528.118 1271.55 513.51 1269.46 510.876C1269.27 510.641 1269.09 510.405 1268.9 510.17Z" fill="#2B478B"/>
<path d="M1222.07 645.336C1222.07 645.336 1215.35 644.986 1213.86 645.336C1212.37 645.686 1207.48 648.746 1207.48 649.185C1207.48 649.624 1207.79 649.929 1208.7 649.84C1209.62 649.751 1212.54 648.879 1212.42 649.274C1212.29 649.668 1203.96 652.773 1204.14 654.523C1204.33 656.272 1209.57 658.722 1213.59 658.283C1217.62 657.844 1224.79 652.143 1225.36 651.762C1225.92 651.367 1222.07 645.336 1222.07 645.336Z" fill="#FFB27D"/>
<path d="M1222.12 648.791C1219.98 645.342 1221.52 643.771 1221.52 643.771C1221.52 643.771 1254.43 618.004 1257.01 615.401C1259.59 612.799 1271.54 571.349 1271.54 571.349C1271.54 571.349 1275.65 554.572 1285.28 552.727C1293.65 551.117 1299.44 555.259 1303.23 560.113C1307.74 565.897 1308.18 573.875 1304.44 580.186C1296.03 594.342 1279.08 622.451 1274.13 627.254C1263.11 637.943 1226.26 652.875 1226.26 652.875C1226.26 652.875 1223.8 651.501 1222.12 648.791Z" fill="#2B478B"/>
<path d="M1247.48 543.508C1247.48 543.508 1248.38 545.137 1251.55 543.915C1251.55 543.915 1254.21 542.891 1253.47 541.027C1253.48 541.027 1250.36 540.461 1247.48 543.508Z" fill="white"/>
<path d="M974.838 621.255C968.8 618.22 963.85 607.118 964.372 605.133C964.435 604.904 964.715 604.281 965.167 603.364L993.886 591.212C993.886 591.212 990.807 573.258 981.62 570.809C981.353 567.309 979.514 559.719 968.494 559.719C968.494 559.719 972.833 560.896 975.079 563.25C975.079 563.25 965.943 557.887 956.005 566.126C946.061 574.365 952.239 595.036 949.217 598.955C946.195 602.881 934.418 603.663 935.862 616.35C937.3 629.036 973.228 644.929 970.918 655.427C970.918 655.427 984.088 636.067 975.843 626.256C977.287 627.885 979.972 631.409 980.335 635.405C980.328 635.411 981.664 624.684 974.838 621.255ZM974.92 625.295C974.92 625.295 975.003 625.378 975.149 625.524C975.079 625.448 975.003 625.372 974.92 625.295Z" fill="#2C3A64"/>
<path d="M968.634 632.847C966.427 622.209 952.633 618.914 946.112 627.598C944.941 629.157 944.114 631.008 943.847 633.184C942.358 645.26 961.661 694.427 964.422 698.881C969.455 706.986 999.09 734.771 999.09 734.771L1004.55 731.462C1004.55 731.462 983.528 695.878 980.277 692.544C976.511 688.695 972.827 653.041 968.634 632.847Z" fill="#ED985F"/>
<path d="M941.41 849.718L934.291 848.675C934.291 848.675 910.35 829.645 906.78 794.144C906.418 790.53 906.341 786.865 906.608 783.169C906.64 782.742 906.596 782.316 906.36 781.96C906.36 781.96 906.36 781.953 906.354 781.947C905.59 780.77 903.682 777.831 901.099 773.644C898.554 769.522 894.196 761.728 889.405 752.98C880.771 737.227 870.719 718.382 867.271 712.382C856.283 693.257 861.583 680.392 861.583 680.392C861.583 680.392 892.23 677.364 900.628 670.016L903.65 674.679C903.65 674.679 910.292 704.073 909.974 704.213C910.299 705.212 910.636 706.23 910.973 707.267C916.215 723.44 922.241 743.653 925.53 760.118C927.375 769.382 928.355 777.455 927.827 782.952C927.648 784.836 927.865 787.737 928.367 791.319C931.332 812.403 941.41 849.718 941.41 849.718Z" fill="#BC3F3F"/>
<path d="M956.342 858.727H926.631C926.631 858.727 925.918 854.197 927.47 850.761C928.959 847.466 931.078 847.358 927.738 842.191C929.627 844.138 935.697 844.94 939.991 844.361C940.519 845.213 943.382 850.94 945.145 852.199C947.085 853.599 955.744 853.103 956.342 858.727Z" fill="#233862"/>
<path d="M910.967 707.254C908.371 721.569 902.244 745.39 889.398 752.967C880.765 737.214 870.712 718.369 867.264 712.369C856.276 693.244 861.576 680.38 861.576 680.38C861.576 680.38 892.223 677.351 900.621 670.003L903.644 674.666C903.644 674.666 910.286 704.06 909.968 704.2C910.299 705.199 910.629 706.217 910.967 707.254Z" fill="#A53D38"/>
<path d="M890.13 682.593L890.232 677.039C879.162 678.439 852.058 663.812 852.058 663.812C852.058 663.812 840.473 671.517 838.888 693.517C838.112 704.257 833.22 749.665 832.679 763.229C832.482 768.141 832.418 771.653 832.393 773.052C832.393 773.059 832.393 773.065 832.393 773.065C832.386 773.491 832.183 773.873 831.922 774.21C829.631 777.124 827.646 780.203 825.922 783.404C809.03 814.833 817.861 857.543 817.861 857.543L821.787 856.544C821.787 856.544 836.07 812.269 845.403 793.119C846.988 789.874 848.425 787.342 849.634 785.879C853.146 781.616 856.843 774.376 860.495 765.659C867.391 749.187 874.085 727.447 878.863 710.619C879.206 710.677 890.13 682.593 890.13 682.593Z" fill="#BC3F3F"/>
<path d="M1020.75 713.756L1018.81 713.279C1025.14 700.466 1036.51 690.769 1045.85 685.756C1054.04 681.366 1060.81 679.4 1063.25 678.764C1063.84 678.611 1064.47 678.757 1064.94 679.158L1066.74 680.704C1067.63 681.468 1067.31 682.918 1066.18 683.23C1057.5 685.603 1030.32 694.402 1020.75 713.756Z" fill="#543419"/>
<path d="M986.754 721.569C992.639 697.717 1006.5 701.133 1023.59 705.352C1040.69 709.57 1054.55 712.986 1048.67 736.839C1044.45 753.934 1027.17 764.374 1010.07 760.156C992.976 755.944 982.536 738.671 986.754 721.569Z" fill="#ED7D2B"/>
<path d="M1001.01 720.755C995.916 730.998 995.967 742.456 1000.18 752.191C993.269 744.594 990.139 733.791 992.785 723.058C997.067 705.689 1005.58 702.775 1016.5 704.117C1010.98 706.058 1005.85 711.033 1001.01 720.755Z" fill="#F99746"/>
<path d="M954.917 645.508C936.816 641.354 948.383 615.924 949.433 616.369C951.94 615.86 957.449 611.457 962.374 602.855L963.042 603.434L974.157 613.181C974.157 613.181 971.586 616.973 969.423 620.683C967.737 623.59 966.299 626.453 966.528 627.433C967.419 628.146 959.746 646.622 954.917 645.508Z" fill="#FFB27D"/>
<path d="M974.15 613.188C974.15 613.188 971.58 616.973 969.417 620.689C962.507 616.426 962.501 607.875 963.029 603.441L974.15 613.188Z" fill="#ED985F"/>
<path d="M974.462 618.068C974.462 618.068 957.678 608.735 963.659 598.37C969.633 588.013 971.491 579.824 982.459 585.353C993.428 590.876 993.212 596.023 992.054 599.961C990.902 603.906 978.979 620.225 974.462 618.068Z" fill="#FFB27D"/>
<path d="M994.885 593.917C994.115 589.317 991.78 588.878 990.151 589.183C983.955 578.934 973.832 582.935 973.832 582.935C968.424 589.724 960.605 590.882 960.605 590.882C960.605 590.882 962.552 594.508 970.575 596.748C973.024 597.435 975.805 597.015 978.489 596.112C972.922 599.217 967.101 600.406 967.101 600.406C977.675 601.373 987.734 591.709 988.777 590.672C989.267 592.167 990.12 595.304 989.611 597.6C988.917 600.718 986.15 606.361 987.836 607.087C987.836 607.087 996.043 600.813 994.885 593.917Z" fill="#2C3A64"/>
<path d="M841.497 858.727H811.785C811.785 858.727 811.073 854.197 812.625 850.761C814.114 847.466 816.442 845.964 815.882 841.981C817.772 843.922 820.845 846.104 825.139 845.525C825.668 846.378 828.537 850.946 830.293 852.206C832.24 853.599 840.899 853.103 841.497 858.727Z" fill="#233862"/>
<path d="M971.574 635.85C970.346 632.51 968.195 629.526 966.796 627.802C966.777 626.689 966.745 626.046 966.745 626.046C966.745 626.046 967.674 623.889 960.599 618.265C949.999 609.841 945.787 611.623 945.787 611.623C945.787 611.623 886.854 623.336 852.052 663.812C852.052 663.812 857.734 685.451 909.465 687.805C909.465 687.805 917.539 679.305 919.365 673.801C919.683 672.828 920.72 672.071 922.26 671.46C926.484 669.774 934.552 669.195 942.364 668.336C947.855 667.738 953.219 667.013 957.042 665.677C962.291 663.844 964.753 655.096 965.886 646.284C969.78 640.985 971.574 635.85 971.574 635.85Z" fill="#2B478B"/>
<path d="M942.371 668.33C934.558 669.182 926.491 669.767 922.266 671.453C920.542 645.654 932.713 626.25 932.713 626.25C932.713 626.25 940.659 658.57 942.371 668.33Z" fill="#233862"/>
<path d="M950.413 621.255C950.413 621.255 930.836 623.19 929.264 635.914C927.693 648.639 948.033 700.453 950.947 705.142C956.247 713.687 987.479 742.966 987.479 742.966L993.237 739.479C993.237 739.479 971.09 701.98 967.654 698.474C962.266 692.958 957.042 625.664 950.413 621.255Z" fill="#FFB27D"/>
<path d="M929.824 643.561C929.875 643.848 947.893 649.446 959.492 643.561C959.492 643.561 961.973 616.808 948.129 618.259C934.284 619.709 926.09 624.074 925.74 630.697C925.39 637.333 929.824 643.561 929.824 643.561Z" fill="#2B478B"/>
<path d="M993.231 739.473C993.231 739.473 998.613 742.234 1000.52 742.457C1002.42 742.679 1004.99 746.153 1004.99 746.713C1004.99 747.273 1000.85 744.696 1000.62 745.479C1000.4 746.261 1003.09 749.398 1004.99 749.735C1006.9 750.072 1011.27 751.307 1011.16 751.866C1011.05 752.426 1001.45 757.58 997.004 755.003C992.556 752.426 987.473 742.959 987.473 742.959L993.231 739.473Z" fill="#FFB27D"/>
<path d="M630.32 871.668C630.32 868.143 633.177 865.293 636.695 865.293C640.214 865.293 643.07 868.15 643.07 871.668C643.07 875.193 640.214 878.043 636.695 878.043C633.171 878.049 630.32 875.193 630.32 871.668Z" fill="#ED7D2B"/>
<path d="M636.104 868.837C636.104 867.73 637.001 866.839 638.101 866.839C639.208 866.839 640.105 867.736 640.105 868.837C640.105 869.944 639.208 870.841 638.101 870.841C637.001 870.841 636.104 869.944 636.104 868.837Z" fill="#FFB37B"/>
<path d="M674.468 867.831C674.468 865.56 676.313 863.715 678.585 863.715C680.856 863.715 682.701 865.56 682.701 867.831C682.701 870.103 680.856 871.948 678.585 871.948C676.313 871.948 674.468 870.103 674.468 867.831Z" fill="#ED7D2B"/>
<path d="M678.203 866.005C678.203 865.293 678.782 864.714 679.494 864.714C680.207 864.714 680.786 865.293 680.786 866.005C680.786 866.718 680.207 867.297 679.494 867.297C678.782 867.297 678.203 866.718 678.203 866.005Z" fill="#FFB37B"/>
<path d="M656.813 855.044C656.813 851.85 654.223 849.26 651.029 849.26C647.836 849.26 645.246 851.85 645.246 855.044C645.246 858.237 647.836 860.82 651.029 860.82C654.223 860.82 656.813 858.231 656.813 855.044Z" fill="#ED7D2B"/>
<path d="M651.57 852.472C651.57 851.467 650.756 850.659 649.757 850.659C648.752 850.659 647.944 851.474 647.944 852.472C647.944 853.471 648.758 854.286 649.757 854.286C650.756 854.286 651.57 853.478 651.57 852.472Z" fill="#FFB37B"/>
<path d="M492.92 972.905C492.92 972.905 575.872 1003.16 535.758 1064C535.758 1064 474.578 1040.43 492.92 972.905Z" fill="#543419"/>
<path d="M596.759 1014.94L598.56 1014.5C592.694 1002.62 582.164 993.646 573.511 989.001C565.934 984.936 559.654 983.11 557.396 982.525C556.849 982.385 556.263 982.518 555.831 982.887L554.164 984.319C553.337 985.025 553.636 986.367 554.685 986.654C562.721 988.868 587.897 997.011 596.759 1014.94Z" fill="#543419"/>
<path d="M629.449 1022.18C623.996 1000.08 611.163 1003.25 595.321 1007.16C579.486 1011.07 566.647 1014.23 572.099 1036.33C576.005 1052.17 592.007 1061.84 607.842 1057.93C623.684 1054.02 633.355 1038.02 629.449 1022.18Z" fill="#ED7D2B"/>
<path d="M616.24 1021.42C620.961 1030.92 620.917 1041.53 617.01 1050.54C623.417 1043.51 626.318 1033.5 623.862 1023.56C619.892 1007.47 612.01 1004.77 601.9 1006.01C607.009 1007.81 611.768 1012.42 616.24 1021.42Z" fill="#F99746"/>
<path d="M593.368 1030.63C593.368 1030.63 580.936 1083.73 540.669 1063.62C540.669 1063.61 550.614 1024.36 593.368 1030.63Z" fill="#543419"/>
<path d="M767.128 972.905C767.128 972.905 850.08 1003.16 809.965 1064C809.965 1064 748.779 1040.43 767.128 972.905Z" fill="#543419"/>
<path d="M867.576 1030.63C867.576 1030.63 855.144 1083.73 814.877 1063.62C814.877 1063.61 824.821 1024.36 867.576 1030.63Z" fill="#543419"/>
<path d="M536.286 1064.82C537.098 1061.39 534.979 1057.96 531.553 1057.15C528.128 1056.33 524.692 1058.45 523.88 1061.88C523.068 1065.3 525.186 1068.74 528.612 1069.55C532.038 1070.36 535.473 1068.25 536.286 1064.82Z" fill="#ED7D2B"/>
<path d="M529.523 1060.55C529.523 1059.44 530.42 1058.55 531.527 1058.55C532.634 1058.55 533.531 1059.44 533.531 1060.55C533.531 1061.66 532.634 1062.56 531.527 1062.56C530.42 1062.55 529.523 1061.66 529.523 1060.55Z" fill="#FFB37B"/>
<path d="M567.887 1059.55C567.887 1057.27 569.732 1055.43 572.004 1055.43C574.275 1055.43 576.12 1057.27 576.12 1059.55C576.12 1061.82 574.275 1063.66 572.004 1063.66C569.732 1063.66 567.887 1061.82 567.887 1059.55Z" fill="#ED7D2B"/>
<path d="M571.622 1057.72C571.622 1057.01 572.201 1056.43 572.913 1056.43C573.626 1056.43 574.205 1057.01 574.205 1057.72C574.205 1058.43 573.626 1059.01 572.913 1059.01C572.201 1059.01 571.622 1058.43 571.622 1057.72Z" fill="#FFB37B"/>
<path d="M550.232 1046.75C550.232 1043.56 547.643 1040.97 544.455 1040.97C541.261 1040.97 538.672 1043.56 538.672 1046.75C538.672 1049.94 541.261 1052.53 544.455 1052.53C547.649 1052.53 550.232 1049.94 550.232 1046.75Z" fill="#ED7D2B"/>
<path d="M544.989 1044.19C544.989 1043.19 544.175 1042.37 543.176 1042.37C542.171 1042.37 541.363 1043.19 541.363 1044.19C541.363 1045.19 542.177 1046 543.176 1046C544.181 1046 544.989 1045.19 544.989 1044.19Z" fill="#FFB37B"/>
<path d="M788.849 1055.73C788.849 1052.21 791.706 1049.36 795.224 1049.36C798.742 1049.36 801.599 1052.22 801.599 1055.73C801.599 1059.26 798.742 1062.11 795.224 1062.11C791.706 1062.11 788.849 1059.26 788.849 1055.73Z" fill="#ED7D2B"/>
<path d="M796.63 1054.91C797.737 1054.91 798.634 1054.01 798.634 1052.9C798.634 1051.8 797.737 1050.9 796.63 1050.9C795.523 1050.9 794.626 1051.8 794.626 1052.9C794.626 1054.01 795.523 1054.91 796.63 1054.91Z" fill="#FFB37B"/>
<path d="M834.88 1066.8C834.88 1063.61 832.291 1061.02 829.097 1061.02C825.903 1061.02 823.313 1063.61 823.313 1066.8C823.313 1069.99 825.903 1072.58 829.097 1072.58C832.291 1072.58 834.88 1069.99 834.88 1066.8Z" fill="#ED7D2B"/>
<path d="M829.638 1064.23C829.638 1063.23 828.823 1062.42 827.824 1062.42C826.825 1062.42 826.011 1063.23 826.011 1064.23C826.011 1065.23 826.825 1066.04 827.824 1066.04C828.823 1066.04 829.638 1065.23 829.638 1064.23Z" fill="#FFB37B"/>
<path d="M1060.33 1055.33C1060.33 1052.25 1062.83 1049.76 1065.9 1049.76C1068.97 1049.76 1071.47 1052.25 1071.47 1055.33C1071.47 1058.4 1068.97 1060.89 1065.9 1060.89C1062.82 1060.89 1060.33 1058.4 1060.33 1055.33Z" fill="#ED7D2B"/>
<path d="M1065.38 1052.86C1065.38 1051.89 1066.16 1051.12 1067.12 1051.12C1068.08 1051.12 1068.87 1051.9 1068.87 1052.86C1068.87 1053.83 1068.09 1054.61 1067.12 1054.61C1066.16 1054.61 1065.38 1053.82 1065.38 1052.86Z" fill="#FFB37B"/>
<path d="M1131.93 1055.74C1131.93 1053.6 1130.19 1051.85 1128.04 1051.85C1125.9 1051.85 1124.15 1053.59 1124.15 1055.74C1124.15 1057.89 1125.89 1059.63 1128.04 1059.63C1130.19 1059.62 1131.93 1057.89 1131.93 1055.74Z" fill="#ED7D2B"/>
<path d="M1128.41 1054.01C1128.41 1053.34 1127.86 1052.79 1127.19 1052.79C1126.51 1052.79 1125.97 1053.34 1125.97 1054.01C1125.97 1054.69 1126.51 1055.23 1127.19 1055.23C1127.86 1055.23 1128.41 1054.69 1128.41 1054.01Z" fill="#FFB37B"/>
<path d="M1082.65 1063.51C1082.65 1061.37 1080.91 1059.62 1078.76 1059.62C1076.61 1059.62 1074.87 1061.36 1074.87 1063.51C1074.87 1065.65 1076.61 1067.4 1078.76 1067.4C1080.9 1067.4 1082.65 1065.65 1082.65 1063.51Z" fill="#ED7D2B"/>
<path d="M1079.12 1061.79C1079.12 1061.11 1078.57 1060.56 1077.9 1060.56C1077.23 1060.56 1076.68 1061.11 1076.68 1061.79C1076.68 1062.46 1077.23 1063.01 1077.9 1063.01C1078.57 1063.01 1079.12 1062.46 1079.12 1061.79Z" fill="#FFB37B"/>
<path d="M742.583 674.597C742.583 672.37 744.389 670.569 746.61 670.569C748.837 670.569 750.644 672.376 750.644 674.597C750.644 676.823 748.837 678.63 746.61 678.63C744.383 678.63 742.583 676.823 742.583 674.597Z" fill="#ED7D2B"/>
<path d="M746.234 672.809C746.234 672.109 746.801 671.543 747.501 671.543C748.201 671.543 748.767 672.109 748.767 672.809C748.767 673.509 748.201 674.075 747.501 674.075C746.801 674.075 746.234 673.509 746.234 672.809Z" fill="#FFB37B"/>
<path d="M793.398 670.607C794.416 668.412 797.025 667.458 799.22 668.482C801.415 669.5 802.369 672.109 801.351 674.304C800.333 676.499 797.725 677.453 795.53 676.435C793.335 675.411 792.38 672.802 793.398 670.607Z" fill="#599DAD"/>
<path d="M796.967 670.506C796.967 669.749 797.584 669.131 798.341 669.131C799.099 669.131 799.716 669.749 799.716 670.506C799.716 671.263 799.099 671.88 798.341 671.88C797.584 671.88 796.967 671.269 796.967 670.506Z" fill="#89CFDB"/>
<path d="M724.501 671.912C725.602 669.545 728.407 668.521 730.774 669.615C733.141 670.716 734.172 673.522 733.071 675.888C731.97 678.255 729.158 679.279 726.798 678.185C724.425 677.091 723.4 674.279 724.501 671.912Z" fill="#599DAD"/>
<path d="M728.344 671.803C728.344 670.982 729.005 670.321 729.826 670.321C730.647 670.321 731.308 670.982 731.308 671.803C731.308 672.624 730.647 673.286 729.826 673.286C729.005 673.292 728.344 672.624 728.344 671.803Z" fill="#89CFDB"/>
<path d="M771.531 664.983C771.531 661.897 769.031 659.397 765.945 659.397C762.859 659.397 760.359 661.897 760.359 664.983C760.359 668.069 762.859 670.569 765.945 670.569C769.031 670.569 771.531 668.069 771.531 664.983Z" fill="#ED7D2B"/>
<path d="M766.46 662.502C766.46 661.535 765.678 660.752 764.711 660.752C763.743 660.752 762.961 661.535 762.961 662.502C762.961 663.469 763.743 664.251 764.711 664.251C765.678 664.251 766.46 663.475 766.46 662.502Z" fill="#FFB37B"/>
<path d="M1086.41 665.747C1089.01 665.747 1091.12 663.639 1091.12 661.039C1091.12 658.438 1089.01 656.331 1086.41 656.331C1083.81 656.331 1081.7 658.438 1081.7 661.039C1081.7 663.639 1083.81 665.747 1086.41 665.747Z" fill="#ED7D2B"/>
<path d="M1085.97 658.945C1085.97 658.131 1086.64 657.469 1087.45 657.469C1088.26 657.469 1088.93 658.131 1088.93 658.945C1088.93 659.76 1088.26 660.421 1087.45 660.421C1086.64 660.421 1085.97 659.76 1085.97 658.945Z" fill="#FFB37B"/>
<path d="M1029.53 659.429C1029.53 656.776 1031.68 654.632 1034.33 654.632C1036.98 654.632 1039.13 656.782 1039.13 659.429C1039.13 662.082 1036.98 664.232 1034.33 664.232C1031.68 664.232 1029.53 662.082 1029.53 659.429Z" fill="#ED7D2B"/>
<path d="M1033.89 657.297C1033.89 656.464 1034.56 655.79 1035.39 655.79C1036.23 655.79 1036.9 656.464 1036.9 657.297C1036.9 658.131 1036.23 658.805 1035.39 658.805C1034.56 658.805 1033.89 658.131 1033.89 657.297Z" fill="#FFB37B"/>
<path d="M1096.93 671.148C1097.96 668.934 1100.59 667.973 1102.8 669.004C1105.02 670.034 1105.98 672.662 1104.95 674.876C1103.92 677.09 1101.29 678.051 1099.07 677.02C1096.86 675.996 1095.9 673.362 1096.93 671.148Z" fill="#599DAD"/>
<path d="M1101.91 672.439C1102.68 672.439 1103.3 671.819 1103.3 671.052C1103.3 670.286 1102.68 669.666 1101.91 669.666C1101.15 669.666 1100.52 670.286 1100.52 671.052C1100.52 671.819 1101.15 672.439 1101.91 672.439Z" fill="#89CFDB"/>
<path d="M880.79 511.131C883.64 511.131 885.95 508.821 885.95 505.971C885.95 503.121 883.64 500.811 880.79 500.811C877.941 500.811 875.63 503.121 875.63 505.971C875.63 508.821 877.941 511.131 880.79 511.131Z" fill="#ED7D2B"/>
<path d="M880.313 503.68C880.313 502.783 881.038 502.058 881.935 502.058C882.833 502.058 883.558 502.783 883.558 503.68C883.558 504.577 882.833 505.302 881.935 505.302C881.038 505.302 880.313 504.577 880.313 503.68Z" fill="#FFB37B"/>
<path d="M894.685 515.266C895.36 513.816 897.078 513.192 898.528 513.866C899.979 514.541 900.602 516.259 899.934 517.709C899.26 519.16 897.542 519.783 896.092 519.115C894.641 518.435 894.011 516.717 894.685 515.266Z" fill="#599DAD"/>
<path d="M897.04 515.202C897.04 514.7 897.447 514.299 897.949 514.299C898.452 514.299 898.859 514.706 898.859 515.202C898.859 515.705 898.452 516.112 897.949 516.112C897.447 516.112 897.04 515.705 897.04 515.202Z" fill="#89CFDB"/>
<path d="M1015.77 509.349C1015.77 506.843 1017.8 504.807 1020.31 504.807C1022.82 504.807 1024.85 506.836 1024.85 509.349C1024.85 511.856 1022.82 513.892 1020.31 513.892C1017.8 513.892 1015.77 511.856 1015.77 509.349Z" fill="#ED7D2B"/>
<path d="M1019.88 507.332C1019.88 506.543 1020.52 505.907 1021.31 505.907C1022.1 505.907 1022.73 506.543 1022.73 507.332C1022.73 508.121 1022.1 508.758 1021.31 508.758C1020.52 508.758 1019.88 508.121 1019.88 507.332Z" fill="#FFB37B"/>
<path d="M947.104 507.103C948.052 505.067 950.47 504.183 952.506 505.131C954.542 506.079 955.426 508.497 954.478 510.533C953.53 512.569 951.113 513.453 949.077 512.505C947.041 511.557 946.156 509.139 947.104 507.103Z" fill="#599DAD"/>
<path d="M950.413 507.008C950.413 506.302 950.985 505.729 951.691 505.729C952.398 505.729 952.97 506.302 952.97 507.008C952.97 507.714 952.398 508.287 951.691 508.287C950.985 508.287 950.413 507.714 950.413 507.008Z" fill="#89CFDB"/>
<path d="M1135.8 658.945C1135.8 655.573 1133.06 652.837 1129.69 652.837C1126.32 652.837 1123.58 655.573 1123.58 658.945C1123.58 662.317 1126.32 665.053 1129.69 665.053C1133.06 665.053 1135.8 662.317 1135.8 658.945Z" fill="#ED7D2B"/>
<path d="M1130.26 656.235C1130.26 655.179 1129.4 654.32 1128.34 654.32C1127.28 654.32 1126.42 655.179 1126.42 656.235C1126.42 657.291 1127.28 658.15 1128.34 658.15C1129.4 658.15 1130.26 657.291 1130.26 656.235Z" fill="#FFB37B"/>
<path d="M1172.1 771.221C1172.1 771.221 1089.15 801.473 1129.26 862.316C1129.26 862.316 1190.45 838.744 1172.1 771.221Z" fill="#543419"/>
<path d="M1071.65 828.945C1071.65 828.945 1084.08 882.044 1124.35 861.933C1124.35 861.927 1114.41 822.678 1071.65 828.945Z" fill="#543419"/>
<path d="M1081.7 856.437C1081.7 853.835 1083.8 851.729 1086.41 851.729C1089.01 851.729 1091.11 853.841 1091.11 856.437C1091.11 859.033 1089 861.145 1086.41 861.145C1083.81 861.145 1081.7 859.033 1081.7 856.437Z" fill="#ED7D2B"/>
<path d="M1085.97 854.344C1085.97 853.529 1086.64 852.868 1087.45 852.868C1088.26 852.868 1088.93 853.529 1088.93 854.344C1088.93 855.158 1088.26 855.82 1087.45 855.82C1086.64 855.82 1085.97 855.158 1085.97 854.344Z" fill="#FFB37B"/>
<path d="M1096.93 866.546C1097.96 864.332 1100.59 863.371 1102.8 864.402C1105.02 865.433 1105.98 868.06 1104.95 870.275C1103.92 872.489 1101.29 873.449 1099.07 872.419C1096.86 871.394 1095.9 868.76 1096.93 866.546Z" fill="#599DAD"/>
<path d="M1100.52 866.444C1100.52 865.681 1101.15 865.057 1101.91 865.057C1102.67 865.057 1103.3 865.681 1103.3 866.444C1103.3 867.214 1102.67 867.831 1101.91 867.831C1101.15 867.831 1100.52 867.214 1100.52 866.444Z" fill="#89CFDB"/>
<path d="M1135.8 854.344C1135.8 850.972 1133.06 848.236 1129.69 848.236C1126.32 848.236 1123.58 850.972 1123.58 854.344C1123.58 857.716 1126.32 860.451 1129.69 860.451C1133.06 860.451 1135.8 857.716 1135.8 854.344Z" fill="#ED7D2B"/>
<path d="M1130.26 851.633C1130.26 850.577 1129.4 849.718 1128.34 849.718C1127.28 849.718 1126.42 850.577 1126.42 851.633C1126.42 852.689 1127.28 853.548 1128.34 853.548C1129.4 853.548 1130.26 852.689 1130.26 851.633Z" fill="#FFB37B"/>
<path d="M1096.5 1011.47L1098.3 1011.03C1092.44 999.156 1081.91 990.178 1073.26 985.534C1065.68 981.468 1059.4 979.642 1057.15 979.057C1056.6 978.911 1056.01 979.051 1055.58 979.42L1053.91 980.851C1053.09 981.557 1053.39 982.9 1054.44 983.186C1062.47 985.4 1087.64 993.55 1096.5 1011.47Z" fill="#ED7D2B"/>
<path d="M1127.18 1018.71C1121.73 996.616 1108.9 999.785 1093.05 1003.69C1077.22 1007.6 1064.38 1010.77 1069.83 1032.86C1073.74 1048.7 1089.74 1058.37 1105.58 1054.46C1121.41 1050.56 1131.09 1034.55 1127.18 1018.71Z" fill="#543419"/>
<path d="M1113.47 1019.18C1118.19 1028.68 1118.14 1039.29 1114.23 1048.3C1120.64 1041.27 1123.54 1031.26 1121.09 1021.32C1117.12 1005.23 1109.23 1002.53 1099.12 1003.77C1104.23 1005.57 1108.99 1010.18 1113.47 1019.18Z" fill="#935C37"/>
<path d="M1196.14 832.05L1194.76 831.713C1199.24 822.659 1207.27 815.807 1213.87 812.27C1219.64 809.171 1224.44 807.778 1226.16 807.326C1226.58 807.218 1227.03 807.32 1227.36 807.606L1228.63 808.701C1229.26 809.241 1229.03 810.266 1228.23 810.482C1222.1 812.162 1202.9 818.378 1196.14 832.05Z" fill="#ED7D2B"/>
<path d="M1172.74 837.579C1176.9 820.725 1186.69 823.143 1198.77 826.121C1210.85 829.098 1220.64 831.516 1216.48 848.369C1213.51 860.451 1201.3 867.825 1189.21 864.848C1177.14 861.864 1169.76 849.655 1172.74 837.579Z" fill="#543419"/>
<path d="M1183.2 837.929C1179.6 845.169 1179.64 853.262 1182.62 860.14C1177.73 854.77 1175.52 847.135 1177.39 839.558C1180.42 827.285 1186.43 825.223 1194.14 826.171C1190.24 827.546 1186.62 831.064 1183.2 837.929Z" fill="#935C37"/>
<path d="M1825.77 1108.62H174.877C173.846 1108.62 173 1107.77 173 1106.74V1106.1C173 1105.07 173.846 1104.23 174.877 1104.23H1825.77C1826.8 1104.23 1827.64 1105.07 1827.64 1106.1V1106.74C1827.64 1107.78 1826.8 1108.62 1825.77 1108.62Z" fill="#2E3552"/>
</svg>
